<svg id="icons_spite_64_sitefeatures_orange" xmlns="http://www.w3.org/2000/svg" width="512" height="64" viewBox="0 0 512 64">
  <g id="Icons01" transform="translate(-6 -12)">
    <rect id="icon_bg" width="64" height="64" transform="translate(6 12)" fill="#fff" opacity="0"/>
    <g id="icon" transform="translate(-1920.474 -1718.448)">
      <g id="Group_8479" data-name="Group 8479">
        <line id="Line_141" data-name="Line 141" y1="10.954" x2="6.017" transform="translate(1955.558 1743.551)" fill="none" stroke="#344154" stroke-linecap="round" stroke-linejoin="round" stroke-width="1.5"/>
        <path id="Path_11537" data-name="Path 11537" d="M1962.727,1754.505h0a1.948,1.948,0,0,1-1.948-1.947v-1.349a1.948,1.948,0,0,1,1.948-1.948h0a1.948,1.948,0,0,1,1.947,1.948v1.349A1.947,1.947,0,0,1,1962.727,1754.505Z" fill="none" stroke="#344154" stroke-linecap="round" stroke-linejoin="round" stroke-width="1.5"/>
        <path id="Path_11538" data-name="Path 11538" d="M1954.542,1748.8h0a1.948,1.948,0,0,1-1.948-1.948V1745.5a1.948,1.948,0,0,1,1.948-1.948h0a1.948,1.948,0,0,1,1.947,1.948v1.349A1.948,1.948,0,0,1,1954.542,1748.8Z" fill="none" stroke="#344154" stroke-linecap="round" stroke-linejoin="round" stroke-width="1.5"/>
      </g>
      <ellipse id="Ellipse_12" data-name="Ellipse 12" cx="12.336" cy="14.78" rx="12.336" ry="14.78" transform="translate(1946.298 1733.448)" fill="none" stroke="#344154" stroke-linecap="round" stroke-linejoin="round" stroke-width="1.5"/>
      <path id="Path_11539" data-name="Path 11539" d="M1963.3,1761.988l1.092,2.734a1.8,1.8,0,0,1-2.258,2.376l-3.522-1.2-3.3,1.125a1.8,1.8,0,0,1-2.227-2.448l1.123-2.491" fill="none" stroke="#344154" stroke-linecap="round" stroke-linejoin="round" stroke-width="1.5"/>
      <line id="Line_142" data-name="Line 142" y2="24.897" transform="translate(1958.607 1765.897)" fill="none" stroke="#344154" stroke-linecap="round" stroke-linejoin="round" stroke-width="1.5"/>
      <path id="Path_11540" data-name="Path 11540" d="M1973.948,1745.577a8.762,8.762,0,0,1,5.1-1.673c5.535,0,10.022,5.376,10.022,12.008s-4.487,12.008-10.022,12.008c-4.206,0-7.808-3.106-9.294-7.507" fill="none" stroke="#344154" stroke-linecap="round" stroke-linejoin="round" stroke-width="1.5"/>
      <path id="Path_11541" data-name="Path 11541" d="M1982.84,1767.091l.887,2.222a1.465,1.465,0,0,1-1.834,1.93l-2.862-.977-2.68.915a1.465,1.465,0,0,1-1.809-1.989l.912-2.024" fill="none" stroke="#344154" stroke-linecap="round" stroke-linejoin="round" stroke-width="1.5"/>
      <line id="Line_143" data-name="Line 143" y2="20.227" transform="translate(1979.031 1770.266)" fill="none" stroke="#344154" stroke-linecap="round" stroke-linejoin="round" stroke-width="1.5"/>
      <path id="Path_11542" data-name="Path 11542" d="M1947.73,1760.586c-1.521,4.31-5.083,7.334-9.234,7.334-5.535,0-10.022-5.376-10.022-12.008s4.487-12.008,10.022-12.008a8.7,8.7,0,0,1,4.737,1.424" fill="none" stroke="#344154" stroke-linecap="round" stroke-linejoin="round" stroke-width="1.5"/>
      <path id="Path_11543" data-name="Path 11543" d="M1942.282,1767.091l.887,2.222a1.465,1.465,0,0,1-1.834,1.93l-2.861-.977-2.681.915a1.465,1.465,0,0,1-1.809-1.989l.913-2.024" fill="none" stroke="#344154" stroke-linecap="round" stroke-linejoin="round" stroke-width="1.5"/>
      <line id="Line_144" data-name="Line 144" y2="20.227" transform="translate(1938.474 1770.266)" fill="none" stroke="#344154" stroke-linecap="round" stroke-linejoin="round" stroke-width="1.5"/>
      <g id="Group_8481" data-name="Group 8481">
        <g id="Group_8480" data-name="Group 8480">
          <path id="Path_11544" data-name="Path 11544" d="M1935.367,1759.815v-7.857L1933,1753.7" fill="none" stroke="#344154" stroke-linecap="round" stroke-linejoin="round" stroke-width="1.5"/>
          <line id="Line_145" data-name="Line 145" x2="2.686" transform="translate(1933.963 1759.815)" fill="none" stroke="#344154" stroke-linecap="round" stroke-linejoin="round" stroke-width="1.5"/>
        </g>
        <path id="Path_11545" data-name="Path 11545" d="M1941.337,1759.815h0a2.242,2.242,0,0,1-2.242-2.242v-3.565a2.242,2.242,0,0,1,2.242-2.241h0a2.241,2.241,0,0,1,2.242,2.241v3.565A2.242,2.242,0,0,1,1941.337,1759.815Z" fill="none" stroke="#344154" stroke-linecap="round" stroke-linejoin="round" stroke-width="1.5"/>
      </g>
      <g id="Group_8482" data-name="Group 8482">
        <path id="Path_11546" data-name="Path 11546" d="M1973.409,1754.435a2.04,2.04,0,0,1,2.1-2.039,2.063,2.063,0,0,1,1.982,1.981,2.038,2.038,0,0,1-.817,1.692,9.322,9.322,0,0,0-2.594,2.841l-.292.519h4.227" fill="none" stroke="#344154" stroke-linecap="round" stroke-linejoin="round" stroke-width="1.5"/>
        <path id="Path_11547" data-name="Path 11547" d="M1982.577,1759.639h0a2.076,2.076,0,0,1-2.076-2.076v-3.3a2.076,2.076,0,0,1,2.076-2.076h0a2.076,2.076,0,0,1,2.076,2.076v3.3A2.076,2.076,0,0,1,1982.577,1759.639Z" fill="none" stroke="#344154" stroke-linecap="round" stroke-linejoin="round" stroke-width="1.5"/>
      </g>
      <path id="Path_11548" data-name="Path 11548" d="M1967.7,1744.685c-1.2-4.857-4.812-8.393-9.065-8.393a8.229,8.229,0,0,0-5.577,2.286A17.863,17.863,0,0,1,1967.7,1744.685Z" fill="#ff6d3b"/>
    </g>
  </g>
  <g id="Icons02" transform="translate(58 -12)">
    <rect id="icon_bg-2" data-name="icon_bg" width="64" height="64" transform="translate(6 12)" fill="#fff" opacity="0"/>
    <g id="icon-2" data-name="icon" transform="translate(-2852.253 -608.11)">
      <path id="Path_11549" data-name="Path 11549" d="M2919.154,680.88h-54.4V627.82" transform="translate(-0.067 -0.096)" fill="none" stroke="#344154" stroke-linecap="round" stroke-linejoin="round" stroke-width="1.5"/>
      <line id="Line_146" data-name="Line 146" x2="13.514" transform="translate(2901.555 664.149)" fill="none" stroke="#344154" stroke-linecap="round" stroke-linejoin="round" stroke-width="1.5"/>
      <line id="Line_147" data-name="Line 147" x2="13.514" transform="translate(2901.555 669.652)" fill="none" stroke="#344154" stroke-linecap="round" stroke-linejoin="round" stroke-width="1.5"/>
      <line id="Line_148" data-name="Line 148" x2="13.514" transform="translate(2901.555 675.155)" fill="none" stroke="#344154" stroke-linecap="round" stroke-linejoin="round" stroke-width="1.5"/>
      <path id="Path_11550" data-name="Path 11550" d="M2902.53,681.641V659.5h13.513v22.137" transform="translate(-0.975 -0.858)" fill="none" stroke="#344154" stroke-linecap="round" stroke-linejoin="round" stroke-width="1.5"/>
      <path id="Path_11551" data-name="Path 11551" d="M2861.956,626.582l2.771-2.77,2.686,2.7" transform="translate(0)" fill="none" stroke="#344154" stroke-linecap="round" stroke-linejoin="round" stroke-width="1.5"/>
      <path id="Path_11552" data-name="Path 11552" d="M2891.1,636.11l3.118-2.372,2.3,3.034" transform="translate(-0.7 -0.239)" fill="none" stroke="#344154" stroke-linecap="round" stroke-linejoin="round" stroke-width="1.5"/>
      <line id="Line_149" data-name="Line 149" x2="5.456" transform="translate(2861.956 632.355)" fill="none" stroke="#344154" stroke-linecap="round" stroke-linejoin="round" stroke-width="1.5"/>
      <line id="Line_150" data-name="Line 150" x2="5.456" transform="translate(2861.956 640.539)" fill="none" stroke="#344154" stroke-linecap="round" stroke-linejoin="round" stroke-width="1.5"/>
      <line id="Line_151" data-name="Line 151" x2="5.456" transform="translate(2861.956 648.724)" fill="none" stroke="#344154" stroke-linecap="round" stroke-linejoin="round" stroke-width="1.5"/>
      <line id="Line_152" data-name="Line 152" x2="5.456" transform="translate(2861.956 656.908)" fill="none" stroke="#344154" stroke-linecap="round" stroke-linejoin="round" stroke-width="1.5"/>
      <line id="Line_153" data-name="Line 153" x2="5.456" transform="translate(2861.956 665.092)" fill="none" stroke="#344154" stroke-linecap="round" stroke-linejoin="round" stroke-width="1.5"/>
      <line id="Line_154" data-name="Line 154" x2="5.456" transform="translate(2861.956 673.276)" fill="none" stroke="#344154" stroke-linecap="round" stroke-linejoin="round" stroke-width="1.5"/>
      <path id="Path_11553" data-name="Path 11553" d="M2871.772,673.606l2.665-8.072h5.71l3.933-16.481h6.721l2.4-11.522" transform="translate(-0.236 -0.33)" fill="none" stroke="#344154" stroke-linecap="round" stroke-linejoin="round" stroke-width="1.5"/>
      <g id="Group_8484" data-name="Group 8484" transform="translate(2870.183 648.724)">
        <g id="Group_8483" data-name="Group 8483">
          <line id="Line_155" data-name="Line 155" transform="translate(10.32)" fill="none" stroke="#344154" stroke-linecap="round" stroke-linejoin="round" stroke-width="1.5"/>
          <line id="Line_156" data-name="Line 156" x1="5.163" transform="translate(1.722)" fill="none" stroke="#344154" stroke-linecap="round" stroke-linejoin="round" stroke-width="1.5" stroke-dasharray="0.011 6.767"/>
          <line id="Line_157" data-name="Line 157" fill="none" stroke="#344154" stroke-linecap="round" stroke-linejoin="round" stroke-width="1.5"/>
        </g>
      </g>
      <g id="Group_8486" data-name="Group 8486" transform="translate(2870.183 632.355)">
        <g id="Group_8485" data-name="Group 8485">
          <line id="Line_158" data-name="Line 158" transform="translate(18.039)" fill="none" stroke="#344154" stroke-linecap="round" stroke-linejoin="round" stroke-width="1.5"/>
          <line id="Line_159" data-name="Line 159" x1="13.532" transform="translate(1.506)" fill="none" stroke="#344154" stroke-linecap="round" stroke-linejoin="round" stroke-width="1.5" stroke-dasharray="0 5.914"/>
          <line id="Line_160" data-name="Line 160" fill="none" stroke="#344154" stroke-linecap="round" stroke-linejoin="round" stroke-width="1.5"/>
        </g>
      </g>
      <path id="Path_11554" data-name="Path 11554" d="M2895.716,640.951l-1.836,8.806-.506,2.424h-6.793l-3.375,14.143-.558,2.339h-5.912l-.9,2.729h9.49l3.934-16.725h5.921l2.982-13.714Z" transform="translate(-0.333 -0.412)" fill="#ff6d3b"/>
    </g>
  </g>
  <g id="Icons03" transform="translate(122 -12)">
    <rect id="icon_bg-3" data-name="icon_bg" width="64" height="64" transform="translate(6 12)" fill="#fff" opacity="0"/>
    <g id="icon-3" data-name="icon" transform="translate(-254.771 -607.842)">
      <path id="Path_11555" data-name="Path 11555" d="M282.666,654.322a9.037,9.037,0,1,0,7.208-14.486" transform="translate(-0.754 -0.682)" fill="none" stroke="#344154" stroke-linecap="round" stroke-linejoin="round" stroke-width="1.5"/>
      <path id="Path_11556" data-name="Path 11556" d="M290.824,649.2a.693.693,0,1,1-.694-.694A.693.693,0,0,1,290.824,649.2Z" transform="translate(-1.011 -1.011)" fill="none" stroke="#344154" stroke-linecap="round" stroke-linejoin="round" stroke-width="1.5"/>
      <path id="Path_11557" data-name="Path 11557" d="M289.629,631.526v17.032l-13.45,10.174" transform="translate(-0.508 -0.367)" fill="none" stroke="#344154" stroke-linecap="round" stroke-linejoin="round" stroke-width="1.5"/>
      <path id="Path_11558" data-name="Path 11558" d="M296.71,673.43a26.316,26.316,0,1,1,18.031-19.059" transform="translate(0 0)" fill="none" stroke="#344154" stroke-linecap="round" stroke-linejoin="round" stroke-width="1.5"/>
      <line id="Line_161" data-name="Line 161" x2="3.565" transform="translate(262.771 648.191)" fill="none" stroke="#344154" stroke-linecap="round" stroke-linejoin="round" stroke-width="1.5"/>
      <line id="Line_162" data-name="Line 162" x2="3.565" transform="translate(311.905 648.191)" fill="none" stroke="#344154" stroke-linecap="round" stroke-linejoin="round" stroke-width="1.5"/>
      <line id="Line_163" data-name="Line 163" y2="3.565" transform="translate(289.121 621.842)" fill="none" stroke="#344154" stroke-linecap="round" stroke-linejoin="round" stroke-width="1.5"/>
      <line id="Line_164" data-name="Line 164" y2="3.565" transform="translate(289.121 670.975)" fill="none" stroke="#344154" stroke-linecap="round" stroke-linejoin="round" stroke-width="1.5"/>
      <g id="Group_8487" data-name="Group 8487" transform="translate(300.444 657.227)">
        <path id="Path_11559" data-name="Path 11559" d="M324.24,679.1v2.077a1.74,1.74,0,0,1-1.291,1.681h0a38.278,38.278,0,0,1-19.73,0h0a1.74,1.74,0,0,1-1.291-1.681V679.1" transform="translate(-301.928 -659.397)" fill="none" stroke="#344154" stroke-linecap="round" stroke-linejoin="round" stroke-width="1.5"/>
        <path id="Path_11560" data-name="Path 11560" d="M324.24,672.463v2.078a1.739,1.739,0,0,1-1.291,1.68h0a38.278,38.278,0,0,1-19.73,0h0a1.739,1.739,0,0,1-1.291-1.68v-2.078" transform="translate(-301.928 -659.146)" fill="none" stroke="#344154" stroke-linecap="round" stroke-linejoin="round" stroke-width="1.5"/>
        <path id="Path_11561" data-name="Path 11561" d="M324.24,665.83v2.078a1.74,1.74,0,0,1-1.291,1.681h0a38.3,38.3,0,0,1-19.73,0h0a1.74,1.74,0,0,1-1.291-1.681V665.83" transform="translate(-301.928 -658.894)" fill="none" stroke="#344154" stroke-linecap="round" stroke-linejoin="round" stroke-width="1.5"/>
        <path id="Path_11562" data-name="Path 11562" d="M324.24,661.781c0,1.744-4.994,3.16-11.156,3.16s-11.157-1.415-11.157-3.16,5-3.16,11.157-3.16S324.24,660.035,324.24,661.781Z" transform="translate(-301.928 -658.621)" fill="none" stroke="#344154" stroke-linecap="round" stroke-linejoin="round" stroke-width="1.5"/>
      </g>
      <path id="Path_11563" data-name="Path 11563" d="M278.181,648.628a11.382,11.382,0,0,1,8.094-10.881v-4.359a15.573,15.573,0,0,0-10.639,22.267l3.477-2.523A11.3,11.3,0,0,1,278.181,648.628Z" transform="translate(-0.424 -0.438)" fill="#ff6d3b"/>
    </g>
  </g>
  <g id="Icons04" transform="translate(186 -12)">
    <rect id="icon_bg-4" data-name="icon_bg" width="64" height="64" transform="translate(6 12)" fill="#fff" opacity="0"/>
    <g id="icon-4" data-name="icon" transform="translate(-808.455 -421.036)">
      <g id="Group_8488" data-name="Group 8488" transform="translate(820.455 472.534)">
        <path id="Path_11564" data-name="Path 11564" d="M846.03,486.43c2.187.253,8.19.367,11.645-2.037a2.578,2.578,0,0,0-2.762-4.341,9.723,9.723,0,0,1-7.831.316c-7.308-4.584-14.141-3.773-19.3-.1h0" transform="translate(-820.793 -474.479)" fill="none" stroke="#344154" stroke-linecap="round" stroke-linejoin="round" stroke-width="1.5"/>
        <path id="Path_11565" data-name="Path 11565" d="M827.783,491.042s8.337.589,20.433,1.277c7.368.419,12.355-3.6,19.531-10.554h0a2.3,2.3,0,0,0,.194-3.091h0a2.3,2.3,0,0,0-2.809-.623l-6.385,4.61" transform="translate(-820.793 -474.507)" fill="none" stroke="#344154" stroke-linecap="round" stroke-linejoin="round" stroke-width="1.5"/>
        <path id="Path_11566" data-name="Path 11566" d="M820.455,496.048h4.36a2.444,2.444,0,0,0,2.444-2.444V476.791a2.444,2.444,0,0,0-2.444-2.444h-4.36" transform="translate(-820.455 -474.347)" fill="none" stroke="#344154" stroke-linecap="round" stroke-linejoin="round" stroke-width="1.5"/>
      </g>
      <g id="Group_8489" data-name="Group 8489" transform="translate(847.878 446.177)">
        <path id="Path_11567" data-name="Path 11567" d="M849.2,460.647a3.887,3.887,0,0,0,7.773,0c0-2.147-1.593-3.138-3.886-3.887-2.041-.666-3.887-1.74-3.887-3.887a3.887,3.887,0,0,1,7.773,0" transform="translate(-849.204 -446.82)" fill="none" stroke="#344154" stroke-linecap="round" stroke-linejoin="round" stroke-width="1.5"/>
        <line id="Line_165" data-name="Line 165" y2="2.193" transform="translate(3.887)" fill="none" stroke="#344154" stroke-linecap="round" stroke-linejoin="round" stroke-width="1.5"/>
        <line id="Line_166" data-name="Line 166" y2="2.193" transform="translate(3.887 17.714)" fill="none" stroke="#344154" stroke-linecap="round" stroke-linejoin="round" stroke-width="1.5"/>
      </g>
      <path id="Path_11568" data-name="Path 11568" d="M833.166,456.13a18.921,18.921,0,0,1,23.192-18.449,18.932,18.932,0,1,0-13.891,34.741A18.943,18.943,0,0,1,833.166,456.13Z" transform="translate(-0.338)" fill="#ff6d3b"/>
      <circle id="Ellipse_13" data-name="Ellipse 13" cx="14.683" cy="14.683" r="14.683" transform="translate(831.001 456.13) rotate(-45)" fill="none" stroke="#344154" stroke-linecap="round" stroke-linejoin="round" stroke-width="1.5"/>
      <line id="Line_167" data-name="Line 167" x2="31.897" y2="31.897" transform="translate(835.367 440.124)" fill="none" stroke="#344154" stroke-linecap="round" stroke-miterlimit="10" stroke-width="1.5"/>
    </g>
  </g>
  <g id="Icons05" transform="translate(250 -12)">
    <rect id="icon_bg-5" data-name="icon_bg" width="64" height="64" transform="translate(6 12)" fill="#fff" opacity="0"/>
    <g id="icon-5" data-name="icon" transform="translate(-808.455 -421.036)">
      <g id="Group_8488-2" data-name="Group 8488" transform="translate(820.455 472.534)">
        <path id="Path_11564-2" data-name="Path 11564" d="M846.03,486.43c2.187.253,8.19.367,11.645-2.037a2.578,2.578,0,0,0-2.762-4.341,9.723,9.723,0,0,1-7.831.316c-7.308-4.584-14.141-3.773-19.3-.1h0" transform="translate(-820.793 -474.479)" fill="none" stroke="#344154" stroke-linecap="round" stroke-linejoin="round" stroke-width="1.5"/>
        <path id="Path_11565-2" data-name="Path 11565" d="M827.783,491.042s8.337.589,20.433,1.277c7.368.419,12.355-3.6,19.531-10.554h0a2.3,2.3,0,0,0,.194-3.091h0a2.3,2.3,0,0,0-2.809-.623l-6.385,4.61" transform="translate(-820.793 -474.507)" fill="none" stroke="#344154" stroke-linecap="round" stroke-linejoin="round" stroke-width="1.5"/>
        <path id="Path_11566-2" data-name="Path 11566" d="M820.455,496.048h4.36a2.444,2.444,0,0,0,2.444-2.444V476.791a2.444,2.444,0,0,0-2.444-2.444h-4.36" transform="translate(-820.455 -474.347)" fill="none" stroke="#344154" stroke-linecap="round" stroke-linejoin="round" stroke-width="1.5"/>
      </g>
      <g id="Group_8489-2" data-name="Group 8489" transform="translate(847.878 446.177)">
        <path id="Path_11567-2" data-name="Path 11567" d="M849.2,460.647a3.887,3.887,0,0,0,7.773,0c0-2.147-1.593-3.138-3.886-3.887-2.041-.666-3.887-1.74-3.887-3.887a3.887,3.887,0,0,1,7.773,0" transform="translate(-849.204 -446.82)" fill="none" stroke="#344154" stroke-linecap="round" stroke-linejoin="round" stroke-width="1.5"/>
        <line id="Line_165-2" data-name="Line 165" y2="2.193" transform="translate(3.887)" fill="none" stroke="#344154" stroke-linecap="round" stroke-linejoin="round" stroke-width="1.5"/>
        <line id="Line_166-2" data-name="Line 166" y2="2.193" transform="translate(3.887 17.714)" fill="none" stroke="#344154" stroke-linecap="round" stroke-linejoin="round" stroke-width="1.5"/>
      </g>
      <path id="Path_11568-2" data-name="Path 11568" d="M833.166,456.13a18.921,18.921,0,0,1,23.192-18.449,18.932,18.932,0,1,0-13.891,34.741A18.943,18.943,0,0,1,833.166,456.13Z" transform="translate(-0.338)" fill="#ff6d3b"/>
      <circle id="Ellipse_13-2" data-name="Ellipse 13" cx="14.683" cy="14.683" r="14.683" transform="translate(831.001 456.13) rotate(-45)" fill="none" stroke="#344154" stroke-linecap="round" stroke-linejoin="round" stroke-width="1.5"/>
      <line id="Line_167-2" data-name="Line 167" x2="31.897" y2="31.897" transform="translate(835.367 440.124)" fill="none" stroke="#344154" stroke-linecap="round" stroke-miterlimit="10" stroke-width="1.5"/>
    </g>
  </g>
  <g id="Icons06" transform="translate(314 -12)">
    <rect id="icon_bg-6" data-name="icon_bg" width="64" height="64" transform="translate(6 12)" fill="#fff" opacity="0"/>
    <g id="icon-6" data-name="icon" transform="translate(-1920.474 -1718.448)">
      <g id="Group_8479-2" data-name="Group 8479">
        <line id="Line_141-2" data-name="Line 141" y1="10.954" x2="6.017" transform="translate(1955.558 1743.551)" fill="none" stroke="#344154" stroke-linecap="round" stroke-linejoin="round" stroke-width="1.5"/>
        <path id="Path_11537-2" data-name="Path 11537" d="M1962.727,1754.505h0a1.948,1.948,0,0,1-1.948-1.947v-1.349a1.948,1.948,0,0,1,1.948-1.948h0a1.948,1.948,0,0,1,1.947,1.948v1.349A1.947,1.947,0,0,1,1962.727,1754.505Z" fill="none" stroke="#344154" stroke-linecap="round" stroke-linejoin="round" stroke-width="1.5"/>
        <path id="Path_11538-2" data-name="Path 11538" d="M1954.542,1748.8h0a1.948,1.948,0,0,1-1.948-1.948V1745.5a1.948,1.948,0,0,1,1.948-1.948h0a1.948,1.948,0,0,1,1.947,1.948v1.349A1.948,1.948,0,0,1,1954.542,1748.8Z" fill="none" stroke="#344154" stroke-linecap="round" stroke-linejoin="round" stroke-width="1.5"/>
      </g>
      <ellipse id="Ellipse_12-2" data-name="Ellipse 12" cx="12.336" cy="14.78" rx="12.336" ry="14.78" transform="translate(1946.298 1733.448)" fill="none" stroke="#344154" stroke-linecap="round" stroke-linejoin="round" stroke-width="1.5"/>
      <path id="Path_11539-2" data-name="Path 11539" d="M1963.3,1761.988l1.092,2.734a1.8,1.8,0,0,1-2.258,2.376l-3.522-1.2-3.3,1.125a1.8,1.8,0,0,1-2.227-2.448l1.123-2.491" fill="none" stroke="#344154" stroke-linecap="round" stroke-linejoin="round" stroke-width="1.5"/>
      <line id="Line_142-2" data-name="Line 142" y2="24.897" transform="translate(1958.607 1765.897)" fill="none" stroke="#344154" stroke-linecap="round" stroke-linejoin="round" stroke-width="1.5"/>
      <path id="Path_11540-2" data-name="Path 11540" d="M1973.948,1745.577a8.762,8.762,0,0,1,5.1-1.673c5.535,0,10.022,5.376,10.022,12.008s-4.487,12.008-10.022,12.008c-4.206,0-7.808-3.106-9.294-7.507" fill="none" stroke="#344154" stroke-linecap="round" stroke-linejoin="round" stroke-width="1.5"/>
      <path id="Path_11541-2" data-name="Path 11541" d="M1982.84,1767.091l.887,2.222a1.465,1.465,0,0,1-1.834,1.93l-2.862-.977-2.68.915a1.465,1.465,0,0,1-1.809-1.989l.912-2.024" fill="none" stroke="#344154" stroke-linecap="round" stroke-linejoin="round" stroke-width="1.5"/>
      <line id="Line_143-2" data-name="Line 143" y2="20.227" transform="translate(1979.031 1770.266)" fill="none" stroke="#344154" stroke-linecap="round" stroke-linejoin="round" stroke-width="1.5"/>
      <path id="Path_11542-2" data-name="Path 11542" d="M1947.73,1760.586c-1.521,4.31-5.083,7.334-9.234,7.334-5.535,0-10.022-5.376-10.022-12.008s4.487-12.008,10.022-12.008a8.7,8.7,0,0,1,4.737,1.424" fill="none" stroke="#344154" stroke-linecap="round" stroke-linejoin="round" stroke-width="1.5"/>
      <path id="Path_11543-2" data-name="Path 11543" d="M1942.282,1767.091l.887,2.222a1.465,1.465,0,0,1-1.834,1.93l-2.861-.977-2.681.915a1.465,1.465,0,0,1-1.809-1.989l.913-2.024" fill="none" stroke="#344154" stroke-linecap="round" stroke-linejoin="round" stroke-width="1.5"/>
      <line id="Line_144-2" data-name="Line 144" y2="20.227" transform="translate(1938.474 1770.266)" fill="none" stroke="#344154" stroke-linecap="round" stroke-linejoin="round" stroke-width="1.5"/>
      <g id="Group_8481-2" data-name="Group 8481">
        <g id="Group_8480-2" data-name="Group 8480">
          <path id="Path_11544-2" data-name="Path 11544" d="M1935.367,1759.815v-7.857L1933,1753.7" fill="none" stroke="#344154" stroke-linecap="round" stroke-linejoin="round" stroke-width="1.5"/>
          <line id="Line_145-2" data-name="Line 145" x2="2.686" transform="translate(1933.963 1759.815)" fill="none" stroke="#344154" stroke-linecap="round" stroke-linejoin="round" stroke-width="1.5"/>
        </g>
        <path id="Path_11545-2" data-name="Path 11545" d="M1941.337,1759.815h0a2.242,2.242,0,0,1-2.242-2.242v-3.565a2.242,2.242,0,0,1,2.242-2.241h0a2.241,2.241,0,0,1,2.242,2.241v3.565A2.242,2.242,0,0,1,1941.337,1759.815Z" fill="none" stroke="#344154" stroke-linecap="round" stroke-linejoin="round" stroke-width="1.5"/>
      </g>
      <g id="Group_8482-2" data-name="Group 8482">
        <path id="Path_11546-2" data-name="Path 11546" d="M1973.409,1754.435a2.04,2.04,0,0,1,2.1-2.039,2.063,2.063,0,0,1,1.982,1.981,2.038,2.038,0,0,1-.817,1.692,9.322,9.322,0,0,0-2.594,2.841l-.292.519h4.227" fill="none" stroke="#344154" stroke-linecap="round" stroke-linejoin="round" stroke-width="1.5"/>
        <path id="Path_11547-2" data-name="Path 11547" d="M1982.577,1759.639h0a2.076,2.076,0,0,1-2.076-2.076v-3.3a2.076,2.076,0,0,1,2.076-2.076h0a2.076,2.076,0,0,1,2.076,2.076v3.3A2.076,2.076,0,0,1,1982.577,1759.639Z" fill="none" stroke="#344154" stroke-linecap="round" stroke-linejoin="round" stroke-width="1.5"/>
      </g>
      <path id="Path_11548-2" data-name="Path 11548" d="M1967.7,1744.685c-1.2-4.857-4.812-8.393-9.065-8.393a8.229,8.229,0,0,0-5.577,2.286A17.863,17.863,0,0,1,1967.7,1744.685Z" fill="#ff6d3b"/>
    </g>
  </g>
  <g id="Icons07" transform="translate(378 -12)">
    <rect id="icon_bg-7" data-name="icon_bg" width="64" height="64" transform="translate(6 12)" fill="#fff" opacity="0"/>
    <g id="icon-7" data-name="icon" transform="translate(-254.625 -1709.4)">
      <path id="Path_11594" data-name="Path 11594" d="M280.246,1790.706v-1.923a1.013,1.013,0,0,0-1.013-1.012H265.638a1.013,1.013,0,0,0-1.013,1.012v1.923Z" transform="translate(0 -7.494)" fill="none" stroke="#344154" stroke-linecap="round" stroke-linejoin="round" stroke-width="1.5"/>
      <path id="Path_11595" data-name="Path 11595" d="M276.638,1769.19a3.655,3.655,0,1,1-3.654-3.656A3.655,3.655,0,0,1,276.638,1769.19Z" transform="translate(-0.548 -4.905)" fill="none" stroke="#344154" stroke-linecap="round" stroke-linejoin="round" stroke-width="1.5"/>
      <path id="Path_11596" data-name="Path 11596" d="M280.189,1786.053a6.12,6.12,0,0,0-1.831-4.083,8.664,8.664,0,0,1-2.466-6.5v-2.452" transform="translate(-1.311 -5.777)" fill="none" stroke="#344154" stroke-linecap="round" stroke-linejoin="round" stroke-width="1.5"/>
      <path id="Path_11597" data-name="Path 11597" d="M266.174,1786.053A6.12,6.12,0,0,1,268,1781.97a8.664,8.664,0,0,0,2.466-6.5v-2.452" transform="translate(-0.18 -5.777)" fill="none" stroke="#344154" stroke-linecap="round" stroke-linejoin="round" stroke-width="1.5"/>
      <path id="Path_11598" data-name="Path 11598" d="M302.725,1790.706v-1.923a1.013,1.013,0,0,0-1.013-1.012H288.117a1.013,1.013,0,0,0-1.013,1.012v1.923Z" transform="translate(-2.617 -7.494)" fill="none" stroke="#344154" stroke-linecap="round" stroke-linejoin="round" stroke-width="1.5"/>
      <path id="Path_11599" data-name="Path 11599" d="M299.117,1769.19a3.655,3.655,0,1,1-3.655-3.656A3.655,3.655,0,0,1,299.117,1769.19Z" transform="translate(-3.165 -4.905)" fill="none" stroke="#344154" stroke-linecap="round" stroke-linejoin="round" stroke-width="1.5"/>
      <path id="Path_11600" data-name="Path 11600" d="M302.668,1786.053a6.12,6.12,0,0,0-1.831-4.083,8.664,8.664,0,0,1-2.466-6.5v-2.452" transform="translate(-3.929 -5.777)" fill="none" stroke="#344154" stroke-linecap="round" stroke-linejoin="round" stroke-width="1.5"/>
      <path id="Path_11601" data-name="Path 11601" d="M288.653,1786.053a6.12,6.12,0,0,1,1.831-4.083,8.664,8.664,0,0,0,2.466-6.5v-2.452" transform="translate(-2.797 -5.777)" fill="none" stroke="#344154" stroke-linecap="round" stroke-linejoin="round" stroke-width="1.5"/>
      <path id="Path_11602" data-name="Path 11602" d="M325.2,1790.706v-1.923a1.013,1.013,0,0,0-1.013-1.012H310.6a1.013,1.013,0,0,0-1.013,1.012v1.923H325.2" transform="translate(-5.234 -7.494)" fill="none" stroke="#344154" stroke-linecap="round" stroke-linejoin="round" stroke-width="1.5"/>
      <path id="Path_11603" data-name="Path 11603" d="M321.6,1769.19a3.655,3.655,0,1,1-3.655-3.656A3.655,3.655,0,0,1,321.6,1769.19Z" transform="translate(-5.782 -4.905)" fill="none" stroke="#344154" stroke-linecap="round" stroke-linejoin="round" stroke-width="1.5"/>
      <path id="Path_11604" data-name="Path 11604" d="M325.147,1786.053a6.12,6.12,0,0,0-1.831-4.083,8.664,8.664,0,0,1-2.466-6.5v-2.452" transform="translate(-6.546 -5.777)" fill="none" stroke="#344154" stroke-linecap="round" stroke-linejoin="round" stroke-width="1.5"/>
      <path id="Path_11605" data-name="Path 11605" d="M311.132,1786.053a6.12,6.12,0,0,1,1.831-4.083,8.664,8.664,0,0,0,2.466-6.5v-2.452" transform="translate(-5.414 -5.777)" fill="none" stroke="#344154" stroke-linecap="round" stroke-linejoin="round" stroke-width="1.5"/>
      <line id="Line_178" data-name="Line 178" y1="6.221" transform="translate(292.291 1723.4)" fill="none" stroke="#344154" stroke-linecap="round" stroke-linejoin="round" stroke-width="1.5"/>
      <line id="Line_179" data-name="Line 179" x2="4.998" transform="translate(289.792 1726.297)" fill="none" stroke="#344154" stroke-linecap="round" stroke-linejoin="round" stroke-width="1.5"/>
      <path id="Path_11606" data-name="Path 11606" d="M286.307,1745.554s-9.749.852-12.473,10.769" transform="translate(-1.072 -2.579)" fill="none" stroke="#344154" stroke-linecap="round" stroke-linejoin="round" stroke-width="1.5"/>
      <line id="Line_180" data-name="Line 180" x1="2.246" y1="2.246" transform="translate(270.19 1755.609)" fill="none" stroke="#344154" stroke-linecap="round" stroke-linejoin="round" stroke-width="1.5"/>
      <line id="Line_181" data-name="Line 181" y1="2.246" x2="2.246" transform="translate(272.435 1755.609)" fill="none" stroke="#344154" stroke-linecap="round" stroke-linejoin="round" stroke-width="1.5"/>
      <path id="Path_11607" data-name="Path 11607" d="M303.923,1745.554s9.726.85,12.464,10.735" transform="translate(-4.575 -2.579)" fill="none" stroke="#344154" stroke-linecap="round" stroke-linejoin="round" stroke-width="1.5"/>
      <line id="Line_182" data-name="Line 182" y1="2.246" x2="2.246" transform="translate(312.147 1755.609)" fill="none" stroke="#344154" stroke-linecap="round" stroke-linejoin="round" stroke-width="1.5"/>
      <line id="Line_183" data-name="Line 183" x1="2.246" y1="2.246" transform="translate(309.902 1755.609)" fill="none" stroke="#344154" stroke-linecap="round" stroke-linejoin="round" stroke-width="1.5"/>
      <path id="Path_11608" data-name="Path 11608" d="M286.954,1756.563a8.8,8.8,0,0,0,2.454-5.61,2.2,2.2,0,0,0-.9-1.831,3.053,3.053,0,0,1-.689-.736,17.393,17.393,0,0,0-3.781,1.193,7.34,7.34,0,0,0,.748.891,3.713,3.713,0,0,1,1.219,1.655,2.563,2.563,0,0,1-.893,2.175,6.856,6.856,0,0,0-1.561,1.867c-.524,1.222.037,2.612.593,3.82.2.443.408.887.636,1.318a6.311,6.311,0,0,1,2.129-4.7Z" transform="translate(-2.179 -2.909)" fill="#ff6d3b"/>
      <path id="Path_11609" data-name="Path 11609" d="M304.06,1756.563a8.788,8.788,0,0,1-2.454-5.61,2.2,2.2,0,0,1,.9-1.831,3.069,3.069,0,0,0,.69-.736,17.394,17.394,0,0,1,3.78,1.193,7.26,7.26,0,0,1-.748.891,3.713,3.713,0,0,0-1.219,1.655,2.563,2.563,0,0,0,.893,2.175,6.856,6.856,0,0,1,1.561,1.867c.524,1.222-.037,2.612-.593,3.82-.2.443-.408.887-.636,1.318a6.31,6.31,0,0,0-2.128-4.7Z" transform="translate(-4.305 -2.909)" fill="#ff6d3b"/>
      <path id="Path_11610" data-name="Path 11610" d="M301.846,1760.3a3.313,3.313,0,0,0-.71-3.479l-.5-.514a11.326,11.326,0,0,1-3.012-9.981,1.58,1.58,0,0,1,1.245-1.253,1.063,1.063,0,0,0,1.2-1.049v-.421a1.048,1.048,0,0,0-1.049-1.049c-.882,0-1.244.086-1.363-.306a1.734,1.734,0,0,1,.141-1.283l1.187-3.609a3.448,3.448,0,0,0-.563-3.2l-2.609-3.324a1.024,1.024,0,0,0-1.611,0l-2.609,3.324a3.448,3.448,0,0,0-.563,3.2c1.459,4.436,1.5,4.294,1.328,4.892a.435.435,0,0,1-.436.306h-.774a1.048,1.048,0,0,0-1.049,1.049v.421a1.048,1.048,0,0,0,1.049,1.049,1.613,1.613,0,0,1,1.287,1.49,11.331,11.331,0,0,1-3.055,9.744,3.613,3.613,0,0,0-1.206,3.992" transform="translate(-2.716 -0.82)" fill="none" stroke="#344154" stroke-linecap="round" stroke-linejoin="round" stroke-width="1.5"/>
    </g>
  </g>
  <g id="Icons08" transform="translate(442 -12)">
    <rect id="icon_bg-8" data-name="icon_bg" width="64" height="64" transform="translate(6 12)" fill="#fff" opacity="0"/>
    <g id="icon-8" data-name="icon" transform="translate(-2663.951 -1531.358)">
      <path id="Path_11574" data-name="Path 11574" d="M2698.38,1564.616c1.862,11.07-2.339,7.429-1.717,12.76a1.3,1.3,0,0,0,.932,1.1c2.5.727,4.109,1.173,5.2,1.5" transform="translate(-0.79 -0.577)" fill="none" stroke="#344154" stroke-linecap="round" stroke-linejoin="round" stroke-width="1.5"/>
      <path id="Path_11575" data-name="Path 11575" d="M2683.323,1574.281a7.065,7.065,0,0,1-7.27-3.071c6.09-.733,4.438-9.328,6.348-13.6a9.739,9.739,0,0,1,17.253,0c2.017,4.508.2,12.858,6.348,13.6a7.067,7.067,0,0,1-7.27,3.071" transform="translate(-0.103 -0.168)" fill="none" stroke="#344154" stroke-linecap="round" stroke-linejoin="round" stroke-width="1.5"/>
      <path id="Path_11576" data-name="Path 11576" d="M2685.84,1578.779l5.516,4.118,5.515-4.118" transform="translate(-0.431 -1.051)" fill="none" stroke="#344154" stroke-linecap="round" stroke-linejoin="round" stroke-width="1.5"/>
      <path id="Path_11577" data-name="Path 11577" d="M2697.593,1564.372a5.179,5.179,0,0,1-4.494-1.477c-.7-.724-1.171-1.638-1.806-2.422-2.119-2.615-6.226-.518-6.87,3.033a37.481,37.481,0,0,0-.71,6.083,6.53,6.53,0,0,0,1.486,4.137,4.264,4.264,0,0,1,.778,3.473,1.3,1.3,0,0,1-.932,1.1l-5.99,1.74a6.743,6.743,0,0,0-4.691,5.18l-1.4,10.625" transform="translate(0 -0.399)" fill="none" stroke="#344154" stroke-linecap="round" stroke-linejoin="round" stroke-width="1.5"/>
      <path id="Path_11578" data-name="Path 11578" d="M2729.007,1595.57a10.846,10.846,0,1,0-10.847,10.846A10.846,10.846,0,0,0,2729.007,1595.57Z" transform="translate(-1.149 -1.249)" fill="none" stroke="#344154" stroke-linecap="round" stroke-linejoin="round" stroke-width="1.5"/>
      <path id="Path_11579" data-name="Path 11579" d="M2732.445,1595.446a14.408,14.408,0,0,0-28.815,0" transform="translate(-1.026 -1.126)" fill="none" stroke="#344154" stroke-linecap="round" stroke-linejoin="round" stroke-width="1.5"/>
      <path id="Path_11580" data-name="Path 11580" d="M2716.193,1580.867V1579.7a2.265,2.265,0,0,1,2.265-2.265h0a2.265,2.265,0,0,1,2.265,2.265v1.163" transform="translate(-1.446 -1.006)" fill="none" stroke="#344154" stroke-linecap="round" stroke-linejoin="round" stroke-width="1.5"/>
      <line id="Line_171" data-name="Line 171" y1="2.752" x2="2.752" transform="translate(2727.199 1581.381)" fill="none" stroke="#344154" stroke-linecap="round" stroke-linejoin="round" stroke-width="1.5"/>
      <line id="Line_172" data-name="Line 172" x2="2.38" y2="2.38" transform="translate(2728.761 1580.191)" fill="none" stroke="#344154" stroke-linecap="round" stroke-linejoin="round" stroke-width="1.5"/>
      <line id="Line_173" data-name="Line 173" x1="2.752" y1="2.752" transform="translate(2704.073 1581.381)" fill="none" stroke="#344154" stroke-linecap="round" stroke-linejoin="round" stroke-width="1.5"/>
      <line id="Line_174" data-name="Line 174" x1="2.38" y2="2.38" transform="translate(2702.884 1580.191)" fill="none" stroke="#344154" stroke-linecap="round" stroke-linejoin="round" stroke-width="1.5"/>
      <path id="Path_11581" data-name="Path 11581" d="M2724.442,1590.2a.17.17,0,1,0-.17.17A.17.17,0,0,0,2724.442,1590.2Z" transform="translate(-1.71 -1.427)" fill="none" stroke="#344154" stroke-linecap="round" stroke-linejoin="round" stroke-width="1.5"/>
      <path id="Path_11582" data-name="Path 11582" d="M2727.022,1595.938a.17.17,0,1,0-.169.169A.169.169,0,0,0,2727.022,1595.938Z" transform="translate(-1.796 -1.619)" fill="none" stroke="#344154" stroke-linecap="round" stroke-linejoin="round" stroke-width="1.5"/>
      <path id="Path_11583" data-name="Path 11583" d="M2724.442,1601.681a.17.17,0,1,0-.17.169A.17.17,0,0,0,2724.442,1601.681Z" transform="translate(-1.71 -1.811)" fill="none" stroke="#344154" stroke-linecap="round" stroke-linejoin="round" stroke-width="1.5"/>
      <path id="Path_11584" data-name="Path 11584" d="M2712.619,1590.2a.17.17,0,1,1,.169.17A.17.17,0,0,1,2712.619,1590.2Z" transform="translate(-1.326 -1.427)" fill="none" stroke="#344154" stroke-linecap="round" stroke-linejoin="round" stroke-width="1.5"/>
      <path id="Path_11585" data-name="Path 11585" d="M2710.039,1595.938a.17.17,0,1,1,.169.169A.169.169,0,0,1,2710.039,1595.938Z" transform="translate(-1.24 -1.619)" fill="none" stroke="#344154" stroke-linecap="round" stroke-linejoin="round" stroke-width="1.5"/>
      <path id="Path_11586" data-name="Path 11586" d="M2712.619,1601.681a.17.17,0,1,1,.169.169A.169.169,0,0,1,2712.619,1601.681Z" transform="translate(-1.326 -1.811)" fill="none" stroke="#344154" stroke-linecap="round" stroke-linejoin="round" stroke-width="1.5"/>
      <path id="Path_11587" data-name="Path 11587" d="M2718.7,1604.261a.169.169,0,1,0-.169.169A.169.169,0,0,0,2718.7,1604.261Z" transform="translate(-1.518 -1.897)" fill="none" stroke="#344154" stroke-linecap="round" stroke-linejoin="round" stroke-width="1.5"/>
      <path id="Path_11588" data-name="Path 11588" d="M2718.7,1587.616a.169.169,0,1,0-.169.17A.169.169,0,0,0,2718.7,1587.616Z" transform="translate(-1.518 -1.341)" fill="none" stroke="#344154" stroke-linecap="round" stroke-linejoin="round" stroke-width="1.5"/>
      <line id="Line_175" data-name="Line 175" y1="4.208" transform="translate(2717.012 1590.111)" fill="none" stroke="#344154" stroke-linecap="round" stroke-linejoin="round" stroke-width="1.5"/>
      <path id="Path_11589" data-name="Path 11589" d="M2730.386,1548.239v14.047a.88.88,0,0,1-.88.88h-19.327a.881.881,0,0,0-.622.258l-2.743,2.748v-17.933a.88.88,0,0,1,.88-.88h21.813A.88.88,0,0,1,2730.386,1548.239Z" transform="translate(-1.132)" fill="none" stroke="#344154" stroke-linecap="round" stroke-linejoin="round" stroke-width="1.5"/>
      <path id="Path_11590" data-name="Path 11590" d="M2719.93,1550.538a.419.419,0,1,1-.419-.418A.418.418,0,0,1,2719.93,1550.538Z" transform="translate(-1.543 -0.092)" fill="#344154" stroke="#344154" stroke-linecap="round" stroke-linejoin="round" stroke-width="1.5"/>
      <path id="Path_11591" data-name="Path 11591" d="M2719.744,1559.738v-6.829h-2.393" transform="translate(-1.484 -0.186)" fill="none" stroke="#344154" stroke-linecap="round" stroke-linejoin="round" stroke-width="1.5"/>
      <line id="Line_176" data-name="Line 176" x2="4.716" transform="translate(2715.867 1559.553)" fill="none" stroke="#344154" stroke-linecap="round" stroke-linejoin="round" stroke-width="1.5"/>
      <line id="Line_177" data-name="Line 177" y2="9.226" transform="translate(2690.925 1581.847)" fill="none" stroke="#344154" stroke-linecap="round" stroke-linejoin="round" stroke-width="1.5"/>
      <path id="Path_11592" data-name="Path 11592" d="M2691.422,1555.312a7.3,7.3,0,0,0-3.586.968,7.461,7.461,0,0,1,5.015,1.437,27.614,27.614,0,0,1,2.262,2.373,9.974,9.974,0,0,0,3.152,2.15,13.73,13.73,0,0,0-.791-3.378A6.754,6.754,0,0,0,2691.422,1555.312Z" transform="translate(-0.497 -0.266)" fill="#ff6d3b"/>
    </g>
  </g>
</svg>
