<svg xmlns="http://www.w3.org/2000/svg" width="240.965" height="61.203" viewBox="0 0 240.965 61.203">
  <g id="icons_spite_60_sitefeatures" transform="translate(0.215)">
    <g id="Icons01" transform="translate(-6 -12)">
      <rect id="icon_bg" width="60" height="60" transform="translate(6 12)" fill="#fff" opacity="0"/>
      <g id="icon" transform="translate(-1329.229 1518.177)">
        <rect id="Rectangle_1759" data-name="Rectangle 1759" width="25.243" height="3.977" rx="1.637" transform="translate(1352.161 -1473.427)" fill="none" stroke="#344154" stroke-linecap="round" stroke-linejoin="round" stroke-width="1.5"/>
        <path id="Path_10131" data-name="Path 10131" d="M1370.69-1499.27a5.908,5.908,0,0,1-5.908,5.908,5.908,5.908,0,0,1-5.907-5.908,5.907,5.907,0,0,1,5.907-5.907h0a5.908,5.908,0,0,1,5.908,5.906Z" fill="none" stroke="#344154" stroke-linecap="round" stroke-linejoin="round" stroke-width="1.5"/>
        <path id="Path_10132" data-name="Path 10132" d="M1364.782-1499.27a3.1,3.1,0,0,1,2.676,1.548,3.1,3.1,0,0,0-1.117-4.234,3.1,3.1,0,0,0-4.233,1.116,3.1,3.1,0,0,0,0,3.118A3.1,3.1,0,0,1,1364.782-1499.27Z" fill="#17c2c9"/>
        <path id="Path_10133" data-name="Path 10133" d="M1375.192-1473.427c-.059-3.405-1.9-5.309-2.958-6.6a14,14,0,0,1-3.985-10.5v-3.963" fill="none" stroke="#344154" stroke-linecap="round" stroke-linejoin="round" stroke-width="1.5"/>
        <path id="Path_10134" data-name="Path 10134" d="M1354.373-1473.427c.059-3.405,1.9-5.309,2.959-6.6a14,14,0,0,0,3.985-10.5v-3.963" fill="none" stroke="#344154" stroke-linecap="round" stroke-linejoin="round" stroke-width="1.5"/>
        <path id="Path_10135" data-name="Path 10135" d="M1348.645-1470.777h-2.526a2.356,2.356,0,0,1-1.917-2.439v-1.743s-4.681,3.956-7.973,6.539h0c3.293,2.582,7.973,6.54,7.973,6.54v-1.745a2.356,2.356,0,0,1,1.917-2.439h10.727a5.49,5.49,0,0,1,5.49,5.49h0v4.5a2.353,2.353,0,0,1-2.438,1.915h-1.745s3.958,4.682,6.54,7.974h0c2.582-3.292,6.539-7.974,6.539-7.974h-1.744a2.355,2.355,0,0,1-2.439-1.915v-4.5a5.488,5.488,0,0,1,5.487-5.489h10.912a2.356,2.356,0,0,1,1.915,2.439v1.744s4.682-3.957,7.973-6.54h0c-3.292-2.582-7.973-6.539-7.973-6.539v1.742a2.354,2.354,0,0,1-1.915,2.439h-2.524" fill="none" stroke="#344154" stroke-linecap="round" stroke-miterlimit="10" stroke-width="1.5"/>
      </g>
    </g>
    <g id="Icons02" transform="translate(54 -12)">
      <rect id="icon_bg-2" data-name="icon_bg" width="60" height="60" transform="translate(6 12)" fill="#fff" opacity="0"/>
      <g id="icon-2" data-name="icon" transform="translate(-1328.738 1515.438)">
        <circle id="Ellipse_2" data-name="Ellipse 2" cx="15.796" cy="15.796" r="15.796" transform="translate(1348.636 -1476.057)" fill="none" stroke="#344154" stroke-linecap="round" stroke-linejoin="round" stroke-width="1.5"/>
        <g id="Group_8340" data-name="Group 8340">
          <path id="Path_10136" data-name="Path 10136" d="M1364.432-1446.746a13.515,13.515,0,0,1-13.516-13.515,13.515,13.515,0,0,1,13.516-13.515,13.515,13.515,0,0,1,13.515,13.515A13.531,13.531,0,0,1,1364.432-1446.746Zm0-25.23a11.715,11.715,0,0,0-11.716,11.715,11.716,11.716,0,0,0,11.716,11.716,11.716,11.716,0,0,0,11.715-11.716A11.732,11.732,0,0,0,1364.432-1471.976Z" fill="#17c2c9"/>
        </g>
        <path id="Path_10137" data-name="Path 10137" d="M1369.444-1475.4v-2.979a2.137,2.137,0,0,0-2.137-2.137h-5.75a2.138,2.138,0,0,0-2.138,2.137v2.979" fill="none" stroke="#344154" stroke-linecap="round" stroke-linejoin="round" stroke-width="1.5"/>
        <line id="Line_90" data-name="Line 90" y1="16.538" x2="16.539" transform="translate(1370.588 -1498.311)" fill="none" stroke="#344154" stroke-linecap="round" stroke-linejoin="round" stroke-width="1.5"/>
        <line id="Line_91" data-name="Line 91" x1="16.177" y2="16.177" transform="translate(1367.475 -1501.438)" fill="none" stroke="#344154" stroke-linecap="round" stroke-linejoin="round" stroke-width="1.5"/>
        <line id="Line_92" data-name="Line 92" x1="16.538" y1="16.538" transform="translate(1341.738 -1498.311)" fill="none" stroke="#344154" stroke-linecap="round" stroke-linejoin="round" stroke-width="1.5"/>
        <line id="Line_93" data-name="Line 93" x2="16.177" y2="16.177" transform="translate(1345.211 -1501.438)" fill="none" stroke="#344154" stroke-linecap="round" stroke-linejoin="round" stroke-width="1.5"/>
        <g id="Group_8341" data-name="Group 8341">
          <line id="Line_94" data-name="Line 94" y2="14.199" transform="translate(1364.432 -1467.361)" fill="none" stroke="#344154" stroke-linecap="round" stroke-linejoin="round" stroke-width="1.5"/>
          <line id="Line_95" data-name="Line 95" x2="7.37" transform="translate(1360.746 -1467.361)" fill="none" stroke="#344154" stroke-linecap="round" stroke-linejoin="round" stroke-width="1.5"/>
          <line id="Line_96" data-name="Line 96" x2="7.37" transform="translate(1360.746 -1453.161)" fill="none" stroke="#344154" stroke-linecap="round" stroke-linejoin="round" stroke-width="1.5"/>
        </g>
      </g>
    </g>
    <g id="Icons03" transform="translate(114 -12)">
      <rect id="icon_bg-3" data-name="icon_bg" width="60" height="60" transform="translate(6 12)" fill="#fff" opacity="0"/>
      <g id="icon-3" data-name="icon" transform="translate(-1332.692 1520.881)">
        <path id="Path_10147" data-name="Path 10147" d="M1353.03-1490.84A16,16,0,0,1,1369-1506.881a16,16,0,0,1,16.041,15.969v.072" fill="none" stroke="#344154" stroke-linecap="round" stroke-linejoin="round" stroke-width="1.5"/>
        <path id="Path_10148" data-name="Path 10148" d="M1382.628-1481.586h2.2a3.586,3.586,0,0,0,3.586-3.587v-2.177a3.586,3.586,0,0,0-3.586-3.587h-2.2v11.028a8.416,8.416,0,0,1-8.415,8.415h-1.677" fill="none" stroke="#344154" stroke-linecap="round" stroke-linejoin="round" stroke-width="1.5"/>
        <path id="Path_10149" data-name="Path 10149" d="M1355.44-1481.586h-2.2a3.586,3.586,0,0,1-3.587-3.586h0v-2.177a3.587,3.587,0,0,1,3.587-3.587h2.2Z" fill="none" stroke="#344154" stroke-linecap="round" stroke-linejoin="round" stroke-width="1.5"/>
        <rect id="Rectangle_1761" data-name="Rectangle 1761" width="4.762" height="2.966" rx="1.138" transform="translate(1369.345 -1474.461)" fill="none" stroke="#344154" stroke-linecap="round" stroke-linejoin="round" stroke-width="1.5"/>
        <path id="Path_10150" data-name="Path 10150" d="M1378.226-1450.6h13.193l-1.744-11.464a8.6,8.6,0,0,0-2.95-4.932,7.025,7.025,0,0,0-2.89-1.518l-4.64-1.217" fill="none" stroke="#344154" stroke-linecap="round" stroke-linejoin="round" stroke-width="1.5"/>
        <path id="Path_10151" data-name="Path 10151" d="M1358.5-1450.884h-11.807l1.745-11.177a8.576,8.576,0,0,1,2.952-4.932,7.016,7.016,0,0,1,2.914-1.525l7.431-2.158a1.587,1.587,0,0,0,.455-.212,1.627,1.627,0,0,0,.706-1.16l.341-2.951a11.654,11.654,0,0,1-2.429-2.6,13.42,13.42,0,0,1-1.308-2.47l-.631-1.516" fill="none" stroke="#344154" stroke-linecap="round" stroke-linejoin="round" stroke-width="1.5"/>
        <path id="Path_10152" data-name="Path 10152" d="M1370.493-1492.781s-1.8,6.226-12.221,5.069h0a9.085,9.085,0,0,1-.054-3.925,13.006,13.006,0,0,1,2.793-5.743,10.963,10.963,0,0,1,8.334-4.058,11.225,11.225,0,0,1,9.173,5.151,13.675,13.675,0,0,1,1.049,1.848l.854,1.767" fill="none" stroke="#344154" stroke-linecap="round" stroke-linejoin="round" stroke-width="1.5"/>
        <line id="Line_100" data-name="Line 100" y1="11.309" transform="translate(1369.035 -1461.905)" fill="none" stroke="#344154" stroke-linecap="round" stroke-linejoin="round" stroke-width="1.5"/>
        <line id="Line_101" data-name="Line 101" y1="4.336" x2="4.336" transform="translate(1369.035 -1466.241)" fill="none" stroke="#344154" stroke-linecap="round" stroke-linejoin="round" stroke-width="1.5"/>
        <line id="Line_102" data-name="Line 102" x1="4.336" y1="4.336" transform="translate(1364.699 -1466.241)" fill="none" stroke="#344154" stroke-linecap="round" stroke-linejoin="round" stroke-width="1.5"/>
        <path id="Path_10153" data-name="Path 10153" d="M1369.971-1495.04s.771,7.073,9.738,6.827" fill="none" stroke="#344154" stroke-linecap="round" stroke-linejoin="round" stroke-width="1.5"/>
        <path id="Path_10154" data-name="Path 10154" d="M1387.113-1461.6a6,6,0,0,0-2.045-3.384,4.412,4.412,0,0,0-1.793-.982l-.05-.011-.051-.013-.684-.179a16.687,16.687,0,0,1,2.067,7.655,4.754,4.754,0,0,1-.408,2.326,5.542,5.542,0,0,1-1.278,1.46l-1.7,1.534h7.216Z" fill="#17c2c9"/>
        <path id="Path_10155" data-name="Path 10155" d="M1351.507-1461.6a6,6,0,0,1,2.044-3.384,4.425,4.425,0,0,1,1.793-.982l.051-.011.051-.013.683-.179a16.684,16.684,0,0,0-2.067,7.655,4.767,4.767,0,0,0,.4,2.326,5.559,5.559,0,0,0,1.278,1.46l1.7,1.534h-7.219Z" fill="#17c2c9"/>
      </g>
    </g>
    <g id="Icons04" transform="translate(174 -12)">
      <rect id="icon_bg-4" data-name="icon_bg" width="60" height="60" transform="translate(6 12)" fill="#fff" opacity="0"/>
      <g id="icon-4" data-name="icon" transform="translate(-1297.018 1515.596)">
        <circle id="Ellipse_3" data-name="Ellipse 3" cx="8.425" cy="8.425" r="8.425" transform="translate(1341.067 -1501.596)" fill="none" stroke="#344154" stroke-linecap="round" stroke-linejoin="round" stroke-width="1.5"/>
        <path id="Path_10156" data-name="Path 10156" d="M1349.576-1492.069a5.624,5.624,0,0,1-5.14-3.36,5.619,5.619,0,0,0,2.872,7.408,5.619,5.619,0,0,0,7.408-2.873,5.619,5.619,0,0,0,0-4.535A5.623,5.623,0,0,1,1349.576-1492.069Z" transform="translate(-0.083)" fill="#17c2c9"/>
        <path id="Path_10157" data-name="Path 10157" d="M1352.327-1485.044l5.4,5.395v-5.378h5.377l-5.4-5.4" transform="translate(-0.083)" fill="none" stroke="#344154" stroke-linecap="round" stroke-linejoin="round" stroke-width="1.5"/>
        <path id="Path_10158" data-name="Path 10158" d="M1346.824-1485.044l-5.4,5.395v-5.378h-5.378l5.4-5.4" transform="translate(-0.056)" fill="none" stroke="#344154" stroke-linecap="round" stroke-linejoin="round" stroke-width="1.5"/>
        <g id="Group_8343" data-name="Group 8343" transform="translate(1307.688 -1498.581)">
          <line id="Line_103" data-name="Line 103" x2="16.834" transform="translate(24.021 35.983)" fill="none" stroke="#344154" stroke-linecap="round" stroke-linejoin="round" stroke-width="1.5"/>
          <line id="Line_104" data-name="Line 104" y2="14.611" transform="translate(46.777 22.274)" fill="none" stroke="#344154" stroke-linecap="round" stroke-linejoin="round" stroke-width="1.5"/>
          <line id="Line_105" data-name="Line 105" x2="23.032" transform="translate(7.827 0.001)" fill="none" stroke="#344154" stroke-linecap="round" stroke-linejoin="round" stroke-width="1.5"/>
          <line id="Line_106" data-name="Line 106" y1="16.147" transform="translate(7.827 4.064)" fill="none" stroke="#344154" stroke-linecap="round" stroke-linejoin="round" stroke-width="1.5"/>
          <path id="Path_10159" data-name="Path 10159" d="M1354.546-1445.747h-30.59" transform="translate(-1307.771 1498.581)" fill="none" stroke="#344154" stroke-linecap="round" stroke-linejoin="round" stroke-width="1.5"/>
          <path id="Path_10160" data-name="Path 10160" d="M1354.546-1445.747a6.939,6.939,0,0,0,6.938-6.94,6.937,6.937,0,0,0-2.009-4.882h-25.667" transform="translate(-1307.771 1498.581)" fill="none" stroke="#344154" stroke-linecap="round" stroke-linejoin="round" stroke-width="1.5"/>
          <path id="Path_10161" data-name="Path 10161" d="M1315.515-1487.5h-7.827s.488-11.083,7.827-11.083" transform="translate(-1307.688 1498.581)" fill="none" stroke="#344154" stroke-linecap="round" stroke-linejoin="round" stroke-width="1.5"/>
        </g>
        <g id="Group_8344" data-name="Group 8344" transform="translate(1303.018 -1458.768)">
          <path id="Path_10162" data-name="Path 10162" d="M1318.159-1451.6c1.313.151,4.915.22,6.989-1.222a1.548,1.548,0,0,0,.342-2.161,1.546,1.546,0,0,0-2-.444,5.838,5.838,0,0,1-4.7.19c-4.385-2.754-8.485-2.264-11.578-.061h0" transform="translate(-1303.018 1458.768)" fill="none" stroke="#344154" stroke-linecap="round" stroke-linejoin="round" stroke-width="1.5"/>
          <path id="Path_10163" data-name="Path 10163" d="M1307.212-1448.846s5,.352,12.259.765c4.421.252,7.413-2.16,11.719-6.332h0a1.38,1.38,0,0,0,.116-1.854h0a1.38,1.38,0,0,0-1.686-.374l-3.831,2.766" transform="translate(-1303.018 1458.768)" fill="none" stroke="#344154" stroke-linecap="round" stroke-linejoin="round" stroke-width="1.5"/>
          <path id="Path_10164" data-name="Path 10164" d="M1303.018-1445.747h2.616a1.466,1.466,0,0,0,1.466-1.466h0V-1457.3a1.466,1.466,0,0,0-1.466-1.467h-2.616" transform="translate(-1303.018 1458.768)" fill="none" stroke="#344154" stroke-linecap="round" stroke-linejoin="round" stroke-width="1.5"/>
        </g>
        <g id="Group_8346" data-name="Group 8346" transform="translate(1312.974 -1477.419)">
          <g id="Group_8345" data-name="Group 8345" transform="translate(6.477 2.838)">
            <path id="Path_10165" data-name="Path 10165" d="M1319.471-1466.286a2.332,2.332,0,0,0,2.332,2.332,2.333,2.333,0,0,0,2.333-2.332c0-1.288-.956-1.883-2.33-2.329-1.224-.4-2.33-1.044-2.33-2.33a2.332,2.332,0,0,1,2.332-2.332,2.332,2.332,0,0,1,2.332,2.332" transform="translate(-1319.471 1474.582)" fill="none" stroke="#344154" stroke-linecap="round" stroke-linejoin="round" stroke-width="1.5"/>
            <line id="Line_107" data-name="Line 107" y2="1.316" transform="translate(2.332)" fill="none" stroke="#344154" stroke-linecap="round" stroke-linejoin="round" stroke-width="1.5"/>
            <line id="Line_108" data-name="Line 108" y2="1.316" transform="translate(2.332 10.628)" fill="none" stroke="#344154" stroke-linecap="round" stroke-linejoin="round" stroke-width="1.5"/>
          </g>
          <circle id="Ellipse_4" data-name="Ellipse 4" cx="8.809" cy="8.809" r="8.809" fill="none" stroke="#344154" stroke-linecap="round" stroke-linejoin="round" stroke-width="1.5"/>
        </g>
      </g>
    </g>
  </g>
</svg>
