<svg id="icons_spite_60_sitefeatures" xmlns="http://www.w3.org/2000/svg" width="420" height="60" viewBox="0 0 420 60">
  <g id="Icons01" transform="translate(-6 -12)">
    <rect id="icon_bg" width="60" height="60" transform="translate(6 12)" fill="#fff" opacity="0"/>
    <g id="icon" transform="translate(-1327.788 1519.665)">
      <rect id="Rectangle_1759" data-name="Rectangle 1759" width="23.97" height="3.776" rx="1.637" transform="translate(1351.357 -1475.028)" fill="none" stroke="#344154" stroke-linecap="round" stroke-linejoin="round" stroke-width="1.5"/>
      <path id="Path_10131" data-name="Path 10131" d="M1370.094-1499.568a5.61,5.61,0,0,1-5.61,5.61,5.61,5.61,0,0,1-5.609-5.61,5.609,5.609,0,0,1,5.609-5.609h0a5.61,5.61,0,0,1,5.61,5.608Z" transform="translate(-1.143)" fill="none" stroke="#344154" stroke-linecap="round" stroke-linejoin="round" stroke-width="1.5"/>
      <path id="Path_10132" data-name="Path 10132" d="M1364.626-1499.427a2.941,2.941,0,0,1,2.541,1.47,2.94,2.94,0,0,0-1.061-4.02,2.939,2.939,0,0,0-4.019,1.06,2.942,2.942,0,0,0,0,2.961A2.941,2.941,0,0,1,1364.626-1499.427Z" transform="translate(-1.284 -0.141)" fill="#17c2c9"/>
      <path id="Path_10133" data-name="Path 10133" d="M1374.842-1474.49a9.384,9.384,0,0,0-2.809-6.264,13.3,13.3,0,0,1-3.784-9.973v-3.763" transform="translate(-1.615 -0.539)" fill="none" stroke="#344154" stroke-linecap="round" stroke-linejoin="round" stroke-width="1.5"/>
      <path id="Path_10134" data-name="Path 10134" d="M1354.373-1474.49a9.385,9.385,0,0,1,2.81-6.264,13.3,13.3,0,0,0,3.784-9.973v-3.763" transform="translate(-0.915 -0.539)" fill="none" stroke="#344154" stroke-linecap="round" stroke-linejoin="round" stroke-width="1.5"/>
      <path id="Path_10135" data-name="Path 10135" d="M1348.019-1470.988h-2.4a2.237,2.237,0,0,1-1.82-2.316v-1.655s-4.445,3.756-7.571,6.209h0c3.127,2.452,7.571,6.21,7.571,6.21v-1.657a2.237,2.237,0,0,1,1.82-2.316h10.186a5.213,5.213,0,0,1,5.213,5.213h0v4.269a2.234,2.234,0,0,1-2.315,1.819h-1.657s3.758,4.446,6.21,7.572h0c2.452-3.126,6.209-7.572,6.209-7.572h-1.656a2.236,2.236,0,0,1-2.316-1.819v-4.271a5.211,5.211,0,0,1,5.21-5.212h10.361a2.237,2.237,0,0,1,1.818,2.316v1.656s4.446-3.758,7.571-6.21h0c-3.126-2.452-7.571-6.209-7.571-6.209v1.654a2.235,2.235,0,0,1-1.818,2.316h-2.4" transform="translate(0 -1.525)" fill="none" stroke="#344154" stroke-linecap="round" stroke-miterlimit="10" stroke-width="1.5"/>
    </g>
  </g>
  <g id="Icons02" transform="translate(54 -12)">
    <rect id="icon_bg-2" data-name="icon_bg" width="60" height="60" transform="translate(6 12)" fill="#fff" opacity="0"/>
    <g id="icon-2" data-name="icon" transform="translate(-1328.224 1516.083)">
      <circle id="Ellipse_2" data-name="Ellipse 2" cx="15.438" cy="15.438" r="15.438" transform="translate(1348.479 -1476.631)" fill="none" stroke="#344154" stroke-linecap="round" stroke-linejoin="round" stroke-width="1.5"/>
      <g id="Group_8340" data-name="Group 8340" transform="translate(1350.708 -1474.402)">
        <path id="Path_10136" data-name="Path 10136" d="M1364.126-1447.358a13.209,13.209,0,0,1-13.21-13.209,13.209,13.209,0,0,1,13.21-13.209,13.209,13.209,0,0,1,13.209,13.209A13.224,13.224,0,0,1,1364.126-1447.358Zm0-24.659a11.45,11.45,0,0,0-11.451,11.45,11.451,11.451,0,0,0,11.451,11.451,11.45,11.45,0,0,0,11.45-11.451A11.466,11.466,0,0,0,1364.126-1472.017Z" transform="translate(-1350.916 1473.776)" fill="#17c2c9"/>
      </g>
      <path id="Path_10137" data-name="Path 10137" d="M1369.217-1475.515v-2.911a2.089,2.089,0,0,0-2.089-2.089h-5.62a2.089,2.089,0,0,0-2.09,2.089v2.911" transform="translate(-0.4 -0.474)" fill="none" stroke="#344154" stroke-linecap="round" stroke-linejoin="round" stroke-width="1.5"/>
      <line id="Line_90" data-name="Line 90" y1="16.163" x2="16.164" transform="translate(1369.935 -1498.382)" fill="none" stroke="#344154" stroke-linecap="round" stroke-linejoin="round" stroke-width="1.5"/>
      <line id="Line_91" data-name="Line 91" x1="15.811" y2="15.811" transform="translate(1366.892 -1501.438)" fill="none" stroke="#344154" stroke-linecap="round" stroke-linejoin="round" stroke-width="1.5"/>
      <line id="Line_92" data-name="Line 92" x1="16.163" y1="16.163" transform="translate(1341.738 -1498.382)" fill="none" stroke="#344154" stroke-linecap="round" stroke-linejoin="round" stroke-width="1.5"/>
      <line id="Line_93" data-name="Line 93" x2="15.811" y2="15.811" transform="translate(1345.132 -1501.438)" fill="none" stroke="#344154" stroke-linecap="round" stroke-linejoin="round" stroke-width="1.5"/>
      <g id="Group_8341" data-name="Group 8341" transform="translate(1360.316 -1468.132)">
        <line id="Line_94" data-name="Line 94" y2="13.878" transform="translate(3.602)" fill="none" stroke="#344154" stroke-linecap="round" stroke-linejoin="round" stroke-width="1.5"/>
        <line id="Line_95" data-name="Line 95" x2="7.204" fill="none" stroke="#344154" stroke-linecap="round" stroke-linejoin="round" stroke-width="1.5"/>
        <line id="Line_96" data-name="Line 96" x2="7.204" transform="translate(0 13.878)" fill="none" stroke="#344154" stroke-linecap="round" stroke-linejoin="round" stroke-width="1.5"/>
      </g>
    </g>
  </g>
  <g id="Icons03" transform="translate(114 -12)">
    <rect id="icon_bg-3" data-name="icon_bg" width="60" height="60" transform="translate(6 12)" fill="#fff" opacity="0"/>
    <g id="icon-3" data-name="icon" transform="translate(-1332.215 1521.481)">
      <path id="Path_10147" data-name="Path 10147" d="M1353.03-1491.182a15.664,15.664,0,0,1,15.629-15.7,15.664,15.664,0,0,1,15.7,15.628v.071" transform="translate(-0.135)" fill="none" stroke="#344154" stroke-linecap="round" stroke-linejoin="round" stroke-width="1.5"/>
      <path id="Path_10148" data-name="Path 10148" d="M1382.413-1481.786h2.151a3.51,3.51,0,0,0,3.509-3.51v-2.131a3.51,3.51,0,0,0-3.509-3.51h-2.151v10.793a8.236,8.236,0,0,1-8.236,8.236h-1.641" transform="translate(-0.551 -0.34)" fill="none" stroke="#344154" stroke-linecap="round" stroke-linejoin="round" stroke-width="1.5"/>
      <path id="Path_10149" data-name="Path 10149" d="M1355.317-1481.786h-2.15a3.51,3.51,0,0,1-3.51-3.51h0v-2.131a3.51,3.51,0,0,1,3.51-3.51h2.15Z" transform="translate(-0.063 -0.34)" fill="none" stroke="#344154" stroke-linecap="round" stroke-linejoin="round" stroke-width="1.5"/>
      <rect id="Rectangle_1761" data-name="Rectangle 1761" width="4.66" height="2.903" rx="1.138" transform="translate(1368.862 -1475.152)" fill="none" stroke="#344154" stroke-linecap="round" stroke-linejoin="round" stroke-width="1.5"/>
      <path id="Path_10150" data-name="Path 10150" d="M1378.226-1451.005h12.912l-1.707-11.219a8.422,8.422,0,0,0-2.887-4.827,6.875,6.875,0,0,0-2.828-1.485l-4.541-1.191" transform="translate(-0.673 -0.792)" fill="none" stroke="#344154" stroke-linecap="round" stroke-linejoin="round" stroke-width="1.5"/>
      <path id="Path_10151" data-name="Path 10151" d="M1358.247-1451.539h-11.555l1.708-10.939a8.394,8.394,0,0,1,2.889-4.827,6.867,6.867,0,0,1,2.852-1.492l7.273-2.112a1.554,1.554,0,0,0,.445-.207,1.592,1.592,0,0,0,.691-1.135l.334-2.888a11.4,11.4,0,0,1-2.377-2.546,13.13,13.13,0,0,1-1.28-2.417l-.617-1.484" transform="translate(0 -0.539)" fill="none" stroke="#344154" stroke-linecap="round" stroke-linejoin="round" stroke-width="1.5"/>
      <path id="Path_10152" data-name="Path 10152" d="M1370.227-1492.966s-1.761,6.093-11.96,4.961h0a8.891,8.891,0,0,1-.053-3.841,12.729,12.729,0,0,1,2.733-5.621,10.729,10.729,0,0,1,8.156-3.971,10.986,10.986,0,0,1,8.977,5.041,13.389,13.389,0,0,1,1.027,1.809l.836,1.729" transform="translate(-0.242 -0.116)" fill="none" stroke="#344154" stroke-linecap="round" stroke-linejoin="round" stroke-width="1.5"/>
      <line id="Line_100" data-name="Line 100" y1="11.067" transform="translate(1368.558 -1462.864)" fill="none" stroke="#344154" stroke-linecap="round" stroke-linejoin="round" stroke-width="1.5"/>
      <line id="Line_101" data-name="Line 101" y1="4.243" x2="4.243" transform="translate(1368.558 -1467.108)" fill="none" stroke="#344154" stroke-linecap="round" stroke-linejoin="round" stroke-width="1.5"/>
      <line id="Line_102" data-name="Line 102" x1="4.243" y1="4.243" transform="translate(1364.315 -1467.108)" fill="none" stroke="#344154" stroke-linecap="round" stroke-linejoin="round" stroke-width="1.5"/>
      <path id="Path_10153" data-name="Path 10153" d="M1369.971-1495.04s.755,6.922,9.53,6.682" transform="translate(-0.496 -0.253)" fill="none" stroke="#344154" stroke-linecap="round" stroke-linejoin="round" stroke-width="1.5"/>
      <path id="Path_10154" data-name="Path 10154" d="M1386.986-1461.7a5.876,5.876,0,0,0-2-3.312,4.318,4.318,0,0,0-1.755-.961l-.049-.011-.05-.013-.669-.175a16.332,16.332,0,0,1,2.023,7.492,4.653,4.653,0,0,1-.4,2.276,5.421,5.421,0,0,1-1.251,1.429l-1.663,1.5h7.062Z" transform="translate(-0.735 -0.868)" fill="#17c2c9"/>
      <path id="Path_10155" data-name="Path 10155" d="M1351.48-1461.7a5.872,5.872,0,0,1,2-3.312,4.331,4.331,0,0,1,1.755-.961l.05-.011.05-.013.668-.175a16.329,16.329,0,0,0-2.023,7.492,4.664,4.664,0,0,0,.4,2.276,5.438,5.438,0,0,0,1.251,1.429l1.664,1.5h-7.065Z" transform="translate(-0.075 -0.868)" fill="#17c2c9"/>
    </g>
  </g>
  <g id="Icons04" transform="translate(174 -12)">
    <rect id="icon_bg-4" data-name="icon_bg" width="60" height="60" transform="translate(6 12)" fill="#fff" opacity="0"/>
    <g id="icon-4" data-name="icon" transform="translate(-1295.143 1517.341)">
      <circle id="Ellipse_3" data-name="Ellipse 3" cx="7.899" cy="7.899" r="7.899" transform="translate(1338.689 -1501.596)" fill="none" stroke="#344154" stroke-linecap="round" stroke-linejoin="round" stroke-width="1.5"/>
      <path id="Path_10156" data-name="Path 10156" d="M1349.225-1492.279a5.272,5.272,0,0,1-4.819-3.15,5.268,5.268,0,0,0,2.692,6.945,5.268,5.268,0,0,0,6.945-2.693,5.268,5.268,0,0,0,0-4.252A5.271,5.271,0,0,1,1349.225-1492.279Z" transform="translate(-2.637 -0.385)" fill="#17c2c9"/>
      <path id="Path_10157" data-name="Path 10157" d="M1352.327-1485.38l5.06,5.058v-5.042h5.041l-5.059-5.058" transform="translate(-3.16 -0.698)" fill="none" stroke="#344154" stroke-linecap="round" stroke-linejoin="round" stroke-width="1.5"/>
      <path id="Path_10158" data-name="Path 10158" d="M1346.151-1485.38l-5.059,5.058v-5.042h-5.042l5.059-5.058" transform="translate(-2.117 -0.698)" fill="none" stroke="#344154" stroke-linecap="round" stroke-linejoin="round" stroke-width="1.5"/>
      <g id="Group_8343" data-name="Group 8343" transform="translate(1307.396 -1498.769)">
        <line id="Line_103" data-name="Line 103" x2="15.782" transform="translate(22.52 33.734)" fill="none" stroke="#344154" stroke-linecap="round" stroke-linejoin="round" stroke-width="1.5"/>
        <line id="Line_104" data-name="Line 104" y2="13.697" transform="translate(43.853 20.882)" fill="none" stroke="#344154" stroke-linecap="round" stroke-linejoin="round" stroke-width="1.5"/>
        <line id="Line_105" data-name="Line 105" x2="21.592" transform="translate(7.337 0.001)" fill="none" stroke="#344154" stroke-linecap="round" stroke-linejoin="round" stroke-width="1.5"/>
        <line id="Line_106" data-name="Line 106" y1="15.138" transform="translate(7.337 3.81)" fill="none" stroke="#344154" stroke-linecap="round" stroke-linejoin="round" stroke-width="1.5"/>
        <path id="Path_10159" data-name="Path 10159" d="M1352.634-1445.747h-28.678" transform="translate(-1308.782 1495.279)" fill="none" stroke="#344154" stroke-linecap="round" stroke-linejoin="round" stroke-width="1.5"/>
        <path id="Path_10160" data-name="Path 10160" d="M1353.25-1446.486a6.506,6.506,0,0,0,6.5-6.506,6.5,6.5,0,0,0-1.883-4.577h-24.063" transform="translate(-1309.398 1496.018)" fill="none" stroke="#344154" stroke-linecap="round" stroke-linejoin="round" stroke-width="1.5"/>
        <path id="Path_10161" data-name="Path 10161" d="M1315.026-1488.191h-7.338s.458-10.39,7.338-10.39" transform="translate(-1307.688 1498.581)" fill="none" stroke="#344154" stroke-linecap="round" stroke-linejoin="round" stroke-width="1.5"/>
      </g>
      <g id="Group_8344" data-name="Group 8344" transform="translate(1303.018 -1461.445)">
        <path id="Path_10162" data-name="Path 10162" d="M1317.475-1451.943c1.231.142,4.608.206,6.552-1.146a1.451,1.451,0,0,0,.321-2.026,1.449,1.449,0,0,0-1.875-.416,5.474,5.474,0,0,1-4.4.178c-4.111-2.582-7.955-2.123-10.854-.057h0" transform="translate(-1303.28 1458.665)" fill="none" stroke="#344154" stroke-linecap="round" stroke-linejoin="round" stroke-width="1.5"/>
        <path id="Path_10163" data-name="Path 10163" d="M1307.212-1449.342s4.689.33,11.493.717c4.145.236,6.95-2.025,10.987-5.936h0a1.294,1.294,0,0,0,.109-1.738h0a1.294,1.294,0,0,0-1.581-.351l-3.592,2.593" transform="translate(-1303.28 1458.644)" fill="none" stroke="#344154" stroke-linecap="round" stroke-linejoin="round" stroke-width="1.5"/>
        <path id="Path_10164" data-name="Path 10164" d="M1303.018-1446.561h2.453a1.374,1.374,0,0,0,1.374-1.375h0v-9.458a1.375,1.375,0,0,0-1.374-1.375h-2.453" transform="translate(-1303.018 1458.768)" fill="none" stroke="#344154" stroke-linecap="round" stroke-linejoin="round" stroke-width="1.5"/>
      </g>
      <g id="Group_8346" data-name="Group 8346" transform="translate(1312.352 -1478.93)">
        <g id="Group_8345" data-name="Group 8345" transform="translate(6.073 2.66)">
          <path id="Path_10165" data-name="Path 10165" d="M1319.471-1466.723a2.186,2.186,0,0,0,2.186,2.186,2.187,2.187,0,0,0,2.187-2.186c0-1.207-.9-1.765-2.184-2.183-1.148-.375-2.184-.979-2.184-2.184a2.186,2.186,0,0,1,2.186-2.186,2.186,2.186,0,0,1,2.186,2.186" transform="translate(-1319.471 1474.5)" fill="none" stroke="#344154" stroke-linecap="round" stroke-linejoin="round" stroke-width="1.5"/>
          <line id="Line_107" data-name="Line 107" y2="1.234" transform="translate(2.186)" fill="none" stroke="#344154" stroke-linecap="round" stroke-linejoin="round" stroke-width="1.5"/>
          <line id="Line_108" data-name="Line 108" y2="1.234" transform="translate(2.186 9.964)" fill="none" stroke="#344154" stroke-linecap="round" stroke-linejoin="round" stroke-width="1.5"/>
        </g>
        <circle id="Ellipse_4" data-name="Ellipse 4" cx="8.259" cy="8.259" r="8.259" fill="none" stroke="#344154" stroke-linecap="round" stroke-linejoin="round" stroke-width="1.5"/>
      </g>
    </g>
  </g>
  <g id="Icons05" transform="translate(234 -12)">
    <rect id="icon_bg-5" data-name="icon_bg" width="60" height="60" transform="translate(6 12)" fill="#fff" opacity="0"/>
    <g id="icon-5" data-name="icon" transform="translate(-820.024 -1524.579)">
      <path id="Path_10146" data-name="Path 10146" d="M884.274,1558.76v29.314a2.771,2.771,0,0,1-2.772,2.771H830.431a2.771,2.771,0,0,1-2.772-2.771V1558.76" transform="translate(0 -0.811)" fill="none" stroke="#344154" stroke-linecap="round" stroke-linejoin="round" stroke-width="1.5"/>
      <g id="Group_8348" data-name="Group 8348" transform="translate(837.149 1549.097)">
        <path id="Path_10147-2" data-name="Path 10147" d="M837.9,1549.4a2.555,2.555,0,0,0-.207,1,2.623,2.623,0,1,0,5.247,0,2.556,2.556,0,0,0-.208-1" transform="translate(-837.697 -1549.397)" fill="none" stroke="#344154" stroke-linecap="round" stroke-linejoin="round" stroke-width="1.5"/>
      </g>
      <line id="Line_106-2" data-name="Line 106" y1="6.145" transform="translate(839.772 1543.911)" fill="none" stroke="#344154" stroke-linecap="round" stroke-linejoin="round" stroke-width="1.5"/>
      <g id="Group_8349" data-name="Group 8349" transform="translate(869.537 1549.097)">
        <path id="Path_10148-2" data-name="Path 10148" d="M877,1549.4a2.555,2.555,0,0,1,.207,1,2.623,2.623,0,1,1-5.247,0,2.556,2.556,0,0,1,.208-1" transform="translate(-871.956 -1549.397)" fill="none" stroke="#344154" stroke-linecap="round" stroke-linejoin="round" stroke-width="1.5"/>
      </g>
      <line id="Line_107-2" data-name="Line 107" y1="6.145" transform="translate(872.161 1543.911)" fill="none" stroke="#344154" stroke-linecap="round" stroke-linejoin="round" stroke-width="1.5"/>
      <line id="Line_108-2" data-name="Line 108" x1="26.589" transform="translate(842.672 1545.614)" fill="none" stroke="#344154" stroke-linecap="round" stroke-linejoin="round" stroke-width="1.5"/>
      <path id="Path_10149-2" data-name="Path 10149" d="M836.873,1545.712h-6.442a2.772,2.772,0,0,0-2.772,2.772v9.564h56.615v-9.564a2.772,2.772,0,0,0-2.772-2.772h-6.441" transform="translate(0 -0.098)" fill="none" stroke="#344154" stroke-linecap="round" stroke-linejoin="round" stroke-width="1.5"/>
      <line id="Line_109" data-name="Line 109" y2="5.753" transform="translate(843.7 1564.025)" fill="none" stroke="#344154" stroke-linecap="round" stroke-linejoin="round" stroke-width="1.5"/>
      <line id="Line_110" data-name="Line 110" y2="5.753" transform="translate(851.878 1564.025)" fill="none" stroke="#344154" stroke-linecap="round" stroke-linejoin="round" stroke-width="1.5"/>
      <line id="Line_111" data-name="Line 111" y2="5.753" transform="translate(860.055 1564.025)" fill="none" stroke="#344154" stroke-linecap="round" stroke-linejoin="round" stroke-width="1.5"/>
      <line id="Line_112" data-name="Line 112" y2="5.753" transform="translate(868.233 1564.025)" fill="none" stroke="#344154" stroke-linecap="round" stroke-linejoin="round" stroke-width="1.5"/>
      <line id="Line_113" data-name="Line 113" y2="5.753" transform="translate(843.7 1578.11)" fill="none" stroke="#344154" stroke-linecap="round" stroke-linejoin="round" stroke-width="1.5"/>
      <line id="Line_114" data-name="Line 114" y2="5.753" transform="translate(851.878 1578.11)" fill="none" stroke="#344154" stroke-linecap="round" stroke-linejoin="round" stroke-width="1.5"/>
      <line id="Line_115" data-name="Line 115" y2="5.753" transform="translate(860.055 1578.11)" fill="none" stroke="#344154" stroke-linecap="round" stroke-linejoin="round" stroke-width="1.5"/>
      <line id="Line_116" data-name="Line 116" y2="5.753" transform="translate(868.233 1578.11)" fill="none" stroke="#344154" stroke-linecap="round" stroke-linejoin="round" stroke-width="1.5"/>
      <line id="Line_117" data-name="Line 117" x2="33.753" transform="translate(839.09 1573.992)" fill="none" stroke="#344154" stroke-linecap="round" stroke-linejoin="round" stroke-width="1.5"/>
      <line id="Line_118" data-name="Line 118" x1="19.528" transform="translate(846.203 1550.313)" fill="none" stroke="#344154" stroke-linecap="round" stroke-linejoin="round" stroke-width="1.5"/>
      <path id="Path_10150-2" data-name="Path 10150" d="M838.126,1588.245a22.655,22.655,0,0,1-3.837-11.283c-.111-2,.047-4.006-.057-6.005a11.5,11.5,0,0,0-1.588-5.72,8.532,8.532,0,0,0-1.982-2.1v25.1Z" transform="translate(-0.164 -1.05)" fill="#17c2c9"/>
    </g>
  </g>
  <g id="Icons06" transform="translate(294 -12)">
    <rect id="icon_bg-6" data-name="icon_bg" width="60" height="60" transform="translate(6 12)" fill="#fff" opacity="0"/>
    <g id="icon-6" data-name="icon" transform="translate(-1321.759 -1633.156)">
      <path id="Path_10161-2" data-name="Path 10161" d="M1373.953,1671.178v22.036a8.583,8.583,0,0,1-8.582,8.583h-28.415V1698" transform="translate(-0.114 -0.783)" fill="none" stroke="#344154" stroke-linecap="round" stroke-linejoin="round" stroke-width="1.5"/>
      <path id="Path_10162-2" data-name="Path 10162" d="M1371.035,1657.659v-4.036h-9.391" transform="translate(-0.991 -0.16)" fill="none" stroke="#344154" stroke-linecap="round" stroke-linejoin="round" stroke-width="1.5"/>
      <path id="Path_10163-2" data-name="Path 10163" d="M1360.654,1653.623h-26.92v43.756H1362.3a2.38,2.38,0,0,0,2.38-2.379v-2.988h2.987a2.38,2.38,0,0,0,2.38-2.38v-15.282" transform="translate(0 -0.16)" fill="none" stroke="#344154" stroke-linecap="round" stroke-linejoin="round" stroke-width="1.5"/>
      <path id="Path_10164-2" data-name="Path 10164" d="M1361.438,1670.469l20.68-20.671a2.348,2.348,0,0,1,3.321,0l1.615,1.616a2.349,2.349,0,0,1,0,3.321l-20.741,20.74" transform="translate(-0.983)" fill="none" stroke="#344154" stroke-linecap="round" stroke-linejoin="round" stroke-width="1.5"/>
      <path id="Path_10165-2" data-name="Path 10165" d="M1366.313,1676.2a7.35,7.35,0,0,0-4.944-4.94l-1.875,4.872" transform="translate(-0.914 -0.786)" fill="none" stroke="#344154" stroke-linecap="round" stroke-linejoin="round" stroke-width="1.5"/>
      <line id="Line_128" data-name="Line 128" x1="4.941" y1="4.941" transform="translate(1378.366 1652.558)" fill="none" stroke="#344154" stroke-linecap="round" stroke-linejoin="round" stroke-width="1.5"/>
      <path id="Path_10166" data-name="Path 10166" d="M1349.423,1674.682a8.96,8.96,0,0,0,1.036-1.991,4.218,4.218,0,0,0-.153-3.879,2.185,2.185,0,0,0-2.052-.988c-1.274.173-1.821,1.461-1.934,2.628a7.013,7.013,0,0,0,1.924,5.483,7.463,7.463,0,0,0,3.534,1.888,11.928,11.928,0,0,0,2.977.343h1.178a20.2,20.2,0,0,0,5.643-.8l4.2-1.224" transform="translate(-0.446 -0.663)" fill="none" stroke="#344154" stroke-linecap="round" stroke-linejoin="round" stroke-width="1.5"/>
      <path id="Path_10167" data-name="Path 10167" d="M1340.969,1679.209a8.88,8.88,0,0,0,7.086-2.974" transform="translate(-0.257 -0.963)" fill="none" stroke="#344154" stroke-linecap="round" stroke-linejoin="round" stroke-width="1.5"/>
      <path id="Path_10168" data-name="Path 10168" d="M1336.247,1674.9l.2-.683a28.718,28.718,0,0,1,15.638-18.078h-15.837Z" transform="translate(-0.089 -0.249)" fill="#17c2c9"/>
    </g>
  </g>
  <g id="Icons07" transform="translate(354 -12)">
    <rect id="icon_bg-7" data-name="icon_bg" width="60" height="60" transform="translate(6 12)" fill="#fff" opacity="0"/>
    <g id="icon-7" data-name="icon" transform="translate(-272.697 -1535.391)">
      <rect id="Rectangle_1763" data-name="Rectangle 1763" width="37.619" height="52.001" rx="2.21" transform="translate(290.058 1551.891)" fill="none" stroke="#344154" stroke-linecap="round" stroke-linejoin="round" stroke-width="1.5"/>
      <rect id="Rectangle_1764" data-name="Rectangle 1764" width="27.062" height="7.78" transform="translate(295.337 1557.172)" fill="#17c2c9"/>
      <g id="Group_8350" data-name="Group 8350" transform="translate(294.264 1570.311)">
        <rect id="Rectangle_1765" data-name="Rectangle 1765" width="29.207" height="29.207" fill="none" stroke="#344154" stroke-linecap="round" stroke-linejoin="round" stroke-width="1.5"/>
        <line id="Line_119" data-name="Line 119" x2="5.542" transform="translate(19.434 7.421)" fill="none" stroke="#344154" stroke-linecap="round" stroke-linejoin="round" stroke-width="1.5"/>
        <line id="Line_120" data-name="Line 120" x2="5.542" transform="translate(4.232 7.421)" fill="none" stroke="#344154" stroke-linecap="round" stroke-linejoin="round" stroke-width="1.5"/>
        <line id="Line_121" data-name="Line 121" y2="5.542" transform="translate(7.003 4.65)" fill="none" stroke="#344154" stroke-linecap="round" stroke-linejoin="round" stroke-width="1.5"/>
        <line id="Line_122" data-name="Line 122" x2="3.918" y2="3.918" transform="translate(5.043 20.462)" fill="none" stroke="#344154" stroke-linecap="round" stroke-linejoin="round" stroke-width="1.5"/>
        <line id="Line_123" data-name="Line 123" x1="3.918" y2="3.918" transform="translate(5.043 20.462)" fill="none" stroke="#344154" stroke-linecap="round" stroke-linejoin="round" stroke-width="1.5"/>
        <line id="Line_124" data-name="Line 124" x2="5.542" transform="translate(18.84 22.354)" fill="none" stroke="#344154" stroke-linecap="round" stroke-linejoin="round" stroke-width="1.5"/>
        <circle id="Ellipse_2-2" data-name="Ellipse 2" cx="0.19" cy="0.19" r="0.19" transform="translate(21.476 19.528)" fill="none" stroke="#344154" stroke-linecap="round" stroke-linejoin="round" stroke-width="1.5"/>
        <circle id="Ellipse_3-2" data-name="Ellipse 3" cx="0.19" cy="0.19" r="0.19" transform="translate(21.476 24.99)" fill="none" stroke="#344154" stroke-linecap="round" stroke-linejoin="round" stroke-width="1.5"/>
        <line id="Line_125" data-name="Line 125" x2="29.207" transform="translate(0 14.604)" fill="none" stroke="#344154" stroke-linecap="round" stroke-linejoin="round" stroke-width="1.5"/>
        <line id="Line_126" data-name="Line 126" y2="29.207" transform="translate(14.762)" fill="none" stroke="#344154" stroke-linecap="round" stroke-linejoin="round" stroke-width="1.5"/>
      </g>
    </g>
  </g>
</svg>
