<svg id="icons_spite_24_socialmedia" xmlns="http://www.w3.org/2000/svg" width="120" height="24" viewBox="0 0 120 24">
  <g id="Social_icon" transform="translate(88 -11)">
    <rect id="icon_bg" width="24" height="24" transform="translate(8 11)" fill="#fff" opacity="0"/>
    <path id="Path_27789" data-name="Path 27789" d="M8.669,0h0A8.661,8.661,0,0,0,1.65,13.746L.57,16.966,3.9,15.9A8.665,8.665,0,1,0,8.669,0Zm5.043,12.238a2.446,2.446,0,0,1-1.7,1.223c-.453.1-1.044.173-3.035-.652A10.857,10.857,0,0,1,4.66,9,4.95,4.95,0,0,1,3.631,6.384a2.767,2.767,0,0,1,.886-2.109A1.259,1.259,0,0,1,5.4,3.964c.107,0,.2.005.29.01.255.011.382.026.55.428.209.5.718,1.747.779,1.875a.516.516,0,0,1,.037.469,1.5,1.5,0,0,1-.281.4c-.128.147-.249.26-.377.418-.117.138-.249.285-.1.539A7.692,7.692,0,0,0,7.707,9.849,6.372,6.372,0,0,0,9.739,11.1a.548.548,0,0,0,.611-.1,10.486,10.486,0,0,0,.677-.9.484.484,0,0,1,.622-.188c.234.081,1.472.693,1.727.82s.422.188.484.3A2.158,2.158,0,0,1,13.712,12.238Z" transform="translate(11 14.5)" fill="#1f1f1f"/>
  </g>
  <g id="Social_icon-2" data-name="Social_icon" transform="translate(64 -11)">
    <rect id="icon_bg-2" data-name="icon_bg" width="24" height="24" transform="translate(8 11)" fill="#fff" opacity="0"/>
    <path id="instagram" d="M212.953,388.133h-7.994a2.3,2.3,0,0,0-2.3,2.284v7.927a2.3,2.3,0,0,0,2.3,2.3h7.994a2.306,2.306,0,0,0,2.321-2.3v-7.927a2.3,2.3,0,0,0-2.321-2.284Zm3.973,10.177h0a3.994,3.994,0,0,1-4.022,3.971h-7.9a4,4,0,0,1-4.022-3.971v-7.844a4,4,0,0,1,4.022-3.971h7.9a3.993,3.993,0,0,1,4.022,3.971Zm-7.962-6.3a2.383,2.383,0,1,0,2.4,2.383,2.394,2.394,0,0,0-2.4-2.383Zm0,6.5h0a4.12,4.12,0,1,1,4.156-4.12,4.139,4.139,0,0,1-4.156,4.12Zm4.29-7.4h0a.972.972,0,0,1-.985-.976.994.994,0,0,1,.985-.977,1,1,0,0,1,.985.977.982.982,0,0,1-.985.976Z" transform="translate(-189.259 -371.057)" fill="#1f1f1f"/>
  </g>
  <g id="Social_icon-3" data-name="Social_icon" transform="translate(47.999)">
    <rect id="icon_bg-3" data-name="icon_bg" width="24" height="24" transform="translate(0.001)" fill="#fff" opacity="0"/>
    <g id="Linkedin" transform="translate(4.667 4.665)">
      <rect id="Rectangle_1567" data-name="Rectangle 1567" width="3.324" height="9.503" transform="translate(0 4.751)" fill="#1f1f1f"/>
      <path id="Path_9629" data-name="Path 9629" d="M39.281,30.53a1.663,1.663,0,1,0,1.662,1.662A1.665,1.665,0,0,0,39.281,30.53Z" transform="translate(-37.618 -30.53)" fill="#1f1f1f"/>
      <path id="Path_9630" data-name="Path 9630" d="M72.769,57.208c-.224-1.79-1.12-2.918-3.54-2.918-1.718,0-2.4.268-2.8,1.018h0V54.29H63.74v9.5h2.77V58.816c0-1.242.236-2.18,1.77-2.18,1.514,0,1.634,1.154,1.634,2.26v4.895h2.852S72.821,57.626,72.769,57.208Z" transform="translate(-58.515 -49.537)" fill="#1f1f1f"/>
    </g>
  </g>
  <g id="Social_icon-4" data-name="Social_icon" transform="translate(20.001 -10)">
    <rect id="icon_bg-4" data-name="icon_bg" width="24" height="24" transform="translate(3.999 10)" fill="#fff" opacity="0"/>
    <path id="twitter" d="M-163,17.642c.006.137.009.274.009.413a9.02,9.02,0,0,1-9.081,9.082,9.028,9.028,0,0,1-4.892-1.434,6.426,6.426,0,0,0,.761.045,6.405,6.405,0,0,0,3.965-1.366,3.2,3.2,0,0,1-2.982-2.217,3.2,3.2,0,0,0,.6.057,3.183,3.183,0,0,0,.841-.112,3.194,3.194,0,0,1-2.561-3.13c0-.013,0-.027,0-.04a3.169,3.169,0,0,0,1.446.4,3.192,3.192,0,0,1-1.42-2.657,3.178,3.178,0,0,1,.432-1.6,9.061,9.061,0,0,0,6.579,3.335,3.187,3.187,0,0,1-.083-.727,3.192,3.192,0,0,1,3.192-3.192,3.188,3.188,0,0,1,2.33,1.008,6.389,6.389,0,0,0,2.027-.774,3.2,3.2,0,0,1-1.4,1.766,6.368,6.368,0,0,0,1.833-.5A6.474,6.474,0,0,1-163,17.642Z" transform="translate(185.628 1.372)" fill="#1f1f1f"/>
  </g>
  <g id="Social_icon-5" data-name="Social_icon" transform="translate(-6 -12)">
    <rect id="icon_bg-5" data-name="icon_bg" width="24" height="24" transform="translate(6 12)" fill="#fff" opacity="0"/>
    <path id="facebook" d="M23.157,11.7h-1.93a.731.731,0,0,0-.762.832v1.8h2.684l-.314,3.049h-2.37v8.683H16.874V17.379H15.166V14.327h1.708V12.352A3.367,3.367,0,0,1,20.5,8.729l2.66.011Z" transform="translate(-1.509 6.752)" fill="#1f1f1f"/>
  </g>
</svg>
