<svg xmlns="http://www.w3.org/2000/svg" width="323.821" height="377.735" viewBox="0 0 323.821 377.735">
  <g id="Login_image" transform="translate(-330.761 -75.577)">
    <g id="image" transform="translate(330.761 75.577)">
      <path id="Path_11201" data-name="Path 11201" d="M933.96,118.06s16.38-39.438,113.2-32.582c57.572,4.077,102.579,49.7,106.8,107.263.063.856.245,3.031.234,3.9-1.3,107.239-14.516,213.581-94.092,211.945S933.96,118.06,933.96,118.06Z" transform="translate(-830.366 -84.677)" fill="#dbefff"/>
      <path id="Path_11202" data-name="Path 11202" d="M1214.78,157.316h0c-3.318-1.166-5.769-6.809-3.884-8.943h0c2.133-2.416,1.285-7.846-1.893-12.129l-1.636-2.2c-3.179-4.282-7.484-5.8-9.617-3.38h0c-1.884,2.135-6.223-1.371-6.875-5.555h0c-.74-4.737-4.384-9.647-8.139-10.966l-1.933-.68c-3.756-1.32-6.2,1.45-5.462,6.187h0c.653,4.184-3.031,4.87-5.839,1.087h0c-3.178-4.283-7.484-5.8-9.617-3.38l-1.1,1.244c-2.133,2.416-1.285,7.846,1.893,12.129h0c2.808,3.783,1.936,8.258-1.382,7.092h0c-3.755-1.32-6.2,1.45-5.461,6.186l.38,2.438c.74,4.737,4.384,9.646,8.139,10.966,3.317,1.166,5.769,6.809,3.885,8.943h0c-2.133,2.416-1.285,7.847,1.894,12.129l1.636,2.2c3.178,4.283,7.484,5.8,9.617,3.38h0c1.884-2.134,6.223,1.371,6.876,5.555h0c.739,4.737,4.384,9.647,8.139,10.967l1.933.679c3.756,1.32,6.2-1.45,5.461-6.186-.653-4.184,3.031-4.87,5.839-1.087,3.179,4.282,7.484,5.8,9.617,3.38l1.1-1.244c2.133-2.416,1.286-7.847-1.893-12.129h0c-2.808-3.783-1.936-8.258,1.382-7.092h0c3.756,1.32,6.2-1.45,5.462-6.187l-.38-2.438C1222.18,163.546,1218.536,158.636,1214.78,157.316Zm-22.89,21.33c-9.321-3.275-18.364-15.46-20.2-27.215s4.233-18.629,13.554-15.353,18.364,15.46,20.2,27.216S1201.211,181.922,1191.89,178.646Z" transform="translate(-947.252 -100.543)" fill="#aad1f2"/>
      <path id="Path_11203" data-name="Path 11203" d="M1301.677,340.095h0c-2.361-.83-4.106-4.846-2.765-6.365h0c1.518-1.72.914-5.584-1.348-8.632l-1.165-1.569c-2.262-3.048-5.326-4.125-6.844-2.406h0c-1.341,1.519-4.429-.975-4.894-3.954h0c-.526-3.371-3.12-6.865-5.792-7.8l-1.375-.483c-2.673-.94-4.414,1.032-3.887,4.4h0c.465,2.978-2.157,3.466-4.156.773h0c-2.262-3.048-5.327-4.125-6.845-2.406l-.781.885c-1.518,1.72-.914,5.584,1.348,8.632h0c2,2.692,1.378,5.877-.983,5.048h0c-2.673-.94-4.413,1.032-3.887,4.4l.271,1.735c.527,3.371,3.12,6.865,5.793,7.8,2.362.83,4.106,4.846,2.765,6.365h0c-1.518,1.72-.915,5.584,1.348,8.632l1.164,1.569c2.262,3.048,5.327,4.125,6.844,2.405h0c1.341-1.519,4.429.976,4.894,3.954h0c.526,3.371,3.12,6.865,5.793,7.8l1.376.483c2.673.939,4.413-1.032,3.887-4.4-.465-2.978,2.157-3.466,4.156-.773,2.262,3.048,5.326,4.125,6.844,2.405l.781-.885c1.518-1.719.915-5.584-1.347-8.632h0c-2-2.693-1.378-5.878.983-5.048h0c2.673.94,4.413-1.032,3.887-4.4l-.271-1.735C1306.944,344.528,1304.35,341.034,1301.677,340.095Zm-16.291,15.181c-6.634-2.331-13.07-11-14.376-19.37s3.013-13.258,9.646-10.927,13.07,11,14.376,19.37S1292.02,357.607,1285.386,355.276Z" transform="translate(-1011.173 -215.26)" fill="#aad1f2"/>
      <path id="Path_11204" data-name="Path 11204" d="M1199.051,164.444h0c-3.318-1.166-5.769-6.809-3.885-8.943h0c2.133-2.416,1.285-7.846-1.893-12.129l-1.636-2.2c-3.178-4.282-7.484-5.8-9.617-3.38h0c-1.885,2.134-6.223-1.371-6.876-5.555h0c-.74-4.737-4.384-9.647-8.139-10.966l-1.933-.68c-3.756-1.32-6.2,1.45-5.462,6.187h0c.653,4.184-3.031,4.87-5.839,1.087h0c-3.178-4.283-7.484-5.8-9.617-3.38l-1.1,1.244c-2.133,2.416-1.285,7.846,1.893,12.129h0c2.808,3.783,1.936,8.258-1.382,7.092h0c-3.756-1.32-6.2,1.45-5.462,6.186l.381,2.438c.739,4.737,4.383,9.646,8.139,10.966,3.318,1.166,5.769,6.809,3.885,8.943h0c-2.133,2.416-1.286,7.846,1.893,12.129l1.635,2.2c3.178,4.283,7.485,5.8,9.617,3.38h0c1.884-2.134,6.223,1.371,6.876,5.555h0c.739,4.737,4.384,9.647,8.139,10.967l1.933.679c3.755,1.32,6.2-1.45,5.461-6.186-.653-4.184,3.031-4.87,5.839-1.087,3.178,4.282,7.484,5.8,9.616,3.38l1.1-1.244c2.133-2.416,1.285-7.847-1.894-12.129h0c-2.808-3.783-1.936-8.258,1.382-7.092h0c3.756,1.32,6.2-1.45,5.462-6.186l-.381-2.438C1206.451,170.674,1202.807,165.764,1199.051,164.444Zm-22.89,21.33c-9.321-3.275-18.365-15.46-20.2-27.215s4.234-18.629,13.554-15.353,18.364,15.46,20.2,27.215S1185.482,189.05,1176.162,185.774Z" transform="translate(-937.744 -104.518)" fill="#c2e3ff"/>
      <path id="Path_11205" data-name="Path 11205" d="M1291.807,346.266h0c-2.361-.83-4.106-4.846-2.765-6.365h0c1.518-1.72.915-5.584-1.347-8.632l-1.164-1.569c-2.262-3.048-5.326-4.125-6.845-2.405h0c-1.341,1.519-4.429-.976-4.894-3.954h0c-.526-3.371-3.12-6.865-5.793-7.8l-1.376-.484c-2.673-.94-4.413,1.032-3.887,4.4h0c.465,2.978-2.157,3.466-4.156.774h0c-2.262-3.048-5.327-4.125-6.845-2.405l-.781.885c-1.518,1.72-.914,5.584,1.348,8.632h0c2,2.692,1.378,5.878-.984,5.048h0c-2.673-.94-4.413,1.032-3.887,4.4l.271,1.735c.526,3.371,3.12,6.865,5.793,7.8,2.361.83,4.106,4.846,2.765,6.365h0c-1.518,1.72-.915,5.584,1.347,8.632l1.164,1.569c2.262,3.048,5.327,4.125,6.845,2.405h0c1.341-1.519,4.429.976,4.894,3.954h0c.526,3.371,3.12,6.865,5.793,7.8l1.376.484c2.673.939,4.413-1.032,3.887-4.4-.465-2.978,2.157-3.466,4.156-.773,2.262,3.048,5.326,4.125,6.844,2.405l.781-.885c1.518-1.72.915-5.585-1.348-8.633h0c-2-2.692-1.378-5.878.983-5.048h0c2.673.94,4.414-1.032,3.887-4.4l-.271-1.735C1297.074,350.7,1294.48,347.205,1291.807,346.266Zm-16.291,15.181c-6.633-2.331-13.07-11-14.376-19.369s3.013-13.259,9.647-10.927,13.07,11,14.376,19.37S1282.151,363.778,1275.516,361.447Z" transform="translate(-1005.669 -218.858)" fill="#c2e3ff"/>
      <g id="Group_8426" data-name="Group 8426" transform="translate(92.269 11.399)">
        <g id="Group_8424" data-name="Group 8424">
          <path id="Path_11206" data-name="Path 11206" d="M1065.138,676.481l49.445-29.7a6.6,6.6,0,0,0-.1-11.282L967.87,548.328,948.6,609.281Z" transform="translate(-930.798 -373.807)" fill="#b5d0f2"/>
          <path id="Path_11207" data-name="Path 11207" d="M1051.255,417.547,948.2,353.23c-6.445-3.5-11.67-12.9-11.67-20.985V120.568c0-8.088,5.225-11.8,11.67-8.3l107.6,58.462c6.445,3.5,11.67,12.9,11.67,20.985V402.388c0,5.321-2.115,7.54-5.673,9.473Z" transform="translate(-924.069 -110.725)" fill="#a8c9ed"/>
          <path id="Path_11208" data-name="Path 11208" d="M980.169,225.159S925,354.188,925,345.595l-9.062-227.446,13.524-7.141c1.984-.935,4.488-.731,7.209.839l107.6,62.121a22.892,22.892,0,0,1,8.1,9.039Z" transform="translate(-912.586 -110.446)" fill="#ebf3ff"/>
          <path id="Path_11209" data-name="Path 11209" d="M1031.965,423.821,924.632,365.414c-6.445-3.5-11.405-12.885-11.405-20.965V132.971c0-8.08,5.088-11.793,11.533-8.295l107.273,58.407c6.445,3.5,11.346,12.885,11.346,20.965V415.526C1043.379,423.606,1038.41,427.32,1031.965,423.821Z" transform="translate(-911.074 -117.647)" fill="#fff"/>
          <path id="Path_11210" data-name="Path 11210" d="M1027.1,425.623,919.767,367.216c-6.445-3.5-11.406-12.885-11.406-20.965V134.773c0-8.08,5.088-11.793,11.534-8.295l107.273,58.407c6.445,3.5,11.346,12.885,11.346,20.965V417.328C1038.514,425.408,1033.544,429.122,1027.1,425.623Z" transform="translate(-908.361 -118.652)" fill="#2c1f9c"/>
          <path id="Path_11211" data-name="Path 11211" d="M1035.912,417.631l-104.65-55.915A3.219,3.219,0,0,1,929.5,358.9V183.108c0-2.506,2.932-4.072,5.277-2.819L1039.43,236.2a3.22,3.22,0,0,1,1.759,2.82V414.811C1041.188,417.317,1038.257,418.884,1035.912,417.631Z" transform="translate(-920.15 -149.146)" fill="#699eff"/>
          <path id="Path_11212" data-name="Path 11212" d="M1052.325,224.007l-33.188-19.162a5.089,5.089,0,0,1-2.117-4.045h0c0-1.553.952-2.273,2.117-1.6l33.188,19.162a5.089,5.089,0,0,1,2.117,4.045h0C1054.442,223.959,1053.489,224.68,1052.325,224.007Z" transform="translate(-968.951 -159.796)" fill="#4a3eb5"/>
          <g id="Group_8423" data-name="Group 8423" transform="translate(104.993 221.277)">
            <path id="Path_11213" data-name="Path 11213" d="M1145.7,641.775" transform="translate(-1145.697 -641.775)" fill="none" stroke="#fff" stroke-miterlimit="10" stroke-width="2.864"/>
          </g>
        </g>
        <g id="Group_8425" data-name="Group 8425" transform="translate(134.257 96.13)">
          <path id="Path_11214" data-name="Path 11214" d="M1215.051,363.48h0a2.128,2.128,0,0,1-3.2-2.091V348.582a5.7,5.7,0,0,1,3.2-4.817h0a2.129,2.129,0,0,1,3.2,2.091v12.807A5.7,5.7,0,0,1,1215.051,363.48Z" transform="translate(-1211.849 -343.507)" fill="#e6f0ff"/>
          <path id="Path_11215" data-name="Path 11215" d="M1218.158,363.868h0a2.129,2.129,0,0,1-3.2-2.091V348.97a5.7,5.7,0,0,1,3.2-4.817h0a2.129,2.129,0,0,1,3.2,2.091v12.807A5.7,5.7,0,0,1,1218.158,363.868Z" transform="translate(-1213.582 -343.724)" fill="#6899e3"/>
          <path id="Path_11216" data-name="Path 11216" d="M1215.051,416.177h0a2.129,2.129,0,0,1-3.2-2.091V401.279a5.7,5.7,0,0,1,3.2-4.817h0a2.129,2.129,0,0,1,3.2,2.091v12.807A5.7,5.7,0,0,1,1215.051,416.177Z" transform="translate(-1211.849 -372.892)" fill="#e6f0ff"/>
          <path id="Path_11217" data-name="Path 11217" d="M1218.158,416.565h0a2.129,2.129,0,0,1-3.2-2.091V401.667a5.7,5.7,0,0,1,3.2-4.817h0a2.129,2.129,0,0,1,3.2,2.091v12.807A5.7,5.7,0,0,1,1218.158,416.565Z" transform="translate(-1213.582 -373.109)" fill="#6899e3"/>
        </g>
      </g>
      <g id="Group_8427" data-name="Group 8427" transform="translate(116.794 49.631)">
        <path id="Path_11218" data-name="Path 11218" d="M936.719,201.852c.1-4.3,1.562-5.832,3.9-4.538,2.318,1.284,3.669,4.374,3.567,8.673s-1.563,5.912-3.881,4.628C937.966,209.321,936.617,206.151,936.719,201.852Zm6,3.326c.088-3.757-.787-5.79-2.138-6.538-1.369-.759-2.317.263-2.406,4.02s.786,5.87,2.154,6.629C941.684,210.038,942.635,208.936,942.724,205.178Z" transform="translate(-934.925 -196.869)" fill="#5c95ff"/>
        <path id="Path_11219" data-name="Path 11219" d="M957.221,213.21c.1-4.3,1.561-5.832,3.9-4.538,2.318,1.284,3.669,4.373,3.567,8.673s-1.564,5.912-3.881,4.628C958.468,220.68,957.119,217.511,957.221,213.21Zm6,3.327c.089-3.758-.787-5.79-2.138-6.538-1.368-.758-2.317.263-2.406,4.02s.786,5.87,2.154,6.629C962.186,221.4,963.136,220.3,963.225,216.537Z" transform="translate(-946.358 -203.202)" fill="#5c95ff"/>
        <path id="Path_11220" data-name="Path 11220" d="M977.721,224.57c.1-4.3,1.562-5.832,3.9-4.538,2.318,1.285,3.668,4.374,3.566,8.674s-1.563,5.912-3.881,4.628C978.968,232.039,977.62,228.87,977.721,224.57Zm6,3.327c.088-3.757-.788-5.79-2.139-6.538-1.369-.758-2.317.263-2.406,4.02s.786,5.871,2.154,6.629C982.686,232.756,983.637,231.654,983.726,227.9Z" transform="translate(-957.789 -209.536)" fill="#5c95ff"/>
        <path id="Path_11221" data-name="Path 11221" d="M998.222,235.929c.1-4.3,1.561-5.832,3.9-4.538,2.318,1.284,3.669,4.374,3.567,8.674s-1.563,5.912-3.881,4.628C999.469,243.4,998.121,240.229,998.222,235.929Zm6,3.327c.089-3.758-.787-5.79-2.138-6.539-1.368-.758-2.317.263-2.406,4.021s.786,5.87,2.154,6.629C1003.187,244.115,1004.137,243.013,1004.226,239.256Z" transform="translate(-969.221 -215.871)" fill="#5c95ff"/>
        <path id="Path_11222" data-name="Path 11222" d="M1019.861,253l2.665,1.477.223-9.444-2.117-1.173.025-1.065a5.565,5.565,0,0,0,2.486.421l1.15.637-.271,11.453,2.409,1.335L1026.4,258l-6.57-3.64Z" transform="translate(-981.272 -222.476)" fill="#5c95ff"/>
        <path id="Path_11223" data-name="Path 11223" d="M1040.362,264.356l2.665,1.476.223-9.444-2.117-1.173.025-1.065a5.559,5.559,0,0,0,2.486.421l1.15.637-.271,11.453,2.409,1.335-.032,1.366-6.57-3.64Z" transform="translate(-992.704 -228.81)" fill="#5c95ff"/>
        <path id="Path_11224" data-name="Path 11224" d="M1060.863,275.716l2.665,1.477.223-9.444-2.117-1.173.025-1.064a5.571,5.571,0,0,0,2.486.421l1.15.637-.271,11.453,2.409,1.335-.032,1.366-6.57-3.64Z" transform="translate(-1004.135 -235.145)" fill="#5c95ff"/>
        <path id="Path_11225" data-name="Path 11225" d="M1080.225,281.366c.1-4.3,1.562-5.832,3.9-4.538,2.318,1.284,3.669,4.374,3.567,8.674s-1.563,5.912-3.881,4.628C1081.472,288.836,1080.124,285.666,1080.225,281.366Zm6,3.327c.089-3.758-.787-5.79-2.138-6.539-1.369-.758-2.317.263-2.406,4.021s.786,5.87,2.155,6.629C1085.191,289.552,1086.141,288.45,1086.23,284.693Z" transform="translate(-1014.947 -241.207)" fill="#5c95ff"/>
        <path id="Path_11226" data-name="Path 11226" d="M1100.727,292.726c.1-4.3,1.561-5.832,3.9-4.538,2.318,1.284,3.668,4.374,3.566,8.673s-1.563,5.913-3.88,4.628C1101.974,300.195,1100.625,297.025,1100.727,292.726Zm6,3.326c.089-3.757-.788-5.79-2.138-6.538-1.369-.758-2.317.263-2.406,4.02s.786,5.87,2.154,6.629C1105.692,300.912,1106.642,299.81,1106.731,296.052Z" transform="translate(-1026.379 -247.542)" fill="#5c95ff"/>
        <path id="Path_11227" data-name="Path 11227" d="M1121.227,304.084c.1-4.3,1.562-5.832,3.9-4.538,2.317,1.284,3.669,4.373,3.567,8.673s-1.564,5.912-3.882,4.628C1122.474,311.554,1121.125,308.385,1121.227,304.084Zm6,3.327c.089-3.758-.787-5.79-2.138-6.538-1.369-.758-2.317.263-2.406,4.02s.786,5.871,2.154,6.629C1126.192,312.271,1127.143,311.169,1127.232,307.411Z" transform="translate(-1037.81 -253.876)" fill="#5c95ff"/>
        <path id="Path_11228" data-name="Path 11228" d="M1141.729,315.444c.1-4.3,1.561-5.832,3.9-4.538,2.318,1.285,3.669,4.374,3.567,8.674s-1.563,5.912-3.882,4.628C1142.976,322.914,1141.627,319.744,1141.729,315.444Zm6,3.327c.089-3.757-.787-5.79-2.139-6.538-1.368-.758-2.316.263-2.405,4.02s.786,5.871,2.154,6.629C1146.694,323.63,1147.644,322.528,1147.733,318.771Z" transform="translate(-1049.243 -260.21)" fill="#5c95ff"/>
        <path id="Path_11229" data-name="Path 11229" d="M1163.368,332.512l2.664,1.476.223-9.444-2.117-1.173.025-1.065a5.562,5.562,0,0,0,2.486.421l1.15.637-.271,11.453,2.409,1.335-.032,1.366-6.57-3.64Z" transform="translate(-1061.294 -266.815)" fill="#5c95ff"/>
        <path id="Path_11230" data-name="Path 11230" d="M936.569,262.072l2.664,1.476.223-9.444-2.117-1.173.025-1.065a5.56,5.56,0,0,0,2.486.421l1.149.637-.271,11.453,2.409,1.335-.032,1.366-6.57-3.64Z" transform="translate(-934.827 -227.536)" fill="#5c95ff"/>
        <path id="Path_11231" data-name="Path 11231" d="M955.932,267.722c.1-4.3,1.561-5.832,3.9-4.538,2.318,1.284,3.669,4.373,3.567,8.673s-1.564,5.912-3.881,4.628C957.179,275.192,955.831,272.022,955.932,267.722Zm6,3.327c.089-3.757-.787-5.79-2.138-6.538-1.368-.758-2.317.264-2.406,4.021s.786,5.87,2.154,6.629C960.9,275.909,961.847,274.807,961.936,271.049Z" transform="translate(-945.639 -233.599)" fill="#5c95ff"/>
        <path id="Path_11232" data-name="Path 11232" d="M976.432,279.081c.1-4.3,1.562-5.832,3.9-4.537,2.318,1.284,3.668,4.373,3.566,8.673s-1.563,5.912-3.881,4.628C977.68,286.551,976.33,283.382,976.432,279.081Zm6,3.327c.089-3.758-.787-5.79-2.139-6.538-1.368-.758-2.317.263-2.406,4.02s.785,5.87,2.154,6.629C981.4,287.267,982.348,286.166,982.437,282.408Z" transform="translate(-957.07 -239.933)" fill="#5c95ff"/>
        <path id="Path_11233" data-name="Path 11233" d="M998.072,296.149l2.664,1.477.223-9.444-2.117-1.173.025-1.065a5.558,5.558,0,0,0,2.486.421l1.15.637-.271,11.453,2.409,1.335-.032,1.366-6.57-3.64Z" transform="translate(-969.122 -246.539)" fill="#5c95ff"/>
        <path id="Path_11234" data-name="Path 11234" d="M1018.572,307.509l2.665,1.476.223-9.444-2.117-1.173.025-1.065a5.559,5.559,0,0,0,2.486.421l1.149.637-.271,11.453,2.409,1.335-.032,1.366-6.57-3.64Z" transform="translate(-980.553 -252.873)" fill="#5c95ff"/>
        <path id="Path_11235" data-name="Path 11235" d="M1037.936,313.16c.1-4.3,1.561-5.832,3.9-4.538,2.318,1.284,3.668,4.374,3.567,8.673s-1.564,5.912-3.881,4.628C1039.183,320.629,1037.834,317.459,1037.936,313.16Zm6,3.326c.089-3.757-.787-5.79-2.138-6.538-1.369-.758-2.317.264-2.406,4.021s.786,5.87,2.154,6.629C1042.9,321.346,1043.851,320.244,1043.94,316.486Z" transform="translate(-991.366 -258.936)" fill="#5c95ff"/>
        <path id="Path_11236" data-name="Path 11236" d="M1059.574,330.227l2.664,1.476.223-9.444-2.117-1.173.025-1.065a5.559,5.559,0,0,0,2.487.421l1.149.637-.271,11.453,2.409,1.335-.032,1.366-6.57-3.64Z" transform="translate(-1003.417 -265.541)" fill="#5c95ff"/>
        <path id="Path_11237" data-name="Path 11237" d="M1078.936,335.878c.1-4.3,1.562-5.832,3.9-4.538,2.318,1.284,3.669,4.374,3.567,8.674s-1.564,5.912-3.882,4.628C1080.184,343.347,1078.834,340.178,1078.936,335.878Zm6,3.327c.089-3.757-.787-5.79-2.138-6.538-1.369-.758-2.317.263-2.406,4.02s.786,5.871,2.154,6.629C1083.9,344.064,1084.852,342.962,1084.941,339.2Z" transform="translate(-1014.228 -271.604)" fill="#5c95ff"/>
        <path id="Path_11238" data-name="Path 11238" d="M1100.576,352.946l2.664,1.476.223-9.443-2.117-1.173.025-1.065a5.561,5.561,0,0,0,2.487.421l1.149.637-.271,11.453,2.409,1.335-.032,1.367-6.57-3.64Z" transform="translate(-1026.28 -278.209)" fill="#5c95ff"/>
        <path id="Path_11239" data-name="Path 11239" d="M1119.938,358.6c.1-4.3,1.562-5.832,3.9-4.538,2.318,1.284,3.669,4.374,3.567,8.673s-1.564,5.912-3.882,4.628C1121.186,366.066,1119.836,362.9,1119.938,358.6Zm6,3.326c.089-3.757-.787-5.79-2.138-6.538-1.368-.759-2.317.263-2.406,4.02s.786,5.87,2.154,6.629C1124.9,366.783,1125.854,365.681,1125.943,361.923Z" transform="translate(-1037.092 -284.272)" fill="#5c95ff"/>
        <path id="Path_11240" data-name="Path 11240" d="M1141.578,375.664l2.665,1.476.223-9.443-2.117-1.173.025-1.065a5.559,5.559,0,0,0,2.486.421l1.15.637-.271,11.453,2.409,1.335-.032,1.366-6.57-3.64Z" transform="translate(-1049.144 -290.878)" fill="#5c95ff"/>
        <path id="Path_11241" data-name="Path 11241" d="M1160.94,381.315c.1-4.3,1.562-5.832,3.9-4.538,2.317,1.284,3.669,4.374,3.567,8.674s-1.564,5.912-3.881,4.628C1162.188,388.784,1160.839,385.615,1160.94,381.315Zm6,3.327c.089-3.757-.787-5.79-2.138-6.538-1.368-.758-2.317.263-2.406,4.02s.785,5.871,2.154,6.629C1165.906,389.5,1166.856,388.4,1166.945,384.641Z" transform="translate(-1059.955 -296.94)" fill="#5c95ff"/>
        <path id="Path_11242" data-name="Path 11242" d="M935.281,316.583l2.664,1.476.223-9.443-2.117-1.173.025-1.065a5.566,5.566,0,0,0,2.486.421l1.149.637-.271,11.453,2.41,1.335-.032,1.366-6.57-3.64Z" transform="translate(-934.109 -257.933)" fill="#5c95ff"/>
        <path id="Path_11243" data-name="Path 11243" d="M955.781,327.943l2.664,1.476.223-9.444-2.116-1.173.025-1.065a5.563,5.563,0,0,0,2.485.421l1.15.637-.271,11.453,2.409,1.335-.032,1.367-6.57-3.64Z" transform="translate(-945.54 -264.267)" fill="#5c95ff"/>
        <path id="Path_11244" data-name="Path 11244" d="M975.143,333.593c.1-4.3,1.562-5.832,3.9-4.538,2.318,1.285,3.668,4.374,3.566,8.674s-1.563,5.912-3.881,4.628C976.391,341.063,975.042,337.893,975.143,333.593Zm6,3.327c.089-3.757-.787-5.79-2.138-6.538-1.369-.758-2.317.263-2.406,4.02s.786,5.871,2.154,6.629C980.109,341.779,981.059,340.677,981.148,336.92Z" transform="translate(-956.351 -270.33)" fill="#5c95ff"/>
        <path id="Path_11245" data-name="Path 11245" d="M996.783,350.661l2.664,1.476.223-9.443-2.117-1.173.025-1.065a5.565,5.565,0,0,0,2.486.421l1.15.637-.271,11.453,2.409,1.335-.032,1.366-6.57-3.64Z" transform="translate(-968.403 -276.936)" fill="#5c95ff"/>
        <path id="Path_11246" data-name="Path 11246" d="M1016.145,356.312c.1-4.3,1.561-5.832,3.9-4.538,2.318,1.284,3.668,4.374,3.567,8.674s-1.563,5.912-3.881,4.628C1017.392,363.781,1016.044,360.612,1016.145,356.312Zm6,3.327c.089-3.757-.787-5.79-2.139-6.538-1.368-.758-2.317.263-2.406,4.02s.786,5.87,2.154,6.629C1021.111,364.5,1022.061,363.4,1022.15,359.638Z" transform="translate(-979.215 -282.998)" fill="#5c95ff"/>
        <path id="Path_11247" data-name="Path 11247" d="M1036.647,367.671c.1-4.3,1.561-5.832,3.9-4.538,2.318,1.284,3.669,4.374,3.567,8.673s-1.564,5.913-3.881,4.628C1037.894,375.14,1036.545,371.971,1036.647,367.671Zm6,3.327c.089-3.758-.787-5.79-2.138-6.538-1.369-.758-2.317.263-2.406,4.021s.786,5.87,2.154,6.629C1041.612,375.857,1042.562,374.755,1042.651,371Z" transform="translate(-990.647 -289.333)" fill="#5c95ff"/>
        <path id="Path_11248" data-name="Path 11248" d="M1058.285,384.739l2.665,1.477.223-9.444-2.117-1.173.025-1.065a5.565,5.565,0,0,0,2.486.421l1.149.637-.271,11.453,2.409,1.335-.032,1.366-6.57-3.64Z" transform="translate(-1002.698 -295.938)" fill="#5c95ff"/>
        <path id="Path_11249" data-name="Path 11249" d="M1078.787,396.1l2.664,1.476.224-9.444-2.117-1.173.025-1.065a5.567,5.567,0,0,0,2.486.421l1.149.637-.27,11.453,2.409,1.335-.032,1.366-6.57-3.64Z" transform="translate(-1014.13 -302.272)" fill="#5c95ff"/>
        <path id="Path_11250" data-name="Path 11250" d="M1099.287,407.457l2.665,1.477.223-9.444-2.117-1.173.025-1.065a5.559,5.559,0,0,0,2.486.421l1.149.637-.271,11.453,2.409,1.335-.032,1.366-6.57-3.64Z" transform="translate(-1025.561 -308.606)" fill="#5c95ff"/>
        <path id="Path_11251" data-name="Path 11251" d="M1118.65,413.108c.1-4.3,1.562-5.832,3.9-4.538,2.317,1.284,3.669,4.374,3.567,8.673s-1.564,5.912-3.881,4.628C1119.9,420.578,1118.549,417.408,1118.65,413.108Zm6,3.327c.089-3.758-.787-5.79-2.138-6.538-1.369-.758-2.317.263-2.406,4.021s.786,5.87,2.154,6.629C1123.615,421.294,1124.565,420.192,1124.654,416.435Z" transform="translate(-1036.373 -314.669)" fill="#5c95ff"/>
        <path id="Path_11252" data-name="Path 11252" d="M1139.151,424.467c.1-4.3,1.561-5.832,3.9-4.538,2.318,1.285,3.669,4.374,3.567,8.674s-1.563,5.912-3.882,4.628C1140.4,431.937,1139.049,428.767,1139.151,424.467Zm6,3.327c.089-3.757-.787-5.79-2.138-6.538-1.368-.758-2.317.264-2.405,4.021s.785,5.87,2.154,6.629C1144.115,432.653,1145.066,431.551,1145.155,427.794Z" transform="translate(-1047.805 -321.003)" fill="#5c95ff"/>
        <path id="Path_11253" data-name="Path 11253" d="M1160.79,441.535l2.664,1.476.223-9.444-2.117-1.173.025-1.065a5.566,5.566,0,0,0,2.486.421l1.149.637-.271,11.453,2.41,1.335-.032,1.366-6.57-3.64Z" transform="translate(-1059.857 -327.609)" fill="#5c95ff"/>
        <path id="Path_11254" data-name="Path 11254" d="M933.992,371.1l2.664,1.476.223-9.444-2.117-1.173.025-1.065a5.567,5.567,0,0,0,2.486.421l1.15.637-.271,11.453,2.409,1.335-.032,1.366-6.57-3.64Z" transform="translate(-933.39 -288.33)" fill="#5c95ff"/>
        <path id="Path_11255" data-name="Path 11255" d="M953.354,376.746c.1-4.3,1.561-5.832,3.9-4.538,2.318,1.284,3.669,4.374,3.567,8.674s-1.563,5.912-3.881,4.628C954.6,384.215,953.253,381.046,953.354,376.746Zm6,3.327c.089-3.757-.787-5.79-2.138-6.538-1.368-.758-2.317.263-2.406,4.02s.786,5.87,2.154,6.629C958.319,384.932,959.269,383.83,959.358,380.072Z" transform="translate(-944.201 -294.393)" fill="#5c95ff"/>
        <path id="Path_11256" data-name="Path 11256" d="M973.855,388.1c.1-4.3,1.562-5.832,3.9-4.538,2.318,1.284,3.668,4.374,3.566,8.673s-1.563,5.912-3.881,4.628C975.1,395.574,973.754,392.4,973.855,388.1Zm6,3.327c.089-3.758-.787-5.79-2.138-6.538-1.369-.758-2.317.263-2.406,4.021s.786,5.87,2.154,6.629C978.82,396.291,979.771,395.189,979.859,391.431Z" transform="translate(-955.633 -300.727)" fill="#5c95ff"/>
        <path id="Path_11257" data-name="Path 11257" d="M994.356,399.464c.1-4.3,1.561-5.832,3.9-4.538,2.318,1.284,3.669,4.374,3.567,8.674s-1.563,5.912-3.881,4.628C995.6,406.934,994.254,403.764,994.356,399.464Zm6,3.327c.089-3.757-.787-5.79-2.139-6.538-1.369-.758-2.317.263-2.406,4.02s.785,5.871,2.154,6.629C999.321,407.65,1000.271,406.548,1000.36,402.791Z" transform="translate(-967.065 -307.061)" fill="#5c95ff"/>
        <path id="Path_11258" data-name="Path 11258" d="M1015.994,416.532l2.665,1.476.223-9.444-2.117-1.173.025-1.065a5.565,5.565,0,0,0,2.486.421l1.15.637-.271,11.453,2.409,1.335-.032,1.366-6.57-3.64Z" transform="translate(-979.116 -313.666)" fill="#5c95ff"/>
        <path id="Path_11259" data-name="Path 11259" d="M1035.358,422.183c.1-4.3,1.561-5.832,3.9-4.538,2.318,1.284,3.669,4.374,3.567,8.674s-1.563,5.912-3.882,4.628C1036.6,429.652,1035.256,426.483,1035.358,422.183Zm6,3.327c.088-3.757-.787-5.79-2.138-6.538-1.369-.758-2.317.263-2.406,4.02s.785,5.87,2.154,6.629C1040.323,430.369,1041.273,429.267,1041.362,425.509Z" transform="translate(-989.928 -319.729)" fill="#5c95ff"/>
        <path id="Path_11260" data-name="Path 11260" d="M1057,439.251l2.665,1.476.223-9.444-2.117-1.173.025-1.065a5.568,5.568,0,0,0,2.486.421l1.15.637-.271,11.453,2.409,1.335-.032,1.367-6.57-3.64Z" transform="translate(-1001.979 -326.334)" fill="#5c95ff"/>
        <path id="Path_11261" data-name="Path 11261" d="M1076.359,444.9c.1-4.3,1.562-5.832,3.9-4.538,2.318,1.284,3.669,4.374,3.567,8.674s-1.564,5.912-3.881,4.628C1077.606,452.371,1076.257,449.2,1076.359,444.9Zm6,3.327c.089-3.757-.788-5.79-2.138-6.538-1.369-.758-2.317.263-2.406,4.02s.786,5.871,2.154,6.629C1081.324,453.087,1082.275,451.985,1082.364,448.228Z" transform="translate(-1012.791 -332.397)" fill="#5c95ff"/>
        <path id="Path_11262" data-name="Path 11262" d="M1096.86,456.26c.1-4.3,1.561-5.832,3.9-4.537,2.318,1.284,3.668,4.373,3.567,8.673s-1.563,5.912-3.88,4.628C1098.107,463.73,1096.759,460.56,1096.86,456.26Zm6,3.327c.089-3.758-.788-5.79-2.138-6.538-1.369-.759-2.317.263-2.406,4.02s.786,5.87,2.154,6.629C1101.825,464.446,1102.776,463.344,1102.865,459.587Z" transform="translate(-1024.223 -338.732)" fill="#5c95ff"/>
        <path id="Path_11263" data-name="Path 11263" d="M1118.5,473.328l2.664,1.476.224-9.443-2.117-1.173.025-1.065a5.567,5.567,0,0,0,2.486.421l1.15.637-.271,11.453,2.409,1.335-.032,1.366-6.57-3.64Z" transform="translate(-1036.275 -345.337)" fill="#5c95ff"/>
        <path id="Path_11264" data-name="Path 11264" d="M1137.862,478.979c.1-4.3,1.561-5.832,3.9-4.538,2.318,1.284,3.669,4.374,3.567,8.673s-1.563,5.912-3.881,4.628C1139.109,486.448,1137.76,483.279,1137.862,478.979Zm6,3.327c.089-3.758-.787-5.79-2.138-6.538-1.368-.758-2.316.263-2.405,4.021s.786,5.87,2.153,6.629C1142.827,487.165,1143.777,486.063,1143.866,482.306Z" transform="translate(-1047.086 -351.4)" fill="#5c95ff"/>
        <path id="Path_11265" data-name="Path 11265" d="M1158.363,490.338c.1-4.3,1.562-5.832,3.9-4.538,2.317,1.284,3.669,4.374,3.567,8.674s-1.564,5.912-3.881,4.628C1159.61,497.808,1158.261,494.638,1158.363,490.338Zm6,3.327c.089-3.757-.787-5.79-2.138-6.538-1.369-.758-2.317.263-2.406,4.02s.786,5.871,2.154,6.629C1163.328,498.524,1164.279,497.422,1164.367,493.665Z" transform="translate(-1058.518 -357.734)" fill="#5c95ff"/>
        <path id="Path_11266" data-name="Path 11266" d="M932.7,425.607l2.664,1.477.223-9.444-2.117-1.173.025-1.064a5.568,5.568,0,0,0,2.487.421l1.149.637-.271,11.453,2.409,1.335-.032,1.366-6.57-3.64Z" transform="translate(-932.671 -318.727)" fill="#5c95ff"/>
        <path id="Path_11267" data-name="Path 11267" d="M953.2,436.966l2.664,1.476.223-9.444-2.117-1.173L954,426.76a5.559,5.559,0,0,0,2.486.421l1.15.637-.271,11.453,2.409,1.335-.032,1.366-6.57-3.64Z" transform="translate(-944.102 -325.06)" fill="#5c95ff"/>
        <path id="Path_11268" data-name="Path 11268" d="M972.566,442.617c.1-4.3,1.562-5.832,3.9-4.538,2.318,1.284,3.668,4.374,3.567,8.674s-1.563,5.912-3.881,4.628C973.813,450.086,972.464,446.917,972.566,442.617Zm6,3.326c.089-3.757-.787-5.79-2.138-6.538-1.369-.759-2.317.263-2.406,4.02s.786,5.87,2.154,6.629C977.531,450.8,978.482,449.7,978.571,445.943Z" transform="translate(-954.914 -331.124)" fill="#5c95ff"/>
        <path id="Path_11269" data-name="Path 11269" d="M993.068,453.975c.1-4.3,1.561-5.832,3.9-4.538,2.318,1.284,3.669,4.373,3.567,8.673s-1.564,5.912-3.881,4.628C994.315,461.445,992.966,458.276,993.068,453.975Zm6,3.327c.089-3.758-.787-5.79-2.138-6.538-1.369-.758-2.317.263-2.406,4.021s.786,5.87,2.154,6.629C998.033,462.162,998.983,461.06,999.072,457.3Z" transform="translate(-966.347 -337.458)" fill="#5c95ff"/>
        <path id="Path_11270" data-name="Path 11270" d="M1013.568,465.335c.1-4.3,1.561-5.832,3.9-4.538,2.318,1.285,3.668,4.374,3.566,8.674s-1.563,5.912-3.881,4.628C1014.815,472.8,1013.466,469.635,1013.568,465.335Zm6,3.327c.089-3.757-.787-5.79-2.138-6.538-1.369-.758-2.317.263-2.406,4.02s.786,5.871,2.154,6.629C1018.533,473.521,1019.484,472.419,1019.573,468.662Z" transform="translate(-977.778 -343.792)" fill="#5c95ff"/>
        <path id="Path_11271" data-name="Path 11271" d="M1035.207,482.4l2.664,1.476.223-9.444-2.117-1.173L1036,472.2a5.561,5.561,0,0,0,2.486.421l1.15.637-.271,11.453,2.409,1.335-.032,1.366-6.57-3.64Z" transform="translate(-989.829 -350.397)" fill="#5c95ff"/>
        <path id="Path_11272" data-name="Path 11272" d="M1054.57,488.054c.1-4.3,1.561-5.832,3.9-4.538,2.318,1.284,3.668,4.374,3.567,8.673s-1.563,5.913-3.881,4.628C1055.817,495.523,1054.469,492.354,1054.57,488.054Zm6,3.326c.089-3.757-.787-5.79-2.138-6.538-1.369-.758-2.317.263-2.406,4.02s.786,5.87,2.155,6.629C1059.535,496.24,1060.486,495.138,1060.574,491.38Z" transform="translate(-1000.641 -356.46)" fill="#5c95ff"/>
        <path id="Path_11273" data-name="Path 11273" d="M1076.209,505.122l2.664,1.476.223-9.444-2.117-1.173.025-1.065a5.568,5.568,0,0,0,2.486.421l1.149.637-.271,11.453,2.409,1.335-.032,1.366-6.57-3.64Z" transform="translate(-1012.693 -363.065)" fill="#5c95ff"/>
        <path id="Path_11274" data-name="Path 11274" d="M1096.71,516.481l2.665,1.477.223-9.444-2.117-1.173.025-1.065a5.571,5.571,0,0,0,2.486.421l1.15.637-.271,11.453,2.409,1.335-.032,1.367-6.57-3.64Z" transform="translate(-1024.124 -369.4)" fill="#5c95ff"/>
        <path id="Path_11275" data-name="Path 11275" d="M1117.211,527.84l2.664,1.476.223-9.444-2.117-1.173.025-1.065a5.562,5.562,0,0,0,2.487.421l1.149.637-.271,11.453,2.409,1.335-.032,1.366-6.57-3.64Z" transform="translate(-1035.556 -375.733)" fill="#5c95ff"/>
        <path id="Path_11276" data-name="Path 11276" d="M1137.711,539.2l2.665,1.476.223-9.443-2.117-1.173.025-1.065a5.564,5.564,0,0,0,2.486.421l1.15.637-.271,11.453,2.409,1.335-.033,1.366-6.57-3.64Z" transform="translate(-1046.987 -382.068)" fill="#5c95ff"/>
        <path id="Path_11277" data-name="Path 11277" d="M1157.074,544.849c.1-4.3,1.562-5.832,3.9-4.537,2.317,1.284,3.669,4.374,3.567,8.673s-1.564,5.912-3.881,4.628C1158.321,552.319,1156.972,549.15,1157.074,544.849Zm6,3.327c.088-3.758-.788-5.79-2.139-6.538-1.369-.758-2.317.263-2.406,4.021s.786,5.87,2.154,6.629C1162.039,553.036,1162.99,551.934,1163.079,548.176Z" transform="translate(-1057.8 -388.131)" fill="#5c95ff"/>
        <path id="Path_11278" data-name="Path 11278" d="M936.569,485.83l2.664,1.476.223-9.444-2.117-1.173.025-1.065a5.56,5.56,0,0,0,2.486.421l1.149.637-.271,11.453,2.409,1.335-.032,1.367-6.57-3.64Z" transform="translate(-934.827 -352.308)" fill="#5c95ff"/>
        <path id="Path_11279" data-name="Path 11279" d="M955.932,491.48c.1-4.3,1.561-5.832,3.9-4.538,2.318,1.284,3.669,4.374,3.567,8.674s-1.564,5.912-3.881,4.628C957.179,498.95,955.831,495.78,955.932,491.48Zm6,3.327c.089-3.757-.787-5.79-2.138-6.538-1.368-.758-2.317.264-2.406,4.021s.786,5.87,2.154,6.629C960.9,499.666,961.847,498.564,961.936,494.807Z" transform="translate(-945.639 -358.371)" fill="#5c95ff"/>
        <path id="Path_11280" data-name="Path 11280" d="M976.432,502.839c.1-4.3,1.562-5.832,3.9-4.538,2.318,1.284,3.668,4.373,3.566,8.673s-1.563,5.912-3.881,4.628C977.68,510.309,976.33,507.14,976.432,502.839Zm6,3.327c.089-3.758-.787-5.79-2.139-6.538-1.368-.758-2.317.263-2.406,4.02s.785,5.87,2.154,6.629C981.4,511.026,982.348,509.924,982.437,506.166Z" transform="translate(-957.07 -364.705)" fill="#5c95ff"/>
        <path id="Path_11281" data-name="Path 11281" d="M998.072,519.907l2.664,1.477.223-9.444-2.117-1.173.025-1.065a5.566,5.566,0,0,0,2.486.421l1.15.637-.271,11.453,2.409,1.335-.032,1.366-6.57-3.64Z" transform="translate(-969.122 -371.31)" fill="#5c95ff"/>
        <path id="Path_11282" data-name="Path 11282" d="M1018.572,531.267l2.665,1.476.223-9.443-2.117-1.173.025-1.065a5.565,5.565,0,0,0,2.486.421l1.149.637-.271,11.453,2.409,1.335-.032,1.366-6.57-3.64Z" transform="translate(-980.553 -377.644)" fill="#5c95ff"/>
        <path id="Path_11283" data-name="Path 11283" d="M1037.936,536.918c.1-4.3,1.561-5.832,3.9-4.538,2.318,1.284,3.668,4.374,3.567,8.673s-1.564,5.912-3.881,4.628C1039.183,544.387,1037.834,541.217,1037.936,536.918Zm6,3.326c.089-3.757-.787-5.79-2.138-6.538-1.369-.758-2.317.264-2.406,4.021s.786,5.87,2.154,6.629C1042.9,545.1,1043.851,544,1043.94,540.244Z" transform="translate(-991.366 -383.708)" fill="#5c95ff"/>
        <path id="Path_11284" data-name="Path 11284" d="M1059.574,553.985l2.664,1.476.223-9.443-2.117-1.173.025-1.065a5.561,5.561,0,0,0,2.487.421l1.149.637-.271,11.453,2.409,1.335-.032,1.366-6.57-3.64Z" transform="translate(-1003.417 -390.313)" fill="#5c95ff"/>
        <path id="Path_11285" data-name="Path 11285" d="M1078.936,559.636c.1-4.3,1.562-5.832,3.9-4.538,2.318,1.284,3.669,4.374,3.567,8.674s-1.564,5.912-3.882,4.628C1080.184,567.105,1078.834,563.936,1078.936,559.636Zm6,3.327c.089-3.757-.787-5.79-2.138-6.538-1.369-.758-2.317.263-2.406,4.02s.786,5.871,2.154,6.629C1083.9,567.822,1084.852,566.72,1084.941,562.962Z" transform="translate(-1014.228 -396.376)" fill="#5c95ff"/>
        <path id="Path_11286" data-name="Path 11286" d="M1100.576,576.7l2.664,1.476.223-9.443-2.117-1.173.025-1.065a5.562,5.562,0,0,0,2.487.421l1.149.637-.271,11.453,2.409,1.335-.032,1.366-6.57-3.64Z" transform="translate(-1026.28 -402.981)" fill="#5c95ff"/>
        <path id="Path_11287" data-name="Path 11287" d="M1119.938,582.355c.1-4.3,1.562-5.832,3.9-4.538,2.318,1.284,3.669,4.374,3.567,8.673s-1.564,5.912-3.882,4.628C1121.186,589.824,1119.836,586.654,1119.938,582.355Zm6,3.326c.089-3.757-.787-5.79-2.138-6.538-1.368-.759-2.317.263-2.406,4.02s.786,5.87,2.154,6.629C1124.9,590.541,1125.854,589.439,1125.943,585.681Z" transform="translate(-1037.092 -409.044)" fill="#5c95ff"/>
        <path id="Path_11288" data-name="Path 11288" d="M1141.578,599.422l2.665,1.476.223-9.444-2.117-1.173.025-1.065a5.559,5.559,0,0,0,2.486.421l1.15.637-.271,11.453,2.409,1.335-.032,1.366-6.57-3.64Z" transform="translate(-1049.144 -415.649)" fill="#5c95ff"/>
        <path id="Path_11289" data-name="Path 11289" d="M1160.94,605.073c.1-4.3,1.562-5.832,3.9-4.538,2.317,1.284,3.669,4.374,3.567,8.674s-1.564,5.912-3.881,4.628C1162.188,612.542,1160.839,609.373,1160.94,605.073Zm6,3.327c.089-3.757-.787-5.79-2.138-6.538-1.368-.758-2.317.263-2.406,4.02s.785,5.871,2.154,6.629C1165.906,613.259,1166.856,612.157,1166.945,608.4Z" transform="translate(-1059.955 -421.712)" fill="#5c95ff"/>
        <path id="Path_11290" data-name="Path 11290" d="M935.281,540.341l2.664,1.476.223-9.443-2.117-1.173.025-1.065a5.565,5.565,0,0,0,2.486.421l1.149.637-.271,11.453,2.41,1.335-.032,1.366-6.57-3.64Z" transform="translate(-934.109 -382.705)" fill="#5c95ff"/>
        <path id="Path_11291" data-name="Path 11291" d="M955.781,551.7l2.664,1.476.223-9.443-2.116-1.173.025-1.065a5.564,5.564,0,0,0,2.485.421l1.15.637-.271,11.453,2.409,1.335-.032,1.367-6.57-3.64Z" transform="translate(-945.54 -389.039)" fill="#5c95ff"/>
        <path id="Path_11292" data-name="Path 11292" d="M975.143,557.351c.1-4.3,1.562-5.832,3.9-4.538,2.318,1.285,3.668,4.374,3.566,8.674s-1.563,5.912-3.881,4.628C976.391,564.821,975.042,561.651,975.143,557.351Zm6,3.327c.089-3.757-.787-5.79-2.138-6.538-1.369-.758-2.317.264-2.406,4.02s.786,5.871,2.154,6.629C980.109,565.537,981.059,564.435,981.148,560.678Z" transform="translate(-956.351 -395.102)" fill="#5c95ff"/>
        <path id="Path_11293" data-name="Path 11293" d="M996.783,574.419l2.664,1.476.223-9.444-2.117-1.173.025-1.065a5.564,5.564,0,0,0,2.486.421l1.15.637-.271,11.453,2.409,1.335-.032,1.366-6.57-3.64Z" transform="translate(-968.403 -401.707)" fill="#5c95ff"/>
        <path id="Path_11294" data-name="Path 11294" d="M1016.145,580.07c.1-4.3,1.561-5.832,3.9-4.538,2.318,1.284,3.668,4.374,3.567,8.674s-1.563,5.912-3.881,4.628C1017.392,587.539,1016.044,584.37,1016.145,580.07Zm6,3.327c.089-3.757-.787-5.79-2.139-6.538-1.368-.758-2.317.263-2.406,4.02s.786,5.871,2.154,6.629C1021.111,588.256,1022.061,587.154,1022.15,583.4Z" transform="translate(-979.215 -407.77)" fill="#5c95ff"/>
        <path id="Path_11295" data-name="Path 11295" d="M1036.647,591.429c.1-4.3,1.561-5.832,3.9-4.538,2.318,1.284,3.669,4.374,3.567,8.673s-1.564,5.913-3.881,4.628C1037.894,598.9,1036.545,595.729,1036.647,591.429Zm6,3.327c.089-3.758-.787-5.79-2.138-6.538-1.369-.758-2.317.263-2.406,4.021s.786,5.87,2.154,6.629C1041.612,599.615,1042.562,598.513,1042.651,594.756Z" transform="translate(-990.647 -414.104)" fill="#5c95ff"/>
        <path id="Path_11296" data-name="Path 11296" d="M1058.285,608.5l2.665,1.477.223-9.444-2.117-1.173.025-1.065a5.565,5.565,0,0,0,2.486.421l1.149.637-.271,11.453,2.409,1.335-.032,1.366-6.57-3.64Z" transform="translate(-1002.698 -420.71)" fill="#5c95ff"/>
        <path id="Path_11297" data-name="Path 11297" d="M1078.787,619.856l2.664,1.476.224-9.443-2.117-1.173.025-1.065a5.568,5.568,0,0,0,2.486.421l1.149.637-.27,11.453,2.409,1.335-.032,1.366-6.57-3.641Z" transform="translate(-1014.13 -427.044)" fill="#5c95ff"/>
        <path id="Path_11298" data-name="Path 11298" d="M1099.287,631.216l2.665,1.477.223-9.444-2.117-1.173.025-1.064a5.564,5.564,0,0,0,2.486.42l1.149.637-.271,11.453,2.409,1.335-.032,1.366-6.57-3.64Z" transform="translate(-1025.561 -433.378)" fill="#5c95ff"/>
        <path id="Path_11299" data-name="Path 11299" d="M1118.65,636.866c.1-4.3,1.562-5.832,3.9-4.538,2.317,1.284,3.669,4.374,3.567,8.673s-1.564,5.913-3.881,4.628C1119.9,644.336,1118.549,641.166,1118.65,636.866Zm6,3.327c.089-3.758-.787-5.79-2.138-6.538-1.369-.758-2.317.263-2.406,4.021s.786,5.87,2.154,6.629C1123.615,645.052,1124.565,643.95,1124.654,640.193Z" transform="translate(-1036.373 -439.441)" fill="#5c95ff"/>
        <path id="Path_11300" data-name="Path 11300" d="M1139.151,648.225c.1-4.3,1.561-5.832,3.9-4.538,2.318,1.285,3.669,4.374,3.567,8.674s-1.563,5.912-3.882,4.628C1140.4,655.695,1139.049,652.525,1139.151,648.225Zm6,3.327c.089-3.757-.787-5.79-2.138-6.538-1.368-.758-2.317.264-2.405,4.021s.785,5.87,2.154,6.629C1144.115,656.411,1145.066,655.309,1145.155,651.552Z" transform="translate(-1047.805 -445.775)" fill="#5c95ff"/>
        <path id="Path_11301" data-name="Path 11301" d="M1160.79,665.293l2.664,1.476.223-9.444-2.117-1.173.025-1.065a5.564,5.564,0,0,0,2.486.421l1.149.637-.271,11.453,2.41,1.335-.032,1.366-6.57-3.64Z" transform="translate(-1059.857 -452.38)" fill="#5c95ff"/>
        <path id="Path_11302" data-name="Path 11302" d="M933.992,594.853l2.664,1.476.223-9.444-2.117-1.173.025-1.065a5.561,5.561,0,0,0,2.486.421l1.15.637-.271,11.453,2.409,1.335-.032,1.366-6.57-3.64Z" transform="translate(-933.39 -413.101)" fill="#5c95ff"/>
        <path id="Path_11303" data-name="Path 11303" d="M953.354,600.5c.1-4.3,1.561-5.832,3.9-4.538,2.318,1.284,3.669,4.374,3.567,8.674s-1.563,5.911-3.881,4.628C954.6,607.973,953.253,604.8,953.354,600.5Zm6,3.326c.089-3.757-.787-5.79-2.138-6.538-1.368-.758-2.317.263-2.406,4.02s.786,5.87,2.154,6.629C958.319,608.69,959.269,607.588,959.358,603.83Z" transform="translate(-944.201 -419.164)" fill="#5c95ff"/>
        <path id="Path_11304" data-name="Path 11304" d="M973.855,611.863c.1-4.3,1.562-5.832,3.9-4.538,2.318,1.284,3.668,4.373,3.566,8.673s-1.563,5.913-3.881,4.628C975.1,619.332,973.754,616.163,973.855,611.863Zm6,3.327c.089-3.758-.787-5.79-2.138-6.538-1.369-.758-2.317.263-2.406,4.021s.786,5.87,2.154,6.629C978.82,620.049,979.771,618.947,979.859,615.189Z" transform="translate(-955.633 -425.498)" fill="#5c95ff"/>
        <path id="Path_11305" data-name="Path 11305" d="M994.356,623.222c.1-4.3,1.561-5.832,3.9-4.538,2.318,1.284,3.669,4.374,3.567,8.674s-1.563,5.912-3.881,4.628C995.6,630.692,994.254,627.522,994.356,623.222Zm6,3.327c.089-3.757-.787-5.79-2.139-6.538-1.369-.758-2.317.263-2.406,4.02s.785,5.871,2.154,6.629C999.321,631.408,1000.271,630.306,1000.36,626.549Z" transform="translate(-967.065 -431.832)" fill="#5c95ff"/>
        <path id="Path_11306" data-name="Path 11306" d="M1015.994,640.29l2.665,1.476.223-9.444-2.117-1.173.025-1.065a5.565,5.565,0,0,0,2.486.421l1.15.637-.271,11.453,2.409,1.335-.032,1.366-6.57-3.64Z" transform="translate(-979.116 -438.438)" fill="#5c95ff"/>
        <path id="Path_11307" data-name="Path 11307" d="M1035.358,645.941c.1-4.3,1.561-5.832,3.9-4.538,2.318,1.284,3.669,4.374,3.567,8.674s-1.563,5.912-3.882,4.628C1036.6,653.41,1035.256,650.241,1035.358,645.941Zm6,3.327c.088-3.757-.787-5.79-2.138-6.538-1.369-.758-2.317.263-2.406,4.02s.785,5.87,2.154,6.629C1040.323,654.127,1041.273,653.025,1041.362,649.268Z" transform="translate(-989.928 -444.501)" fill="#5c95ff"/>
        <path id="Path_11308" data-name="Path 11308" d="M1057,663.009l2.665,1.476.223-9.443-2.117-1.173.025-1.065a5.568,5.568,0,0,0,2.486.421l1.15.637-.271,11.453,2.409,1.335-.032,1.367-6.57-3.64Z" transform="translate(-1001.979 -451.106)" fill="#5c95ff"/>
        <path id="Path_11309" data-name="Path 11309" d="M1076.359,668.659c.1-4.3,1.562-5.832,3.9-4.538,2.318,1.284,3.669,4.374,3.567,8.674s-1.564,5.912-3.881,4.628C1077.606,676.129,1076.257,672.959,1076.359,668.659Zm6,3.327c.089-3.757-.788-5.79-2.138-6.538-1.369-.758-2.317.263-2.406,4.02s.786,5.871,2.154,6.629C1081.324,676.845,1082.275,675.743,1082.364,671.986Z" transform="translate(-1012.791 -457.169)" fill="#5c95ff"/>
        <path id="Path_11310" data-name="Path 11310" d="M1096.86,680.018c.1-4.3,1.561-5.832,3.9-4.537,2.318,1.284,3.668,4.373,3.567,8.673s-1.563,5.912-3.88,4.628C1098.107,687.488,1096.759,684.318,1096.86,680.018Zm6,3.327c.089-3.758-.788-5.79-2.138-6.538-1.369-.759-2.317.263-2.406,4.02s.786,5.87,2.154,6.629C1101.825,688.2,1102.776,687.1,1102.865,683.345Z" transform="translate(-1024.223 -463.503)" fill="#5c95ff"/>
        <path id="Path_11311" data-name="Path 11311" d="M1118.5,697.086l2.664,1.477.224-9.444-2.117-1.173.025-1.065a5.561,5.561,0,0,0,2.486.421l1.15.637-.271,11.453,2.409,1.335-.032,1.366-6.57-3.64Z" transform="translate(-1036.275 -470.109)" fill="#5c95ff"/>
        <path id="Path_11312" data-name="Path 11312" d="M1137.862,702.737c.1-4.3,1.561-5.832,3.9-4.538,2.318,1.285,3.669,4.374,3.567,8.673s-1.563,5.912-3.881,4.628C1139.109,710.206,1137.76,707.037,1137.862,702.737Zm6,3.327c.089-3.758-.787-5.79-2.138-6.538-1.368-.758-2.316.263-2.405,4.021s.786,5.87,2.153,6.629C1142.827,710.923,1143.777,709.821,1143.866,706.064Z" transform="translate(-1047.086 -476.172)" fill="#5c95ff"/>
        <path id="Path_11313" data-name="Path 11313" d="M1158.363,714.1c.1-4.3,1.562-5.832,3.9-4.538,2.317,1.284,3.669,4.374,3.567,8.674s-1.564,5.912-3.881,4.628C1159.61,721.566,1158.261,718.4,1158.363,714.1Zm6,3.327c.089-3.757-.787-5.79-2.138-6.538-1.369-.758-2.317.263-2.406,4.02s.786,5.871,2.154,6.629C1163.328,722.282,1164.279,721.18,1164.367,717.423Z" transform="translate(-1058.518 -482.506)" fill="#5c95ff"/>
      </g>
      <circle id="Ellipse_4" data-name="Ellipse 4" cx="4.219" cy="4.219" r="4.219" transform="translate(294.737 9.596)" fill="#dbefff"/>
      <g id="Group_8429" data-name="Group 8429" transform="translate(10.589 225.876)">
        <path id="Path_11314" data-name="Path 11314" d="M727.23,662.46c-14.242-8.542-37.559-8.928-52.078-.864s-14.743,21.525-.5,30.067,37.3,8.935,52.092,1.035C743,684.014,741.473,671,727.23,662.46Z" transform="translate(-660.367 -642.484)" fill="#a8c4e5" opacity="0.29" style="mix-blend-mode: multiply;isolation: isolate"/>
        <path id="Path_11315" data-name="Path 11315" d="M716.654,656.226c-13.526-8.112-35.67-8.48-49.459-.821s-14,20.443-.475,28.555,35.428,8.486,49.472.983C731.63,676.695,730.181,664.337,716.654,656.226Z" transform="translate(-656.239 -639.195)" fill="#e6b929"/>
        <g id="Group_8428" data-name="Group 8428">
          <path id="Path_11316" data-name="Path 11316" d="M715.584,632.043c-13.527-8.112-35.67-8.48-49.459-.821s-14,20.443-.475,28.555,35.428,8.486,49.472.983C730.56,652.513,729.11,640.155,715.584,632.043Z" transform="translate(-655.642 -625.711)" fill="#fdd76a"/>
          <path id="Path_11317" data-name="Path 11317" d="M716.882,648.324l-5.646,13.223,32.621-4.108" transform="translate(-686.642 -638.32)" fill="none" stroke="#fff" stroke-linecap="round" stroke-linejoin="round" stroke-width="25.597"/>
        </g>
      </g>
      <g id="Group_8431" data-name="Group 8431" transform="translate(0 309.659)">
        <g id="Group_8430" data-name="Group 8430">
          <path id="Path_11318" data-name="Path 11318" d="M652.088,860.823c4.1,2.918,4.815,6.886,2.306,9.98l10.051.034c1.869-4.532.1-9.667-5.468-13.626s-13.607-5.807-21.225-5.365l-1.467,6.073C641.673,856.873,647.985,857.9,652.088,860.823Z" transform="translate(-634.26 -841.278)" fill="#d9e9ff"/>
          <path id="Path_11319" data-name="Path 11319" d="M643.623,828.037l-1.387,5.74c9.382-.109,18.99,2.338,25.8,7.184s9.316,11.016,7.719,16.664l9.5.032a15.715,15.715,0,0,0,.257-2.161c.347-6.311-3.13-12.843-10.586-18.147C666.615,831.436,655.089,828.267,643.623,828.037Z" transform="translate(-637.578 -828.037)" fill="#d9e9ff"/>
          <path id="Path_11320" data-name="Path 11320" d="M631.713,879.313c.005.085.007.17.021.256a2.926,2.926,0,0,0,.11.428,3.192,3.192,0,0,0,.15.382,3.435,3.435,0,0,0,.185.349,4.1,4.1,0,0,0,.344.464c.073.088.135.177.218.261a5.621,5.621,0,0,0,.794.687,7.39,7.39,0,0,0,.992.583c.123.062.257.113.388.171.229.1.459.2.7.278.177.061.356.113.538.165s.394.1.595.149c.225.05.448.1.676.131.137.022.274.035.412.052A11.025,11.025,0,0,0,642,883.4h0c.246-.067.488-.14.723-.226a6.549,6.549,0,0,0,.9-.378,5.829,5.829,0,0,0,.967-.628c1.96-1.581,1.832-3.91-.494-5.564a10.709,10.709,0,0,0-8.93-1.14,7.678,7.678,0,0,0-1.163.488,5.02,5.02,0,0,0-.748.486,4.867,4.867,0,0,0-.476.4h0a3.656,3.656,0,0,0-.7.918A2.8,2.8,0,0,0,631.713,879.313Z" transform="translate(-631.707 -854.206)" fill="#d9e9ff"/>
        </g>
      </g>
      <g id="Group_8440" data-name="Group 8440" transform="translate(134.926 99.07)">
        <g id="Group_8432" data-name="Group 8432" transform="translate(6.617 13.91)">
          <path id="Path_11321" data-name="Path 11321" d="M991.262,430.526V379.608c0-14.595,10.015-21.107,22.73-14.1,13.075,7.208,23.805,25.509,23.805,40.437v51.444a2.885,2.885,0,0,0,1.309,2.258h0c.723.418,1.309.083,1.309-.746V408.037c0-17.281-12.326-38.324-27.361-46.03-13.59-6.966-24.411-.248-24.411,15.563v51.445a2.884,2.884,0,0,0,1.309,2.258h0C990.676,431.689,991.262,431.355,991.262,430.526Z" transform="translate(-988.057 -358.5)" fill="#fff"/>
          <path id="Path_11322" data-name="Path 11322" d="M1038.367,459.36a4.185,4.185,0,0,1-1.9-3.271V404.645c0-7.052-2.427-15.06-6.835-22.549s-10.215-13.478-16.369-16.866c-12.217-6.736-22.156-.566-22.156,13.754V429.9c0,1.2-.851,1.685-1.9,1.081a4.185,4.185,0,0,1-1.9-3.271V376.265c0-16.1,10.966-23.091,24.966-15.915,7.277,3.723,14.209,10.64,19.513,19.454,5.382,8.944,8.468,19.006,8.468,27.607v50.868C1040.263,459.479,1039.413,459.964,1038.367,459.36ZM1013.8,364.179c6.263,3.616,12.16,9.778,16.661,17.425,4.636,7.877,7.189,16.3,7.189,23.718v51.445a1.593,1.593,0,0,0,.722,1.245c.4.23.722.046.722-.411V406.733c0-8.231-2.953-17.86-8.1-26.415-5.066-8.42-11.687-15.021-18.641-18.584-13.378-6.857-23.857-.176-23.857,15.21v51.445a1.592,1.592,0,0,0,.722,1.245c.4.23.722.046.722-.411V378.3c0-15.046,10.454-21.523,23.3-14.439Q1013.517,364.019,1013.8,364.179Z" transform="translate(-987.316 -357.536)" fill="#fff"/>
        </g>
        <path id="Path_11323" data-name="Path 11323" d="M1093.529,410.46l.056.032c1.027.585,1.856.107,1.856-1.072v-.7c0-14.973-7.465-32.38-18.281-45-1.093-1.275-2.428-1.366-2.7-.147l-.013.057a3.734,3.734,0,0,0,.962,2.936c9.6,11.194,16.236,26.678,16.236,39.97v.688A4.113,4.113,0,0,0,1093.529,410.46Z" transform="translate(-1029.261 -346.513)" fill="#fff"/>
        <path id="Path_11324" data-name="Path 11324" d="M1113.722,482.133l-.285,24.952a3.833,3.833,0,0,0,1.743,3.032l.285.165c.963.556,1.743.111,1.743-.994V484.171a3.84,3.84,0,0,0-1.743-3.006h0C1114.511,480.614,1113.734,481.046,1113.722,482.133Z" transform="translate(-1051.027 -412.43)" fill="#fff"/>
        <path id="Path_11325" data-name="Path 11325" d="M1022,338.948a3.887,3.887,0,0,0-1.4-3.442,50.6,50.6,0,0,0-6.451-4.586c-8.91-5.285-17.34-6.277-23.706-2.753a21.254,21.254,0,0,0-2.982,2.246c-.61.528-.471,1.89.308,3.024h0c.706,1.027,1.7,1.52,2.322,1.143.921-.56,2.223-1.343,3.052-1.8,5.661-3.11,13.14-2.223,21.059,2.524a44.684,44.684,0,0,1,5.556,3.958c1,.825,1.985.712,2.233-.278Z" transform="translate(-980.568 -326.091)" fill="#fff"/>
        <g id="Group_8433" data-name="Group 8433" transform="translate(31.248 56.78)">
          <path id="Path_11326" data-name="Path 11326" d="M1044.971,528.262l-.266-.154a4.108,4.108,0,0,1-1.709-3.266v-68.9c0-1.253.769-1.835,1.709-1.292l.266.154a4.108,4.108,0,0,1,1.709,3.266v68.9C1046.68,528.223,1045.911,528.8,1044.971,528.262Z" transform="translate(-1042.995 -454.443)" fill="#fff"/>
        </g>
        <g id="Group_8434" data-name="Group 8434" transform="translate(21.526 88.911)">
          <path id="Path_11327" data-name="Path 11327" d="M1022.975,560.731l-.264-.153a4.07,4.07,0,0,1-1.693-3.235V528.557c0-1.242.762-1.818,1.693-1.28l.264.152a4.07,4.07,0,0,1,1.693,3.235v28.787C1024.668,560.693,1023.906,561.268,1022.975,560.731Z" transform="translate(-1021.018 -527.075)" fill="#fff"/>
        </g>
        <g id="Group_8435" data-name="Group 8435" transform="translate(41.005 108.603)">
          <path id="Path_11328" data-name="Path 11328" d="M1067.007,594.474l-.263-.153a4.069,4.069,0,0,1-1.694-3.235V573.07c0-1.242.762-1.818,1.694-1.28l.263.152a4.071,4.071,0,0,1,1.693,3.235v18.017C1068.7,594.436,1067.938,595.012,1067.007,594.474Z" transform="translate(-1065.05 -571.588)" fill="#fff"/>
        </g>
        <g id="Group_8436" data-name="Group 8436" transform="translate(48.262 108.311)">
          <path id="Path_11329" data-name="Path 11329" d="M1083.544,593.872l-.357-.206a4.166,4.166,0,0,1-1.732-3.31V572.444c0-1.271.78-1.86,1.732-1.309l.357.206a4.164,4.164,0,0,1,1.732,3.31v17.912C1085.277,593.834,1084.5,594.423,1083.544,593.872Z" transform="translate(-1081.455 -570.929)" fill="#fff"/>
        </g>
        <g id="Group_8437" data-name="Group 8437" transform="translate(14.097 89.219)">
          <path id="Path_11330" data-name="Path 11330" d="M1006.315,550.715l-.357-.206a4.163,4.163,0,0,1-1.732-3.31V529.286c0-1.271.779-1.86,1.732-1.309l.357.206a4.165,4.165,0,0,1,1.732,3.31v17.912C1008.047,550.676,1007.268,551.265,1006.315,550.715Z" transform="translate(-1004.226 -527.771)" fill="#fff"/>
        </g>
        <g id="Group_8438" data-name="Group 8438" transform="translate(6.617 76.387)">
          <path id="Path_11331" data-name="Path 11331" d="M989.405,521.708l-.357-.206a4.165,4.165,0,0,1-1.732-3.31V500.28c0-1.271.78-1.86,1.732-1.31l.357.206a4.166,4.166,0,0,1,1.732,3.31V520.4C991.138,521.669,990.358,522.259,989.405,521.708Z" transform="translate(-987.316 -498.764)" fill="#fff"/>
        </g>
        <g id="Group_8439" data-name="Group 8439" transform="translate(55.662 102.757)">
          <path id="Path_11332" data-name="Path 11332" d="M1100.271,581.316l-.357-.206a4.164,4.164,0,0,1-1.732-3.31V559.888c0-1.271.779-1.86,1.732-1.31l.357.206a4.163,4.163,0,0,1,1.732,3.31v17.912C1102,581.277,1101.224,581.867,1100.271,581.316Z" transform="translate(-1098.182 -558.372)" fill="#fff"/>
        </g>
        <path id="Path_11333" data-name="Path 11333" d="M977.9,348.743l-.042-.06c-.978-1.381-2.35-1.719-2.828-.72a31.082,31.082,0,0,0-2.67,13.411v19.977a4.179,4.179,0,0,0,1.9,3.271h0c1.048.6,1.9.12,1.9-1.082V363.563a27.518,27.518,0,0,1,2.367-11.884A3.233,3.233,0,0,0,977.9,348.743Z" transform="translate(-972.359 -337.966)" fill="#fff"/>
        <path id="Path_11334" data-name="Path 11334" d="M972.359,442.914v25.595a4.333,4.333,0,0,0,1.518,3.1c1.211.969,2.275.522,2.275-.82V445.1a4.179,4.179,0,0,0-1.9-3.271h0C973.208,441.228,972.359,441.712,972.359,442.914Z" transform="translate(-972.359 -390.486)" fill="#fff"/>
        <path id="Path_11335" data-name="Path 11335" d="M1042.322,479.627h0c1.008.582,1.825.116,1.825-1.04v-34.75c0-7.64-5-16.96-11.139-20.774-3.054-1.905-5.963-2.28-8.214-1.093-2.4,1.266-3.776,4.24-3.776,8.161V452.5a4.2,4.2,0,0,0,1.727,3.207c1.052.671,1.923.213,1.923-.981V432.561c0-5.255,3.381-7.771,7.536-5.609a15.167,15.167,0,0,1,5.653,5.715,17.666,17.666,0,0,1,2.64,8.71v35.1A4.02,4.02,0,0,0,1042.322,479.627Z" transform="translate(-999.492 -379.176)" fill="#fff"/>
        <path id="Path_11336" data-name="Path 11336" d="M1006.347,430.441c-1.031-.6-1.866-.119-1.866,1.064v35.932a4.152,4.152,0,0,0,1.866,3.254c1.029.594,1.867.1,1.867-1.1V433.66a4.112,4.112,0,0,0-1.867-3.219Z" transform="translate(-990.271 -384.136)" fill="#fff"/>
        <path id="Path_11337" data-name="Path 11337" d="M1037.8,406.813c-3.791-6.272-8.705-11.151-13.839-13.743-7.336-3.7-13.5-1.824-16.233,4.108-.532,1.155.388,3.3,1.769,4.1h0c.772.446,1.462.31,1.766-.329,2.326-4.89,7.476-6.378,13.444-3.131,4.073,2.206,7.936,6.186,10.892,11.186a31.814,31.814,0,0,1,4.751,15.712v45.843a4.152,4.152,0,0,0,1.866,3.254c1.029.594,1.866.1,1.866-1.1V427.349C1044.077,420.9,1041.787,413.417,1037.8,406.813Z" transform="translate(-991.993 -362.379)" fill="#fff"/>
      </g>
      <g id="Group_8442" data-name="Group 8442" transform="translate(206.27 202.215)">
        <path id="Path_11338" data-name="Path 11338" d="M1324.993,772.411,1321,774.487l-1.152-2.24.894-4.695Z" transform="translate(-1251.815 -681.323)" fill="#2c4482"/>
        <path id="Path_11339" data-name="Path 11339" d="M1169.6,574.93l3.615-1.916,5.4,3.44-5.156,2.578Z" transform="translate(-1168.032 -572.845)" fill="#2c4482"/>
        <path id="Path_11340" data-name="Path 11340" d="M1178.264,573.006l63.978,36.938a7.575,7.575,0,0,1,3.152,6.022v45.2c0,2.311-1.418,3.383-3.152,2.383l-63.978-36.937a7.576,7.576,0,0,1-3.151-6.022v-45.2C1175.112,573.078,1176.53,572.006,1178.264,573.006Z" transform="translate(-1171.107 -572.631)" fill="#3b2ad1"/>
        <g id="Group_8441" data-name="Group 8441" transform="translate(0 2.085)">
          <path id="Path_11341" data-name="Path 11341" d="M1169.21,631.326l63.978,36.938c1.734,1,3.152-.071,3.152-2.383v-45.2a7.574,7.574,0,0,0-3.152-6.022L1169.21,577.72c-1.733-1-3.152.071-3.152,2.382v45.2A7.576,7.576,0,0,0,1169.21,631.326Z" transform="translate(-1166.058 -577.345)" fill="#4a39e3"/>
          <path id="Path_11342" data-name="Path 11342" d="M1285.175,722.013l9.467,5.466c.829.478,1.507-.034,1.507-1.139h0a3.622,3.622,0,0,0-1.507-2.879l-9.467-5.466c-.829-.478-1.507.034-1.507,1.139h0A3.623,3.623,0,0,0,1285.175,722.013Z" transform="translate(-1231.639 -655.674)" fill="#add0ff"/>
          <path id="Path_11343" data-name="Path 11343" d="M1248.99,701.121l9.467,5.466c.829.479,1.507-.034,1.507-1.139h0a3.622,3.622,0,0,0-1.507-2.879l-9.467-5.466c-.829-.479-1.507.034-1.507,1.139h0A3.621,3.621,0,0,0,1248.99,701.121Z" transform="translate(-1211.462 -644.024)" fill="#add0ff"/>
          <path id="Path_11344" data-name="Path 11344" d="M1212.8,680.23l9.467,5.466c.829.478,1.507-.034,1.507-1.139h0a3.623,3.623,0,0,0-1.507-2.879l-9.467-5.466c-.829-.478-1.507.034-1.507,1.139h0A3.622,3.622,0,0,0,1212.8,680.23Z" transform="translate(-1191.285 -632.375)" fill="#add0ff"/>
          <path id="Path_11345" data-name="Path 11345" d="M1205.213,693.038l11.367,6.563c.548.316,1-.023,1-.753h0a2.4,2.4,0,0,0-1-1.9l-11.367-6.562c-.548-.316-1,.023-1,.753h0A2.4,2.4,0,0,0,1205.213,693.038Z" transform="translate(-1187.336 -640.31)" fill="#add0ff"/>
          <path id="Path_11346" data-name="Path 11346" d="M1282.921,661.3l10.881,6.282c.682.394,1.239-.028,1.239-.937h0a2.978,2.978,0,0,0-1.239-2.368l-10.881-6.282c-.682-.393-1.239.028-1.239.937h0A2.979,2.979,0,0,0,1282.921,661.3Z" transform="translate(-1230.532 -622.232)" fill="#add0ff"/>
          <path id="Path_11347" data-name="Path 11347" d="M1177.114,635.443l9.356,5.4c1.1.635,2-.046,2-1.513V637.25a4.81,4.81,0,0,0-2-3.824l-9.356-5.4c-1.1-.636-2,.045-2,1.513v2.081A4.811,4.811,0,0,0,1177.114,635.443Z" transform="translate(-1171.107 -605.472)" fill="#ebd265"/>
          <path id="Path_11348" data-name="Path 11348" d="M1243.945,725.19l28.5,16.455c.548.316,1-.023,1-.753h0a2.394,2.394,0,0,0-1-1.9l-28.5-16.455c-.548-.316-1,.023-1,.753h0A2.394,2.394,0,0,0,1243.945,725.19Z" transform="translate(-1208.934 -658.239)" fill="#add0ff"/>
          <path id="Path_11349" data-name="Path 11349" d="M1176.619,659.338l9.466,5.466c.829.479,1.507-.034,1.507-1.139h0a3.621,3.621,0,0,0-1.507-2.879l-9.466-5.466c-.829-.479-1.507.034-1.507,1.139h0A3.621,3.621,0,0,0,1176.619,659.338Z" transform="translate(-1171.107 -620.725)" fill="#add0ff"/>
          <path id="Path_11350" data-name="Path 11350" d="M1175.112,596.278a10.026,10.026,0,0,0,4.55,7.848c2.513,1.451,4.55.289,4.55-2.594a10.026,10.026,0,0,0-4.55-7.848C1177.149,592.233,1175.112,593.395,1175.112,596.278Z" transform="translate(-1171.107 -586.108)" fill="#add0ff"/>
        </g>
      </g>
      <path id="Path_11351" data-name="Path 11351" d="M1130.413,655.326v22.238l-14.318-8.267" transform="translate(-920.813 -415.81)" fill="none" stroke="#fff" stroke-linecap="round" stroke-linejoin="round" stroke-width="8"/>
      <path id="Path_11352" data-name="Path 11352" d="M1114.554,338.408l15,8.66v19.249" transform="translate(-919.932 -231.999)" fill="none" stroke="#fff" stroke-linecap="round" stroke-linejoin="round" stroke-width="8"/>
      <path id="Path_11353" data-name="Path 11353" d="M954.188,262.462V245.82l11.778,6.8" transform="translate(-824.085 -178.131)" fill="none" stroke="#fff" stroke-linecap="round" stroke-linejoin="round" stroke-width="8"/>
      <g id="Group_8445" data-name="Group 8445" transform="translate(49.619 8.901)">
        <g id="Group_8443" data-name="Group 8443">
          <path id="Path_11354" data-name="Path 11354" d="M828.842,133.7s-18.32,4.344-28.565-19.191c-6.688,8.411-16.589,2.008-22.815-3.647L771.67,104.8a35.627,35.627,0,0,0-9.34,4.914l2.433,3.959.723,1.1c-8.9,25.381,14.838,66.826,19.161,73.249,4.958,7.365,13.193,18.917,13.193,18.917s12.328-1.157,17.33-3.488S846.26,177.9,828.842,133.7Z" transform="translate(-754.164 -104.799)" fill="#a6b6e0"/>
          <path id="Path_11355" data-name="Path 11355" d="M809.208,144.808s-18.32,4.344-28.565-19.191c-10.411,13.093-28.608-9.71-28.608-9.71-22.469,22.438,8.021,75.858,12.978,83.223,3.394,5.043,8.326,12.049,11.1,15.965a5.66,5.66,0,0,0,5.159,2.607c3.985-.5,10.843-1.547,14.266-3.142C800.538,212.229,831.371,189.808,809.208,144.808Z" transform="translate(-743.87 -110.993)" fill="#d9e9ff"/>
          <path id="Path_11356" data-name="Path 11356" d="M809.81,165.626s-14.53,3.445-22.655-15.22c-8.257,10.384-22.689-7.7-22.689-7.7-17.82,17.8,6.361,60.163,10.293,66,2.12,3.151,5.042,7.6,7.283,11.03,2.033,3.112,5.389,4.684,8.37,3.924a57.407,57.407,0,0,0,8.553-2.717C802.934,219.1,827.387,201.315,809.81,165.626Z" transform="translate(-751.743 -125.936)" fill="#3b2ad1"/>
          <path id="Path_11357" data-name="Path 11357" d="M846.579,175.347s-14.523,3.443-22.649-15.209l.518,73.319a6.347,6.347,0,0,0,2.735-.073,57.4,57.4,0,0,0,8.553-2.717C839.7,228.819,864.157,211.037,846.579,175.347Z" transform="translate(-788.513 -135.657)" fill="#4a39e3"/>
        </g>
        <g id="Group_8444" data-name="Group 8444" transform="translate(24.215 43.39)">
          <ellipse id="Ellipse_5" data-name="Ellipse 5" cx="5.752" cy="9.964" rx="5.752" ry="9.964" transform="matrix(0.83, -0.558, 0.558, 0.83, 0, 6.425)" fill="#221878"/>
          <path id="Path_11358" data-name="Path 11358" d="M815.2,217.6l.525.192c1.935.708,3.514,4.054,3.508,7.436l-.017,10.49c-.006,3.382-1.594,5.57-3.529,4.862l-.525-.192c-1.935-.708-3.514-4.054-3.508-7.436l.018-10.49C811.681,219.079,813.269,216.89,815.2,217.6Z" transform="translate(-805.885 -211.013)" fill="#221878"/>
          <path id="Path_11359" data-name="Path 11359" d="M812.328,227.681l.011-6.932a14.141,14.141,0,0,1-2.779-7.66,4.808,4.808,0,0,1,1.575-3.986c-3.3-1.1-5.757.644-5.735,4.407a14.143,14.143,0,0,0,2.779,7.66l-.011,6.932c-.006,3.382,1.573,6.728,3.508,7.436l.525.192a2.166,2.166,0,0,0,2.682-1.2C813.409,233.261,812.323,230.486,812.328,227.681Z" transform="translate(-802.395 -206.169)" fill="#7a6bff"/>
        </g>
      </g>
      <g id="Group_8461" data-name="Group 8461" transform="translate(34.725 114.149)">
        <g id="Group_8456" data-name="Group 8456">
          <path id="Path_11360" data-name="Path 11360" d="M791.474,415.515c.076-5.643-2.539-10.672-6.86-13.191L717.673,363.3c-3.666-2.137-6.726.638-6.8,6.166l-.669,49.552c-.071,5.233,2.354,9.9,6.361,12.232L778.051,467.1c5.612,3.271,12.751-1.8,12.85-9.132Z" transform="translate(-710.202 -361.858)" fill="#d9e9ff"/>
          <path id="Path_11361" data-name="Path 11361" d="M794.873,396.355l-24.132-13.863c-.7-.4-2.376-1.565-3-1.276l-.465.338-6.187,3.991,4.869,6.59.117,6.475c.075,4.147,2.832,9.088,6.125,10.98l11.561,6.641,5.527,8.407,6.357-3.735a3.024,3.024,0,0,0,.305-.241l.021-.017v0a5.249,5.249,0,0,0,1.367-4.074l-.3-16.326A5.028,5.028,0,0,0,794.873,396.355Z" transform="translate(-738.577 -372.225)" fill="#a8c4e5"/>
          <path id="Path_11362" data-name="Path 11362" d="M784.724,429.649l-18.943-10.1c-3.236-1.725-5.944-6.53-6.019-10.677l-.3-16.326c-.027-1.468.889-2.169,2.034-1.558l26.543,14.154a4.753,4.753,0,0,1,2.131,3.78l.3,16.326C790.545,429.393,787.96,431.374,784.724,429.649Z" transform="translate(-737.672 -377.575)" fill="#fff"/>
          <path id="Path_11363" data-name="Path 11363" d="M766.71,419.8h0a1.046,1.046,0,0,1-1.082-1.009l-.3-16.329a1.056,1.056,0,0,1,1.044-1.056h0a1.046,1.046,0,0,1,1.082,1.009l.3,16.329A1.056,1.056,0,0,1,766.71,419.8Z" transform="translate(-740.944 -383.51)" fill="#fff"/>
          <g id="Group_8449" data-name="Group 8449" transform="translate(29.425)">
            <path id="Path_11364" data-name="Path 11364" d="M817.606,411.21a5.952,5.952,0,0,1-5-.008c-1.476-.735-1.632-1.923-.349-2.653a5.954,5.954,0,0,1,5,.008C818.733,409.292,818.889,410.48,817.606,411.21Z" transform="translate(-796.052 -387.187)" fill="#4a39e3"/>
            <path id="Path_11365" data-name="Path 11365" d="M817.361,409.256a5.952,5.952,0,0,1-5-.008c-1.476-.735-1.633-1.923-.349-2.653a5.953,5.953,0,0,1,5,.008C818.488,407.338,818.644,408.526,817.361,409.256Z" transform="translate(-795.915 -386.098)" fill="#6c5dfa"/>
            <path id="Path_11366" data-name="Path 11366" d="M783.178,393.767a5.954,5.954,0,0,1-5-.008c-1.476-.735-1.632-1.923-.349-2.653a5.953,5.953,0,0,1,5,.008C784.305,391.849,784.461,393.037,783.178,393.767Z" transform="translate(-776.854 -377.461)" fill="#4a39e3"/>
            <path id="Path_11367" data-name="Path 11367" d="M782.932,391.813a5.952,5.952,0,0,1-5-.008c-1.477-.735-1.633-1.923-.349-2.653a5.953,5.953,0,0,1,5,.008C784.06,389.895,784.216,391.083,782.932,391.813Z" transform="translate(-776.717 -376.371)" fill="#6c5dfa"/>
            <g id="Group_8448" data-name="Group 8448" transform="translate(1.041)">
              <g id="Group_8447" data-name="Group 8447" transform="translate(0)">
                <path id="Path_11368" data-name="Path 11368" d="M818.383,408.488a3.988,3.988,0,0,1-3.347-.006c-.989-.492-1.094-1.288-.234-1.777a3.986,3.986,0,0,1,3.347.006C819.139,407.2,819.243,408,818.383,408.488Z" transform="translate(-798.67 -386.26)" fill="#4a39e3"/>
                <ellipse id="Ellipse_6" data-name="Ellipse 6" cx="1.252" cy="2.375" rx="1.252" ry="2.375" transform="translate(0 14.734) rotate(-86.944)" fill="#4a39e3"/>
                <g id="Group_8446" data-name="Group 8446" transform="translate(0.092)">
                  <path id="Path_11369" data-name="Path 11369" d="M794.769,382.111l-.132-7.463c.151-2.64-1.482-6.451-4.1-7.791l-2.7-1.386a2.993,2.993,0,0,0-2.508-.3,2.385,2.385,0,0,0-1.207,1.334,3.625,3.625,0,0,0-.254,1.481l.146,6.368c-.17,1.109-4.9,1.109-4.732,0l.093-7.529a6.718,6.718,0,0,1,3.917-5.329,7.893,7.893,0,0,1,6.71.448l2.7,1.386c4.289,2.2,6.53,6.107,6.773,11.982l0,7.149C799.321,383.464,794.6,383.22,794.769,382.111Z" transform="translate(-779.277 -360.948)" fill="#4a39e3"/>
                </g>
              </g>
            </g>
          </g>
          <path id="Path_11370" data-name="Path 11370" d="M785.88,424.193c-.012-1.894,1.524-2.658,3.432-1.706a6.525,6.525,0,0,1,3.476,5.153c.012,1.894-1.524,2.658-3.432,1.706A6.524,6.524,0,0,1,785.88,424.193Z" transform="translate(-752.401 -395.035)" fill="#3629a6"/>
          <path id="Path_11371" data-name="Path 11371" d="M790.5,425.883l.247.078c.912.288,1.655,1.732,1.653,3.211l-.008,4.586c0,1.479-.751,2.453-1.663,2.166l-.247-.078c-.912-.287-1.656-1.732-1.653-3.211l.008-4.586C788.838,426.571,789.586,425.6,790.5,425.883Z" transform="translate(-754.045 -397.129)" fill="#3629a6"/>
          <path id="Path_11372" data-name="Path 11372" d="M789.143,430.308l.005-3.031a5.77,5.77,0,0,1-1.31-3.317,2.08,2.08,0,0,1,.742-1.761,1.929,1.929,0,0,0-2.7,1.992,5.768,5.768,0,0,0,1.309,3.317l-.006,3.031c0,1.478.741,2.923,1.653,3.21l.247.078a1.073,1.073,0,0,0,1.264-.554A3.919,3.919,0,0,1,789.143,430.308Z" transform="translate(-752.401 -395.035)" fill="#4a39e3"/>
          <path id="Path_11373" data-name="Path 11373" d="M785.371,509.407l-47.247-27.278c-2.346-1.354-4.265-5.021-4.265-8.149v-6.16c0-3.128,1.919-4.579,4.265-3.224l47.247,27.278c2.346,1.354,4.265,5.021,4.265,8.149v6.16C789.636,509.31,787.717,510.761,785.371,509.407Z" transform="translate(-723.393 -418.461)" fill="#add0ff"/>
          <g id="Group_8451" data-name="Group 8451" transform="translate(17.845 56.315)">
            <g id="Group_8450" data-name="Group 8450">
              <path id="Path_11374" data-name="Path 11374" d="M756.4,492.811l-1.33-.735.948-.513-.927-1.544-.947.513.011-1.461-1.322-.731-.011,1.462-.933-1.554-.942.511.932,1.553-1.33-.735-.011,1.453,1.33.735-.948.513.927,1.544.948-.514-.011,1.462,1.322.731.011-1.462.933,1.554.942-.51-.933-1.554,1.33.736Z" transform="translate(-750.54 -488.247)" fill="#fff"/>
            </g>
          </g>
          <g id="Group_8453" data-name="Group 8453" transform="translate(26.556 61.132)">
            <g id="Group_8452" data-name="Group 8452">
              <path id="Path_11375" data-name="Path 11375" d="M776.092,503.7l-1.33-.735.948-.513-.927-1.544-.948.513.011-1.461-1.322-.731-.011,1.462-.933-1.554-.942.511.932,1.553-1.33-.735-.011,1.453,1.33.735-.948.513.927,1.544.948-.514-.011,1.462,1.322.731.011-1.462.933,1.554.942-.51-.933-1.554,1.33.736Z" transform="translate(-770.231 -499.137)" fill="#fff"/>
            </g>
          </g>
          <g id="Group_8455" data-name="Group 8455" transform="translate(35.267 65.95)">
            <g id="Group_8454" data-name="Group 8454">
              <path id="Path_11376" data-name="Path 11376" d="M795.784,514.591l-1.33-.735.948-.513-.927-1.544-.948.513.011-1.461-1.322-.731-.011,1.462-.933-1.554-.942.511.932,1.553-1.33-.735-.011,1.453,1.33.735-.948.513.927,1.544.948-.514-.011,1.462,1.322.731.011-1.462.932,1.554.942-.51-.933-1.554,1.33.736Z" transform="translate(-789.923 -510.027)" fill="#fff"/>
            </g>
          </g>
        </g>
        <g id="Group_8458" data-name="Group 8458" transform="translate(43.978 70.767)">
          <g id="Group_8457" data-name="Group 8457">
            <path id="Path_11377" data-name="Path 11377" d="M815.475,525.48l-1.33-.735.948-.513-.927-1.544-.948.513.011-1.461-1.322-.731-.011,1.462-.933-1.554-.942.511.932,1.553-1.33-.735-.011,1.453,1.33.735-.948.513.927,1.544.948-.514-.011,1.462,1.322.731.011-1.462.933,1.554.942-.51-.933-1.554,1.33.736Z" transform="translate(-809.614 -520.917)" fill="#fff"/>
          </g>
        </g>
        <g id="Group_8460" data-name="Group 8460" transform="translate(52.69 75.585)">
          <g id="Group_8459" data-name="Group 8459">
            <path id="Path_11378" data-name="Path 11378" d="M835.167,536.37l-1.33-.735.948-.513-.927-1.544-.948.513.011-1.461L831.6,531.9l-.011,1.462-.933-1.554-.942.511.932,1.553-1.33-.735-.011,1.453,1.33.735-.948.513.927,1.544.948-.514-.011,1.462,1.322.731.011-1.462.933,1.554.942-.51-.933-1.554,1.33.736Z" transform="translate(-829.306 -531.807)" fill="#fff"/>
          </g>
        </g>
      </g>
      <g id="Group_8462" data-name="Group 8462" transform="translate(22.615 232.266)">
        <path id="Path_11379" data-name="Path 11379" d="M880.674,695.2l-.17-.1L844.1,674.079l36.353-20.988.171.1,36.406,21.019Zm-35.213-21.118,35.213,20.331,34.99-20.2L880.45,653.878Z" transform="translate(-772.754 -653.091)" fill="#66a3de" opacity="0.1"/>
        <path id="Path_11380" data-name="Path 11380" d="M961.815,742.044l-.171-.1-36.407-21.02,36.353-20.988.171.1,36.407,21.02ZM926.6,720.926l35.214,20.331,34.989-20.2-35.214-20.331Z" transform="translate(-818 -679.214)" fill="#66a3de" opacity="0.1"/>
        <path id="Path_11381" data-name="Path 11381" d="M800.039,741.751l-.171-.1-36.407-21.02,36.353-20.989.171.1,36.406,21.02Zm-35.214-21.118,35.214,20.331,34.989-20.2-35.214-20.331Z" transform="translate(-727.791 -679.05)" fill="#66a3de" opacity="0.1"/>
        <path id="Path_11382" data-name="Path 11382" d="M881.181,788.6l-.171-.1L844.6,767.481l36.353-20.989.171.1,36.407,21.02Zm-35.214-21.117,35.214,20.331,34.989-20.2-35.214-20.331Z" transform="translate(-773.037 -705.173)" fill="#66a3de" opacity="0.1"/>
        <path id="Path_11383" data-name="Path 11383" d="M962.321,835.445l-.17-.1-36.407-21.019L962.1,793.339l.17.1,36.407,21.02Zm-35.214-21.118,35.214,20.331,34.99-20.2L962.1,794.126Z" transform="translate(-818.282 -731.296)" fill="#66a3de" opacity="0.1"/>
        <path id="Path_11384" data-name="Path 11384" d="M1043.463,882.292l-.17-.1-36.407-21.02,36.353-20.988.171.1,36.407,21.02Zm-35.213-21.118,35.213,20.331,34.99-20.2-35.214-20.331Z" transform="translate(-863.528 -757.419)" fill="#66a3de" opacity="0.1"/>
        <path id="Path_11385" data-name="Path 11385" d="M719.4,788.306l-.171-.1-36.407-21.019L719.18,746.2l.171.1,36.407,21.02Zm-35.214-21.118L719.4,787.519l34.989-20.2L719.18,746.987Z" transform="translate(-682.827 -705.01)" fill="#66a3de" opacity="0.1"/>
        <path id="Path_11386" data-name="Path 11386" d="M800.546,835.153l-.171-.1-36.406-21.02,36.353-20.988.17.1,36.407,21.02Zm-35.214-21.118,35.214,20.331,34.989-20.2-35.213-20.331Z" transform="translate(-728.073 -731.133)" fill="#66a3de" opacity="0.1"/>
        <path id="Path_11387" data-name="Path 11387" d="M881.686,882l-.17-.1-36.407-21.02,36.354-20.988.17.1,36.407,21.019Zm-35.214-21.118,35.214,20.331,34.99-20.2-35.214-20.331Z" transform="translate(-773.318 -757.256)" fill="#66a3de" opacity="0.1"/>
        <path id="Path_11388" data-name="Path 11388" d="M962.828,928.847l-.171-.1-36.407-21.02L962.6,886.741l.171.1,36.406,21.019Zm-35.214-21.118,35.214,20.331,34.989-20.2L962.6,887.528Z" transform="translate(-818.565 -783.379)" fill="#66a3de" opacity="0.1"/>
        <path id="Path_11389" data-name="Path 11389" d="M799.639,928.005l-.17-.1-36.407-21.02L799.416,885.9l.17.1,36.407,21.019Zm-35.214-21.118,35.214,20.331,34.989-20.2-35.213-20.33Z" transform="translate(-727.568 -782.909)" fill="#66a3de" opacity="0.1"/>
      </g>
      <g id="Group_8473" data-name="Group 8473" transform="translate(80.197 183.615)">
        <g id="Group_8464" data-name="Group 8464" transform="translate(12.474 34.638)">
          <g id="Group_8463" data-name="Group 8463">
            <path id="Path_11390" data-name="Path 11390" d="M862.918,626.017c2.869,5.889,7.511,17.592,13.736,19.882,8.612,3.168,17.757-7.128,24.742-12.272,3.129-2.3.146-7.647-3.025-5.312-5.655,4.164-12.794,7.794-19.866,5.062-4.727-1.826-8.109-5.942-10.274-10.386-1.723-3.536-7.032-.5-5.312,3.026Z" transform="translate(-862.58 -621.416)" fill="#e655be"/>
          </g>
        </g>
        <g id="Group_8472" data-name="Group 8472" transform="translate(36.347 1.642)">
          <path id="Path_11391" data-name="Path 11391" d="M954.2,640.062l-9.06-57.891-9.643,7.879,6.666,40.924,5.3,6.179Z" transform="translate(-927.113 -566.536)" fill="#add0ff"/>
          <path id="Path_11392" data-name="Path 11392" d="M932.434,582.88c7.14-5.834,11.727-17.94,10.244-27.041s-8.472-11.748-15.612-5.914-11.726,17.94-10.244,27.041S925.294,588.714,932.434,582.88Z" transform="translate(-916.544 -546.828)" fill="#add0ff"/>
          <path id="Path_11393" data-name="Path 11393" d="M966.031,639.733l-8.927-54.8-9.643,7.879,6.666,40.923,6.745,7.868Z" transform="translate(-933.784 -568.074)" fill="#d9e9ff"/>
          <path id="Path_11394" data-name="Path 11394" d="M944.4,585.638c7.14-5.834,11.727-17.94,10.244-27.041s-8.472-11.748-15.612-5.914-11.726,17.94-10.244,27.04S937.258,591.473,944.4,585.638Z" transform="translate(-923.215 -548.366)" fill="#d9e9ff"/>
          <path id="Path_11395" data-name="Path 11395" d="M950.493,587.2c5.073-4.145,8.332-12.747,7.279-19.212s-6.019-8.347-11.092-4.2S938.348,576.531,939.4,583,945.42,591.343,950.493,587.2Z" transform="translate(-929.179 -555.056)" fill="#add0ff"/>
          <ellipse id="Ellipse_7" data-name="Ellipse 7" cx="5.828" cy="3.359" rx="5.828" ry="3.359" transform="translate(12.736 14.838) rotate(-69.252)" fill="#4432db"/>
          <path id="Path_11396" data-name="Path 11396" d="M949.05,568.155a7.225,7.225,0,0,1,.172-5.415,7.1,7.1,0,0,1,3.567-4.212C954.067,561.376,951.153,567.552,949.05,568.155Z" transform="translate(-934.421 -553.352)" fill="#699eff"/>
          <g id="Group_8467" data-name="Group 8467" transform="translate(22.837 29.657)">
            <g id="Group_8466" data-name="Group 8466" transform="translate(0 0)">
              <g id="Group_8465" data-name="Group 8465" transform="translate(0)">
                <rect id="Rectangle_1798" data-name="Rectangle 1798" width="0.978" height="43.125" transform="translate(0 0.166) rotate(-9.785)" fill="#add0ff"/>
              </g>
            </g>
          </g>
          <g id="Group_8468" data-name="Group 8468" transform="translate(19.525 23.075)">
            <rect id="Rectangle_1799" data-name="Rectangle 1799" width="0.979" height="50.442" transform="matrix(0.983, -0.182, 0.182, 0.983, 0, 0.178)" fill="#add0ff"/>
          </g>
          <g id="Group_8471" data-name="Group 8471" transform="translate(17.241 29.1)">
            <g id="Group_8470" data-name="Group 8470" transform="translate(0)">
              <g id="Group_8469" data-name="Group 8469" transform="translate(0)">
                <rect id="Rectangle_1800" data-name="Rectangle 1800" width="0.979" height="43.226" transform="translate(0 0.177) rotate(-10.399)" fill="#add0ff"/>
              </g>
            </g>
          </g>
        </g>
        <path id="Path_11397" data-name="Path 11397" d="M939.881,552.986s.807-2.769-2.726-7.034c-4.6-5.557-10.116-2.308-6.522,4.234" transform="translate(-887.408 -543.116)" fill="none" stroke="#3b2ad1" stroke-linecap="round" stroke-linejoin="round" stroke-width="2.955"/>
        <path id="Path_11398" data-name="Path 11398" d="M964.463,631.732h0a2.769,2.769,0,0,1-1.929-3.395l1.731-6.288a2.769,2.769,0,0,1,3.395-1.929h0a2.769,2.769,0,0,1,1.929,3.395l-1.732,6.288A2.769,2.769,0,0,1,964.463,631.732Z" transform="translate(-905.788 -586)" fill="#ffc2b0"/>
        <path id="Path_11399" data-name="Path 11399" d="M898.08,649.54s6.093,27.717,22.451,16.372c9.9-6.863,11.509-25.628,11.509-25.628l-3.409-1.027s-5.779,18.427-11.72,16.849-10.249-12.432-13.247-14.793C901.4,639.533,898.08,649.54,898.08,649.54Z" transform="translate(-869.902 -596.726)" fill="#ff80db"/>
        <ellipse id="Ellipse_8" data-name="Ellipse 8" cx="20.054" cy="9.962" rx="20.054" ry="9.962" transform="translate(0 150.519) rotate(-1.016)" fill="#a8c4e5" opacity="0.4" style="mix-blend-mode: multiply;isolation: isolate"/>
        <path id="Path_11400" data-name="Path 11400" d="M852.787,883.23l4.7-.589c3.144-1.424,4.612-2.495,6.012-1.686l.4.229c1.4.808,1.223,2.233-.394,3.167l-6.906,5.486a4.558,4.558,0,0,1-5.085-.494s-.773-.7-.22-3.632C851.6,884.037,851.494,883.976,852.787,883.23Z" transform="translate(-843.699 -731.346)" fill="#2c1f9c"/>
        <path id="Path_11401" data-name="Path 11401" d="M899.408,904.492l4.652.876c3.428-.394,5.155-.963,6.24.235l.308.339c1.085,1.2.48,2.5-1.344,2.894l-8.253,3.109a4.556,4.556,0,0,1-4.69-2.026s-.523-.9.9-3.525C898.035,904.9,897.949,904.807,899.408,904.492Z" transform="translate(-868.869 -744.626)" fill="#2c1f9c"/>
        <path id="Path_11402" data-name="Path 11402" d="M903.536,897.456c0,2.35-5.718,2.35-5.718,0v-7.64h5.718Z" transform="translate(-869.756 -736.442)" fill="#c6d2f2"/>
        <path id="Path_11403" data-name="Path 11403" d="M884.258,799c-.532,2.918-6.492,2.706-7.771.819-1.251-25.19-6.073-51.347-14.277-77.989h20.638A712.669,712.669,0,0,1,884.258,799Z" transform="translate(-849.9 -642.771)" fill="#3b2ad1"/>
        <path id="Path_11404" data-name="Path 11404" d="M857.71,879.839c-.13,2.129-5.848,2.129-5.718,0l.423-6.918h5.718Z" transform="translate(-844.201 -727.021)" fill="#c6d2f2"/>
        <path id="Path_11405" data-name="Path 11405" d="M857.479,794.2c-2.176,2.354-6.716,1.349-7.659-.351l-.142-68.994,14.468,2.131Z" transform="translate(-842.912 -644.457)" fill="#3b2ad1"/>
        <ellipse id="Ellipse_9" data-name="Ellipse 9" cx="6.087" cy="10.739" rx="6.087" ry="10.739" transform="translate(12.813 13.591) rotate(-7.368)" fill="#ffc2b0"/>
        <path id="Path_11406" data-name="Path 11406" d="M887.655,585.48c-1.417,4.939-6.711,6.726-9.823,3.5s-4.487-9.841-3.07-14.78,5.089-6.329,8.2-3.105S889.072,580.541,887.655,585.48Z" transform="translate(-856.588 -557.749)" fill="#ffc2b0"/>
        <path id="Path_11407" data-name="Path 11407" d="M873.584,616.865l-.53-.118a3.341,3.341,0,0,1-2.526-3.976l2.249-10.081a3.341,3.341,0,0,1,3.976-2.526l.529.118a3.341,3.341,0,0,1,2.526,3.976l-.737,10.005C878.673,616.051,875.372,617.264,873.584,616.865Z" transform="translate(-854.494 -574.882)" fill="#ffc2b0"/>
        <path id="Path_11408" data-name="Path 11408" d="M862.874,584.795s.536,4.652,7.146,3.721c4.742-.668,3.361-8.384,8.1-9.157,5.216-.851,6.161-7.294,4.106-9.766s-7.8-3.766-11.959-1.931S859.693,569.388,862.874,584.795Z" transform="translate(-849.793 -556.321)" fill="#4432db"/>
        <path id="Path_11409" data-name="Path 11409" d="M892.871,597.611a2.262,2.262,0,1,1-1.55-2.8A2.262,2.262,0,0,1,892.871,597.611Z" transform="translate(-864.523 -571.894)" fill="#ffc2b0"/>
        <path id="Path_11410" data-name="Path 11410" d="M846.906,664.452c1.688-9.254-.127-16.567.02-26.406,0-17.687-.848-22,8.5-19.313l2.635.7a18.194,18.194,0,0,1,3.658,1.412c12.328,6.351,15.618,8.311,15.077,15.678.055,12.135-1.733,25.745-1.988,31.716C872.269,676.631,849.725,670.457,846.906,664.452Z" transform="translate(-841.366 -584.872)" fill="#ff80db"/>
        <path id="Path_11411" data-name="Path 11411" d="M890.352,615.826l-.536-1.239a3.4,3.4,0,0,0,2.772.722A4.353,4.353,0,0,1,890.352,615.826Z" transform="translate(-865.293 -582.97)" fill="#f09a82"/>
      </g>
      <g id="Group_8478" data-name="Group 8478" transform="translate(201.213 138.09)">
        <path id="Path_11412" data-name="Path 11412" d="M1231.948,463.868a12.74,12.74,0,0,0-5.9-11.286l-57.606-34.245c-3.155-1.875-5.79.416-5.858,5.091l-.6,41.907a11.812,11.812,0,0,0,5.47,10.465l52.912,31.455c4.829,2.871,10.977-1.29,11.066-7.489Z" transform="translate(-1158.729 -417.682)" fill="#d9e9ff"/>
        <g id="Group_8475" data-name="Group 8475" transform="translate(4.515 15.008)">
          <g id="Group_8474" data-name="Group 8474" transform="translate(0)">
            <ellipse id="Ellipse_10" data-name="Ellipse 10" cx="10.788" cy="19.255" rx="10.788" ry="19.255" transform="matrix(0.912, -0.411, 0.411, 0.912, 0, 8.863)" fill="#fff"/>
          </g>
        </g>
        <path id="Path_11413" data-name="Path 11413" d="M1200.77,497.97c1.1.7,2.475-.455,2.184-1.84a12.626,12.626,0,0,0-.99-3.161h0a6.954,6.954,0,0,0-.986-1.219c-.333-.35-.767-.847-1.188-1.327l-.421-.48h0l-.849-1.013-.379-.546a1.366,1.366,0,0,1-.089-.126c-.007-.069,0-.145,0-.208q-.015-.662-.031-1.324a1.727,1.727,0,0,0,.649-1.316c.573.38.713-.464.773-1.063.043-.425.1-1.494-.34-1.889.011-.067.022-.131.034-.187a5.791,5.791,0,0,0,.139-1.125,4,4,0,0,0-.2-1.312,1.235,1.235,0,0,0-.141-.3,1.646,1.646,0,0,0-.067-.48,6.8,6.8,0,0,0-1.693-3.07,3.681,3.681,0,0,0-2.122-1.072.938.938,0,0,0-1.2,1.025,1.154,1.154,0,0,0,.057.376c-.1-.05-.17.02-.22.106a2.13,2.13,0,0,0-.2,1.058,9.018,9.018,0,0,0,.147,1.305c.011.069.022.145.034.223-.549-.359-.453.923-.4,1.447.071.654.223,1.635.742,2a6.3,6.3,0,0,0,.161.882,5.386,5.386,0,0,0,.46,1.165.069.069,0,0,0,0,.016q.016.68.031,1.36c0,.038.01.112.007.158-.008-.032-.093.046-.115.059l-.24.137,0,0-.226-.035,0-.008-.054-.012a3.17,3.17,0,0,0-.453-.059l-.018,0h0c-.193-.012-.389-.014-.582-.015-.347,0-.7-.087-1.035-.073-.846.034-2,.916-2.186,3.123a2.741,2.741,0,0,0,1.132,2.536Zm-1.442-13.652c-.007.058-.013.11-.018.151C1199.316,484.423,1199.322,484.372,1199.328,484.318Z" transform="translate(-1174.212 -449.585)" fill="#e655be"/>
        <g id="Group_8476" data-name="Group 8476" transform="translate(42.385 42.41)">
          <path id="Path_11414" data-name="Path 11414" d="M1268.251,524.612l-17.708-11.061-.106,6.719,17.708,11.061Z" transform="translate(-1250.438 -513.551)" fill="#fff"/>
        </g>
        <g id="Group_8477" data-name="Group 8477" transform="translate(42.2 54.123)">
          <path id="Path_11415" data-name="Path 11415" d="M1250.126,540.027l-.106,6.719,26.869,16.782.106-6.719Z" transform="translate(-1250.02 -540.027)" fill="#fff"/>
        </g>
        <ellipse id="Ellipse_11" data-name="Ellipse 11" cx="13.96" cy="24.233" rx="13.96" ry="24.233" transform="matrix(0.914, -0.407, 0.407, 0.914, 0, 21.189)" fill="none" stroke="#fff" stroke-linecap="round" stroke-linejoin="round" stroke-width="1.505"/>
      </g>
    </g>
  </g>
</svg>
