<svg xmlns="http://www.w3.org/2000/svg" width="7680" height="250" viewBox="0 0 7680 250">
  <g id="footchartmountains" transform="translate(0 0)">
    <path id="Back" d="M6720,250H5760V127.535l175.794-66.774L6193.1,136.08l151.245-37.659L6485,147.059,6720,13.428,6852.249,0l127.5,64.057,111,58.946L7202,118.69l99.5-38.338,74,38.338,92.75-7.827L7585,53.514l95,74.121V250Zm-1920,0H3840V127.535l175.795-66.774L4273.1,136.08l151.245-37.659L4565,147.059,4800,13.428,4932.249,0l127.5,64.057,111,58.946L5282,118.69l99.5-38.338,74,38.338,92.75-7.827L5665,53.514l95,74.121V250Zm-1920,0H1920V127.535l175.795-66.774L2353.1,136.08l151.245-37.659L2645,147.059,2880,13.428,3012.249,0l127.5,64.057,111,58.946L3362,118.69l99.5-38.338,74,38.338,92.75-7.827L3745,53.514l95,74.121V250ZM960,250H0V127.535L175.795,60.761,433.1,136.08,584.349,98.421,725,147.059,960,13.428,1092.249,0l127.5,64.057,111,58.946L1442,118.69l99.5-38.338,74,38.338,92.75-7.827L1825,53.514l95,74.121V250Z" transform="translate(0 0)" fill="#fafcff"/>
    <path id="Front" d="M6720,169.551H5760V96.415l158.523-52.757s148.185,59.232,148.185,56.834,82.214-16.067,82.214-16.067l67.939,32.854L6364.555,71l147.2,47.241L6720,29.619,6849.25,0l196.5,75.357L7175,50.479l124,24.878,74-14.975,114.25,14.975,98.5-40.335L7680,96.408v73.143Zm-1920,0H3840V96.415l158.523-52.757s148.184,59.232,148.184,56.834,82.214-16.067,82.214-16.067l67.94,32.854L4444.555,71l147.2,47.241L4800,29.619,4929.25,0l196.5,75.357L5255,50.479l124,24.878,74-14.975,114.25,14.975,98.5-40.335L5760,96.408v73.143Zm-1920,0H1920V96.415l158.523-52.757s148.184,59.232,148.184,56.834,82.214-16.067,82.214-16.067l67.94,32.854L2524.555,71l147.2,47.241L2880,29.619,3009.25,0l196.5,75.357L3335,50.479l124,24.878,74-14.975,114.25,14.975,98.5-40.335L3840,96.408v73.143Zm-1920,0H0V96.415L158.523,43.658s148.184,59.232,148.184,56.834,82.216-16.067,82.216-16.067l67.938,32.854L604.555,71l147.2,47.241L960,29.619,1089.25,0l196.5,75.357L1415,50.479l124,24.878,74-14.975,114.25,14.975,98.5-40.335L1920,96.408v73.143Z" transform="translate(0 80.448)" fill="#f1f6fe"/>
  </g>
</svg>
