<svg xmlns="http://www.w3.org/2000/svg" width="3840" height="750" viewBox="0 0 3840 750">
  <g id="headsliderbg" transform="translate(0 0)">
    <path id="Back" d="M1920,750H0V382.6l351.591-200.32,514.62,225.955L1168.7,295.261,1450,441.177l470-400.9L2184.5,0l255,192.173,222,176.837L2884,356.071l199-115.016,148,115.016,185.5-23.483L3650,160.543l190,222.364V750Z" transform="translate(0 0)" fill="#f4f8ff"/>
    <path id="Front" d="M1920,669.552H0V380.738L317.046,172.4s296.369,233.9,296.369,224.433S777.846,333.39,777.846,333.39L913.723,463.126,1209.11,280.359l294.4,186.555L1920,116.963,2178.5,0l393,297.579L2830,199.34l248,98.239,148-59.134,228.5,59.134,197-159.28L3840,380.711V669.552Z" transform="translate(0 80.448)" fill="#ebf2ff"/>
  </g>
</svg>
